<?xml version="1.0" encoding="utf-8"?>
<!-- Generator: Adobe Illustrator 23.0.0, SVG Export Plug-In . SVG Version: 6.00 Build 0)  -->
<svg version="1.1" id="Capa_1" xmlns="http://www.w3.org/2000/svg" xmlns:xlink="http://www.w3.org/1999/xlink" x="0px" y="0px"
	 viewBox="0 0 64 64" style="enable-background:new 0 0 64 64;" xml:space="preserve">
<style type="text/css">
	.st0{fill:#009FE3;}
</style>
<g>
	<path class="st0" d="M64,32.6c0.2-8.4-3.2-16.5-9.5-22.7C48,3.6,39,0,29.8,0h-1.6c-0.1,0-0.1,0-0.1,0.1v8.2c0,0,0,0.1,0.1,0.1h2.1
		c6.8,0,13.1,2.6,17.8,7.2c4.7,4.6,7.1,10.8,6.9,17.2c-0.5,12.5-11.8,22.7-25.3,22.7H6.9V43.4l-6.9,0L0,64h30.5
		C48.6,64,63.6,49.9,64,32.6z"/>
	<rect x="10.4" y="38.4" class="st0" width="6.3" height="13.5"/>
	<rect x="20" y="33" class="st0" width="6.3" height="18.9"/>
	<rect x="29.6" y="27.7" class="st0" width="6.3" height="24.1"/>
</g>
<polygon class="st0" points="26.5,14.5 30.3,17.5 23.4,25.5 20.2,22.6 13.5,31.3 9.4,28.1 1.9,38 4.2,39.6 9.9,31.9 14,35.1 
	20.6,26.6 23.7,29.4 32.5,19.2 36.5,22.5 36.6,12.5 "/>
</svg>
