<?xml version="1.0" encoding="utf-8"?>
<!-- Generator: Adobe Illustrator 23.0.0, SVG Export Plug-In . SVG Version: 6.00 Build 0)  -->
<svg version="1.1" id="Capa_1" xmlns="http://www.w3.org/2000/svg" xmlns:xlink="http://www.w3.org/1999/xlink" x="0px" y="0px"
	 viewBox="0 0 128.7 90" style="enable-background:new 0 0 128.7 90;" xml:space="preserve">
<style type="text/css">
	.st0{fill:#FFFFFF;}
</style>
<g>
	<path class="st0" d="M128.7,47.6c0-5.4-3.5-9.8-8.7-9.8c-2.6,0-5.8,2.9-7.5,4.6c-1.7-1.8-4.7-4.6-7.3-4.6c-5.3,0-8.9,4.4-8.9,9.8
		c0,2.7,1.1,5.1,2.8,6.9L112.5,68l13.4-13.5l0,0C127.6,52.8,128.7,50.3,128.7,47.6"/>
	<path class="st0" d="M71.4,90c0,0-0.1,0-0.1,0c-1-0.1-1.9-0.8-2-1.8l-6.8-39.8L52,67.6c-0.5,0.8-1.4,1.3-2.3,1.1
		c-0.9-0.2-1.7-0.9-1.8-1.9l-4.4-30.7l-8,18.1c-0.4,0.8-1.1,1.3-2,1.3H2.2c-1.2,0-2.2-1-2.2-2.2c0-1.2,1-2.2,2.2-2.2H32l10.6-23.7
		c0.4-0.9,1.3-1.4,2.3-1.3c1,0.1,1.7,0.9,1.9,1.9l4.5,31.7l10.2-18.9c0.4-0.8,1.4-1.3,2.3-1.1c0.9,0.2,1.7,0.9,1.8,1.8L72,78.2
		L95,1.6c0.3-0.9,1-1.5,1.9-1.6c0.9-0.1,1.8,0.4,2.2,1.2l12.1,25.2c0.5,1.1,0.1,2.4-1,2.9c-1.1,0.5-2.4,0.1-2.9-1l-9.7-20L73.5,88.4
		C73.2,89.4,72.4,90,71.4,90"/>
</g>
</svg>
