<?xml version="1.0" encoding="utf-8"?>
<!-- Generator: Adobe Illustrator 23.0.0, SVG Export Plug-In . SVG Version: 6.00 Build 0)  -->
<svg version="1.1" id="Capa_1" xmlns="http://www.w3.org/2000/svg" xmlns:xlink="http://www.w3.org/1999/xlink" x="0px" y="0px"
	 viewBox="0 0 272.7 63.8" style="enable-background:new 0 0 272.7 63.8;" xml:space="preserve">
<style type="text/css">
	.st0{fill:#FFFFFF;}
</style>
<g>
	<path class="st0" d="M4.5,55.8l-1.8-4.5h-1L0,55.8h1l0.4-1h1.8l0.4,1H4.5z M1.7,54l0.6-1.6L2.9,54H1.7z"/>
	<polygon class="st0" points="7.9,55 5.7,55 5.7,51.4 4.8,51.4 4.8,55.8 7.9,55.8 	"/>
	<path class="st0" d="M10.6,54.9c-0.2,0.2-0.4,0.2-0.6,0.2c-0.3,0-0.6-0.1-0.8-0.4c-0.2-0.2-0.3-0.6-0.3-1.2c0-0.5,0.1-0.9,0.3-1.1
		C9.4,52.2,9.7,52,10,52c0.2,0,0.4,0.1,0.6,0.2c0.2,0.1,0.3,0.3,0.3,0.5l0.9-0.2c-0.1-0.4-0.3-0.6-0.5-0.8c-0.3-0.3-0.8-0.5-1.3-0.5
		c-0.6,0-1.1,0.2-1.5,0.6c-0.4,0.4-0.6,1-0.6,1.7s0.2,1.3,0.6,1.7c0.4,0.4,0.9,0.6,1.5,0.6c0.5,0,0.9-0.1,1.2-0.4
		c0.3-0.2,0.5-0.6,0.7-1.1l-1-0.1C10.9,54.5,10.7,54.7,10.6,54.9z"/>
	<path class="st0" d="M13.1,54.8h1.8l0.4,1h1l-1.8-4.5h-1l-1.7,4.5h1L13.1,54.8z M14,52.4l0.6,1.6h-1.2L14,52.4z"/>
	<polygon class="st0" points="19.8,55 17.5,55 17.5,51.4 16.6,51.4 16.6,55.8 19.8,55.8 	"/>
	<path class="st0" d="M22.6,51.4c-0.2-0.1-0.5-0.1-0.9-0.1h-1.6v4.5h1.7c0.3,0,0.6,0,0.8-0.1c0.3-0.1,0.5-0.2,0.6-0.4
		c0.2-0.2,0.4-0.5,0.5-0.8s0.1-0.6,0.1-1s0-0.8-0.1-1.1s-0.2-0.5-0.4-0.7C23.1,51.6,22.9,51.5,22.6,51.4z M22.8,54.4
		c-0.1,0.2-0.1,0.3-0.2,0.4c-0.1,0.1-0.2,0.1-0.4,0.2c-0.1,0-0.3,0-0.5,0H21v-3h0.4c0.4,0,0.6,0,0.7,0c0.2,0,0.3,0.1,0.4,0.2
		c0.1,0.1,0.2,0.2,0.3,0.4c0.1,0.2,0.1,0.4,0.1,0.8C22.9,53.9,22.9,54.2,22.8,54.4z"/>
	<polygon class="st0" points="24.9,50 24.5,50.9 25,50.9 25.9,50 	"/>
	<rect x="24.3" y="51.3" class="st0" width="0.9" height="4.5"/>
	<path class="st0" d="M27.3,51.3l-1.7,4.5h1l0.4-1h1.7l0.4,1h1l-1.8-4.5H27.3z M27.2,54l0.6-1.6l0.6,1.6H27.2z"/>
	<polygon class="st0" points="36.5,51.3 35.1,51.3 34.3,54.4 33.5,51.3 32.2,51.3 32.2,55.8 33,55.8 33,52.3 33.9,55.8 34.8,55.8 
		35.7,52.3 35.7,55.8 36.5,55.8 	"/>
	<path class="st0" d="M41.3,55.8l-1.8-4.5h-1l-1.7,4.5h1l0.4-1H40l0.4,1H41.3z M38.4,54l0.6-1.6l0.6,1.6H38.4z"/>
	<polygon class="st0" points="40.2,51.3 41.8,53.9 41.8,55.8 42.7,55.8 42.7,53.9 44.4,51.3 43.3,51.3 42.3,53.1 41.3,51.3 	"/>
	<path class="st0" d="M44,53.6c0,0.7,0.2,1.3,0.6,1.7c0.4,0.4,0.9,0.6,1.6,0.6c0.7,0,1.2-0.2,1.6-0.6c0.4-0.4,0.6-1,0.6-1.7
		s-0.2-1.3-0.6-1.7c-0.4-0.4-0.9-0.6-1.6-0.6c-0.4,0-0.7,0.1-1,0.2c-0.2,0.1-0.4,0.2-0.6,0.4c-0.2,0.2-0.3,0.4-0.4,0.6
		C44.1,52.8,44,53.1,44,53.6z M45.3,52.4c0.2-0.3,0.5-0.4,0.9-0.4s0.7,0.1,0.9,0.4c0.2,0.3,0.3,0.6,0.3,1.1s-0.1,0.9-0.3,1.2
		s-0.5,0.4-0.9,0.4s-0.7-0.1-0.9-0.4c-0.2-0.3-0.3-0.6-0.3-1.1C44.9,53.1,45,52.7,45.3,52.4z"/>
	<path class="st0" d="M51.6,54.2c-0.1-0.1-0.3-0.3-0.5-0.4c0.4-0.1,0.7-0.2,0.9-0.4s0.3-0.5,0.3-0.8s-0.1-0.5-0.2-0.7
		c-0.1-0.2-0.3-0.3-0.5-0.4c-0.2-0.1-0.6-0.1-1-0.1h-1.9v4.5h0.9V54h0.1c0.2,0,0.4,0,0.5,0.1c0.1,0,0.2,0.1,0.3,0.2
		c0.1,0.1,0.2,0.3,0.5,0.7l0.6,1h1.1l-0.6-0.9C51.9,54.6,51.7,54.3,51.6,54.2z M50.2,53.2h-0.7v-1.1h0.7c0.4,0,0.6,0,0.7,0
		c0.2,0,0.3,0.1,0.3,0.2c0.1,0.1,0.1,0.2,0.1,0.4c0,0.1,0,0.2-0.1,0.3s-0.1,0.2-0.3,0.2C50.9,53.2,50.6,53.2,50.2,53.2z"/>
	<rect x="43.7" y="62.2" class="st0" width="0.8" height="0.8"/>
	<path class="st0" d="M6.4,59.1c-0.2-0.2-0.4-0.3-0.7-0.4c-0.2-0.1-0.5-0.1-0.8-0.1H3.2V63h1.7c0.3,0,0.6,0,0.8-0.1
		c0.3-0.1,0.5-0.2,0.6-0.3c0.2-0.2,0.4-0.5,0.5-0.8c0.1-0.3,0.1-0.6,0.1-0.9c0-0.4,0-0.7-0.1-1C6.7,59.5,6.5,59.3,6.4,59.1z
		 M5.9,61.6c-0.1,0.2-0.1,0.3-0.2,0.4c-0.1,0.1-0.2,0.2-0.4,0.2c-0.1,0-0.3,0-0.5,0H4.1v-2.9h0.4c0.4,0,0.6,0,0.7,0
		c0.2,0,0.3,0.1,0.4,0.2c0.1,0.1,0.2,0.2,0.3,0.4C6,60.1,6,60.3,6,60.7C6,61.2,6,61.4,5.9,61.6z"/>
	<polygon class="st0" points="8.1,61.1 10.3,61.1 10.3,60.3 8.1,60.3 8.1,59.4 10.5,59.4 10.5,58.6 7.2,58.6 7.2,63 10.5,63 
		10.5,62.3 8.1,62.3 	"/>
	<path class="st0" d="M15.5,60.7c0.2-0.1,0.3-0.2,0.4-0.4c0.1-0.2,0.2-0.4,0.2-0.6c0-0.2,0-0.4-0.1-0.5c-0.1-0.1-0.2-0.3-0.3-0.4
		c-0.1-0.1-0.3-0.2-0.5-0.2s-0.4,0-0.8,0h-1.7V63h1.5c0.6,0,0.9,0,1.1,0c0.2,0,0.4-0.1,0.6-0.2c0.2-0.1,0.3-0.3,0.4-0.4
		c0.1-0.2,0.1-0.4,0.1-0.6c0-0.3-0.1-0.5-0.2-0.7C16,60.9,15.8,60.8,15.5,60.7z M13.6,59.4h0.5c0.4,0,0.7,0,0.8,0s0.3,0.1,0.3,0.2
		c0.1,0.1,0.1,0.2,0.1,0.3s0,0.3-0.1,0.3c-0.1,0.1-0.2,0.1-0.4,0.2c-0.1,0-0.3,0-0.6,0h-0.6V59.4z M15.3,62.1
		c-0.1,0.1-0.2,0.1-0.3,0.1c-0.1,0-0.3,0-0.6,0h-0.8V61h0.7c0.4,0,0.7,0,0.8,0.1c0.1,0,0.2,0.1,0.3,0.2c0.1,0.1,0.1,0.2,0.1,0.3
		C15.5,61.8,15.4,62,15.3,62.1z"/>
	<path class="st0" d="M18.8,58.5c-0.4,0-0.7,0.1-0.9,0.2c-0.2,0.1-0.4,0.2-0.6,0.4s-0.3,0.4-0.4,0.6c-0.2,0.3-0.2,0.7-0.2,1.1
		c0,0.7,0.2,1.2,0.6,1.6c0.4,0.4,0.9,0.6,1.6,0.6c0.6,0,1.2-0.2,1.5-0.6c0.4-0.4,0.6-1,0.6-1.7s-0.2-1.3-0.6-1.7
		C20,58.7,19.4,58.5,18.8,58.5z M19.7,61.9c-0.2,0.3-0.5,0.4-0.9,0.4c-0.3,0-0.6-0.1-0.9-0.4c-0.2-0.3-0.3-0.6-0.3-1.1
		s0.1-0.9,0.3-1.1c0.2-0.3,0.5-0.4,0.9-0.4s0.7,0.1,0.9,0.4c0.2,0.2,0.3,0.6,0.3,1.1C20,61.3,19.9,61.7,19.7,61.9z"/>
	<path class="st0" d="M23.5,61.4h1V62c-0.1,0.1-0.3,0.2-0.5,0.3s-0.4,0.1-0.6,0.1c-0.4,0-0.7-0.1-0.9-0.4c-0.2-0.3-0.3-0.6-0.3-1.2
		c0-0.5,0.1-0.8,0.3-1.1c0.2-0.2,0.5-0.4,0.9-0.4c0.3,0,0.5,0.1,0.6,0.2c0.2,0.1,0.3,0.3,0.3,0.5l0.9-0.2c-0.1-0.4-0.3-0.7-0.6-0.9
		c-0.3-0.2-0.7-0.3-1.3-0.3c-0.4,0-0.8,0.1-1.1,0.2c-0.4,0.2-0.6,0.5-0.8,0.8c-0.2,0.3-0.3,0.8-0.3,1.2s0.1,0.8,0.3,1.2
		c0.2,0.4,0.4,0.6,0.8,0.8c0.3,0.2,0.7,0.3,1.2,0.3c0.4,0,0.7-0.1,1.1-0.2c0.4-0.1,0.6-0.3,0.8-0.5v-1.7h-1.9v0.7H23.5z"/>
	<path class="st0" d="M27.9,58.5c-0.4,0-0.7,0.1-0.9,0.2c-0.2,0.1-0.4,0.2-0.6,0.4s-0.3,0.4-0.4,0.6c-0.1,0.3-0.2,0.7-0.2,1.1
		c0,0.7,0.2,1.2,0.6,1.6c0.4,0.4,0.9,0.6,1.6,0.6c0.6,0,1.2-0.2,1.5-0.6c0.4-0.4,0.6-1,0.6-1.7s-0.2-1.3-0.6-1.7
		C29.1,58.7,28.6,58.5,27.9,58.5z M28.8,61.9c-0.2,0.3-0.5,0.4-0.9,0.4s-0.6-0.1-0.9-0.4c-0.2-0.3-0.3-0.6-0.3-1.1s0.1-0.9,0.3-1.1
		c0.2-0.3,0.5-0.4,0.9-0.4s0.7,0.1,0.9,0.4c0.2,0.2,0.3,0.6,0.3,1.1C29.2,61.3,29,61.7,28.8,61.9z"/>
	<polygon class="st0" points="33.6,58.6 30.1,58.6 30.1,59.4 31.4,59.4 31.4,63 32.3,63 32.3,59.4 33.6,59.4 	"/>
	<path class="st0" d="M34.8,58.6L33.1,63H34l0.4-1h1.8l0.4,1h1l-1.8-4.4H34.8z M34.7,61.3l0.6-1.6l0.6,1.6H34.7z"/>
	<polygon class="st0" points="35,58.2 35.5,58.2 36.3,57.3 35.4,57.3 	"/>
	<path class="st0" d="M43.1,59.1c-0.2-0.2-0.4-0.3-0.7-0.4c-0.2-0.1-0.5-0.1-0.8-0.1H40V63h1.7c0.3,0,0.6,0,0.8-0.1
		c0.3-0.1,0.5-0.2,0.6-0.3c0.2-0.2,0.4-0.5,0.5-0.8s0.1-0.6,0.1-0.9c0-0.4,0-0.7-0.1-1C43.4,59.5,43.3,59.3,43.1,59.1z M42.6,61.6
		c-0.1,0.2-0.1,0.3-0.2,0.4c-0.1,0.1-0.2,0.1-0.4,0.2c-0.1,0-0.3,0-0.5,0h-0.7v-2.9h0.4c0.4,0,0.6,0,0.7,0c0.2,0,0.3,0.1,0.4,0.2
		c0.1,0.1,0.2,0.2,0.3,0.4c0.1,0.3,0.1,0.6,0.1,0.9C42.7,61.2,42.7,61.4,42.6,61.6z"/>
	<path class="st0" d="M47.2,62.1c-0.2,0.1-0.4,0.2-0.6,0.2c-0.3,0-0.6-0.1-0.8-0.4c-0.2-0.2-0.3-0.6-0.3-1.2c0-0.5,0.1-0.9,0.3-1.1
		c0.2-0.2,0.5-0.3,0.8-0.3c0.2,0,0.4,0.1,0.6,0.2c0.2,0.1,0.3,0.3,0.3,0.5l0.9-0.2c-0.1-0.4-0.3-0.6-0.4-0.8
		c-0.3-0.3-0.8-0.5-1.3-0.5c-0.6,0-1.1,0.2-1.5,0.6c-0.4,0.4-0.6,1-0.6,1.7s0.2,1.2,0.6,1.6c0.4,0.4,0.8,0.6,1.4,0.6
		c0.5,0,0.9-0.1,1.2-0.4c0.3-0.2,0.5-0.6,0.7-1.1l-0.9-0.3C47.5,61.7,47.3,61.9,47.2,62.1z"/>
	<rect x="48.5" y="62.2" class="st0" width="0.8" height="0.8"/>
	<path class="st0" d="M22.7,15.7c0.8,0,1.4-0.3,1.4-0.7c0-0.3-0.6-0.7-1.4-0.7s-1.2,0.4-1.2,0.8C21.4,15.4,21.9,15.7,22.7,15.7z"/>
	<path class="st0" d="M13.6,38.5c-0.3,0.2-0.3,0.9,0.1,1.5c0.4,0.6,1,0.8,1.3,0.6s0.4-0.7,0-1.3C14.5,38.6,13.9,38.3,13.6,38.5z"/>
	<path class="st0" d="M31.1,15c0-0.3-0.4-0.7-1.2-0.8c-0.8,0-1.4,0.4-1.4,0.7c0,0.4,0.6,0.7,1.4,0.7C30.7,15.7,31.2,15.4,31.1,15z"
		/>
	<path class="st0" d="M24.6,43c-0.8-0.1-1.5,0.1-1.6,0.4c-0.1,0.3,0.4,0.8,1.2,1c0.8,0.2,1.3-0.1,1.4-0.5
		C25.7,43.6,25.4,43.1,24.6,43z"/>
	<path class="st0" d="M39,29.8c0.4,0,0.8-0.3,0.8-1.1c0-0.8-0.3-1.4-0.6-1.4c-0.4,0-0.8,0.5-0.9,1.3C38.3,29.4,38.6,29.8,39,29.8z"
		/>
	<path class="st0" d="M14.3,28.6c0-0.8-0.5-1.3-0.9-1.3s-0.6,0.7-0.6,1.4c0,0.7,0.4,1.1,0.8,1.1C14.1,29.8,14.4,29.4,14.3,28.6z"/>
	<path class="st0" d="M39.4,18.5c0.4,0,0.7-0.5,0.7-1.2c0-0.8-0.5-1.3-0.9-1.3s-0.7,0.7-0.6,1.4C38.6,18.2,39,18.6,39.4,18.5z"/>
	<path class="st0" d="M37.7,40.6c0.3,0.2,0.8,0,1.3-0.6c0.4-0.6,0.4-1.3,0.1-1.5c-0.3-0.2-1,0.1-1.4,0.7
		C37.3,39.8,37.4,40.4,37.7,40.6z"/>
	<path class="st0" d="M13.3,18.5c0.4,0,0.8-0.3,0.8-1.1S13.9,16,13.5,16c-0.4,0-0.8,0.5-0.9,1.3C12.6,18.1,12.9,18.5,13.3,18.5z"/>
	<path class="st0" d="M35.2,31.3c0,0,0.2-0.6,0.1-0.7c-0.1,0-0.6,0.5-0.6,0.5c-0.1-0.4-0.7-0.4-0.7-0.4v0.2c0.4,0,0.5,0.6,0.4,0.8
		c0,0.1,0.4,0.4,0.5,0.3c0.1-0.2,0.6-0.3,0.9,0l0.1-0.1C35.8,31.7,35.6,31.2,35.2,31.3z"/>
	<path class="st0" d="M16.9,22.9c0,0,0.5,2.7,4.2,2.8c0,0-2.4,0.8-3.3,0.7c0,0,1.7,2,4.3,1.4c0,0-1.4,1.3-3,1c0,0,1.8,1.6,4.2,0.3
		c0,0-0.5,1.2-1.7,1.6c0,0,1.5,1,3.2-0.4c0.2-0.2,0.9,0,0.2,0.6c-0.9,0.7-2.2,0.9-2.8,2l0.7,0.1c-0.8,0.8-1.8,1.8-1.9,1.9
		c0,0-0.2-0.2-0.6-0.1c-0.1,0-0.1-0.1-0.2-0.1c0.5-0.2,1.1-0.5,0.8-1.1c0,0-0.8,0.8-1.4,0.8c0.8-0.5,1.1-1.5,0.7-2.1
		c-0.4-0.7-1.5-0.8-2.4-0.3s-1.2,1.5-0.8,2.2c0.4,0.7,1.4,0.8,2.3,0.3c-0.4,0.5-1.1,0.7-1.3,0.8c0,0,0.5,0.9,1.6-0.3
		c0.1,0,0.1,0.1,0.2,0.1c-0.3,0.2-0.4,0.6-0.2,0.8c0,0-0.1,0.6,0.6,0.6c0,0,0.2,0.4,0.7,0.2c0.3,0.9,0.2,1.6,0.3,2.1h0.9
		c-0.1-0.4-0.1-1.7-0.8-2.9c0.1-0.1,0.2-0.3,0.1-0.5c0,0,1.3-0.9,2.3-1.5l0.1,0.6c0.3-0.4,0.8-0.8,1.4-0.9c-0.6,0.8-1,1.8-0.7,3.1
		c0,0,0.2-0.5,1-0.6c0,0-1.1,1.4,0.7,4c1.8-2.6,0.8-4,0.8-4c0.8,0.1,1,0.6,1,0.6c0.2-1.3-0.2-2.3-0.8-3.1c0.6,0.2,1,0.5,1.4,0.9
		l0.1-0.6c1,0.6,2.3,1.4,2.3,1.5c-0.1,0.2,0,0.3,0.1,0.5c-0.7,1.2-0.8,2.4-0.8,2.9h0.9c0.1-0.5,0-1.2,0.3-2.1
		c0.5,0.2,0.7-0.2,0.7-0.2c0.7,0,0.6-0.6,0.6-0.6c0.2-0.2,0.1-0.5-0.2-0.8c0.1-0.1,0.1-0.1,0.2-0.2c1.1,1.3,1.6,0.3,1.6,0.3
		c-0.3-0.1-1-0.3-1.3-0.8c0.9,0.5,1.8,0.4,2.3-0.3c0.4-0.7,0.1-1.7-0.8-2.2c-0.9-0.5-2-0.4-2.4,0.3c-0.4,0.7-0.1,1.6,0.7,2.1
		c-0.6,0.1-1.4-0.8-1.4-0.8c-0.3,0.6,0.3,1,0.8,1.1c-0.1,0-0.1,0.1-0.2,0.2c-0.5-0.1-0.6,0.1-0.6,0.1c-0.1,0-1.1-1.1-1.8-1.9
		l0.7-0.1c-0.5-1.1-1.8-1.3-2.7-2c-0.7-0.5,0.1-0.7,0.3-0.6c1.6,1.4,3.1,0.4,3.1,0.4C30,30.3,29.5,29,29.5,29
		c2.4,1.4,4.2-0.2,4.2-0.2c-1.6,0.3-2.8-1.2-2.8-1.2c2.5,0.6,4.2-1.1,4.2-1.1c-0.9,0.1-3.2-0.9-3.2-0.9c3.6-0.1,3.9-2.7,4-2.7
		c-1,0.7-3.7,0.3-3.7,0.3c3.8-1.3,3.5-4.5,3.5-4.5c-0.8,1.2-4.5,2.3-4.5,2.3c-1,0.3-1.8,1.2-1.8,2.2c0,0.4-0.4,0.8-0.9,0.8
		c-1,0-1-1.4-1-2.1c0-1,0-2.2-0.8-2.2h-1.4c-0.3,0-0.7,0-0.9,0.2c-0.4,0.4-0.3,1.6-0.1,1.3c0,0,0.6-0.2,0.9,0
		c0.5,0.1,0.1,1.6,0.1,1.9c0,0.4-0.4,0.8-0.9,0.8c-0.4,0-0.8-0.3-0.9-0.8c0-1-0.8-1.9-1.8-2.2c0,0-3.8-1.2-4.5-2.3
		c0,0-0.3,3.2,3.5,4.5C20.6,23.3,17.9,23.5,16.9,22.9z M18.1,33.5c-0.4-0.7-0.4-1.5-0.1-1.7c0.4-0.2,1,0.2,1.5,0.8
		c0.5,0.7,0.4,1.2,0,1.4C19.2,34.3,18.6,34.2,18.1,33.5z M33,32.7c0.4-0.7,1.1-1,1.5-0.8c0.4,0.2,0.4,1-0.1,1.7s-1,0.8-1.4,0.6
		C32.6,33.9,32.5,33.3,33,32.7z M25.3,20.7c0-0.2,0.2-0.4,0.4-0.4c0.2,0,0.4,0.2,0.4,0.4c0,0.2-0.2,0.3-0.4,0.3
		C25.4,21,25.3,20.9,25.3,20.7z"/>
	<path class="st0" d="M17.7,31.8c0.1,0.1,0.5-0.2,0.5-0.3c-0.1-0.2,0-0.7,0.4-0.8v-0.2c0,0-0.6,0-0.7,0.4c0,0-0.5-0.5-0.6-0.5
		c-0.1,0.1,0.1,0.7,0.1,0.7c-0.5,0.1-0.7,0.6-0.7,0.6l0.1,0.1C17,31.5,17.5,31.6,17.7,31.8z"/>
	<path class="st0" d="M30,35.9c-0.4-0.3-0.8-0.5-1.2-0.5c0,0.5,0.1,0.9,0.4,1.3c0.3,0.4,0.8,0.6,1.2,0.6
		C30.4,36.8,30.3,36.3,30,35.9z"/>
	<path class="st0" d="M22.1,37.3c0.4,0,0.9-0.2,1.2-0.6c0.4-0.4,0.5-0.8,0.4-1.3c-0.4,0-0.8,0.2-1.2,0.5
		C22.2,36.3,22,36.8,22.1,37.3z"/>
	<polygon class="st0" points="27.1,19.5 27.9,18.3 26.7,18.8 26.2,17.6 25.7,18.8 24.5,18.3 25.3,19.5 	"/>
	<path class="st0" d="M16.9,45.1c3.4,0,6.4,0.5,9.3,2.3c2.9-1.8,5.9-2.3,9.3-2.3c3.5,0,6.4-2.7,6.4-6.2V10.8
		c-4.9,2.6-10.8,2.6-15.7,0c-4.9,2.6-10.8,2.5-15.7,0v28.1C10.5,42.3,13.4,45.1,16.9,45.1z M22.7,43.6c-0.2,0-0.7,0.2-0.6,0.6H22
		c0,0-0.2-0.5,0.1-0.7c0,0-0.6-0.3-0.6-0.4c0-0.1,0.7-0.1,0.7-0.1c-0.2-0.3,0.2-0.7,0.2-0.7l0.1,0.1c-0.2,0.3,0.1,0.7,0.3,0.7
		C22.9,43.1,22.8,43.6,22.7,43.6z M30.1,44.6c-0.4-0.3-0.8-0.4-1.2-0.5c0,0.4-0.2,0.7-0.4,1c-0.3,0.3-0.7,0.5-1.1,0.5
		c0-0.4,0.2-0.9,0.4-1.2c0.1-0.1,0.3-0.2,0.4-0.3c-0.7,0.1-1.3,0.4-2.1,0.3c0.1,1.3-0.8,1.1-0.8,1.1c0.1-0.3,0.4-0.8,0.3-1.4
		c-0.2,0.8-0.9,1.4-1.7,1.3c-0.8-0.2-1.2-1-1-1.9s1-1.5,1.7-1.4c0.7,0.2,1.2,1,1,1.8c0.4-0.4,0.4-1.3,0.4-1.3c0.7,0.2,0.4,1,0.2,1.4
		c0.3,0.1,0.6,0.1,1.3-0.1c1.1-0.3,2.6-0.1,3.2,0.3L30.1,44.6z M40.3,38.4c-0.2-0.3-0.7-0.2-0.8,0c0,0.1-0.5-0.2-0.4-0.3
		c0.1-0.2,0.1-0.7-0.3-0.7v-0.1c0,0,0.5,0,0.6,0.3c0,0,0.4-0.5,0.6-0.4c0.1,0.1-0.2,0.7-0.2,0.7C40.2,37.8,40.4,38.3,40.3,38.4
		L40.3,38.4z M38.9,15.2c0,0,0.1-0.6,0.2-0.6c0.1,0,0.3,0.6,0.3,0.6c0.2-0.2,0.7,0,0.7,0v0.1c-0.4-0.2-0.7,0.2-0.6,0.4
		c0,0.1-0.5,0.2-0.5,0s-0.4-0.5-0.7-0.4v-0.1C38.1,15.3,38.5,14.9,38.9,15.2z M39.2,16c1-0.1,1.8,0.5,1.9,1.2c0,0.7-0.6,1.3-1.5,1.4
		c0.5,0.2,1.1,0,1.4-0.1c0,0,0.1,0.9-1.3,0.6c0.1,0.7-0.4,1.3-0.6,2c0.1-0.1,0.2-0.3,0.4-0.4c0.4-0.2,0.9-0.3,1.3-0.2
		c0,0.3-0.3,0.7-0.6,1c-0.4,0.2-0.8,0.3-1.1,0.3c0,0.3,0.1,0.7,0.3,1.2l-0.6,0.5c-0.3-0.6-0.4-2,0.1-3c0.3-0.7,0.4-0.9,0.4-1.2
		c-0.4,0.2-1.3,0.4-1.4-0.4c0,0,1,0.2,1.4-0.2c-0.9,0-1.6-0.5-1.7-1.2C37.5,16.7,38.2,16,39.2,16z M40.2,26.6v0.1
		c-0.4-0.2-0.7,0.2-0.7,0.4c0,0.1-0.5,0.1-0.5,0c0-0.2-0.3-0.6-0.6-0.4v-0.1c0,0,0.5-0.3,0.7,0c0,0,0.2-0.6,0.3-0.6s0.2,0.6,0.2,0.6
		C39.8,26.3,40.2,26.6,40.2,26.6z M39.2,27.3c1,0.1,1.7,0.7,1.6,1.5C40.7,29.5,39.9,30,39,30c0.4,0.4,1.5,0.2,1.5,0.2
		c-0.1,0.7-1,0.5-1.4,0.4c0,0.3,0,0.5,0.4,1.2c0.1,0.1,0.1,0.2,0.2,0.4c0-0.2,0.2-0.5,0.4-0.7c0.3-0.3,0.8-0.5,1.2-0.4
		c0,0.3-0.1,0.7-0.4,1c-0.3,0.3-0.7,0.4-1.1,0.4c0.2,0.9,0.1,1.8-0.2,2.3l-0.7-0.6c1-1.9-0.4-2.6-0.3-3.8c-1.4,0.3-1.2-0.6-1.2-0.6
		c0.3,0.1,0.9,0.3,1.5,0.1c-0.9-0.1-1.6-0.7-1.5-1.4C37.4,27.8,38.2,27.2,39.2,27.3z M39.2,38.4c0.8,0.5,1.1,1.4,0.7,2
		c-0.4,0.6-1.3,0.7-2.1,0.3c0.3,0.5,0.9,0.7,1.2,0.8c0,0-0.5,0.8-1.4-0.2c-0.4,0.6-1.1,0.8-1.7,1.2c0.2,0,0.3-0.1,0.5,0
		c0.5,0,0.9,0.2,1.2,0.5c-0.3,0.3-0.7,0.5-1.2,0.4c-0.4,0-0.8-0.2-1.1-0.4c-0.2,0.3-0.4,0.6-0.5,1.1H34c0.2-0.7,1-1.9,2-2.4
		c0.7-0.3,0.9-0.5,1-0.8c-0.4-0.1-1.3-0.5-0.9-1.1c0,0,0.7,0.7,1.3,0.7c-0.7-0.5-1-1.4-0.6-2C37.4,38,38.4,37.9,39.2,38.4z
		 M29.9,13.3c0.7,0,1.3,0.7,1.3,1.6c0.3-0.5,0.1-1.1,0-1.4c0,0,0.9,0,0.6,1.2c0.7,0,1.2,0.5,1.9,0.7c-0.1-0.1-0.2-0.2-0.3-0.4
		c-0.2-0.4-0.3-0.8-0.2-1.3c0.4,0.1,0.8,0.3,1,0.7s0.3,0.8,0.2,1.1c0.3,0,0.8,0,1.2-0.2l0.5,0.7c-0.7,0.2-2.2,0.2-3.2-0.3
		c-0.6-0.3-0.9-0.4-1.2-0.4c0.1,0.4,0.2,1.3-0.5,1.3c0,0,0.2-1-0.1-1.4c0,0.9-0.7,1.6-1.4,1.6c-0.8,0-1.4-0.8-1.3-1.7
		C28.5,14.1,29.1,13.3,29.9,13.3z M27.7,14.7c-0.2-0.3,0.1-0.7,0.1-0.7h0.1c-0.2,0.3,0.2,0.7,0.4,0.7c0.1,0,0.1,0.5,0,0.5
		c-0.2,0-0.6,0.3-0.5,0.7h-0.1c0,0-0.3-0.4,0-0.7c0,0-0.6-0.1-0.6-0.2C27,14.9,27.7,14.7,27.7,14.7z M24.4,14.7
		c0.2,0,0.6-0.3,0.4-0.7h0.1c0,0,0.3,0.4,0.1,0.7c0,0,0.7,0.1,0.7,0.2c0,0.1-0.6,0.2-0.6,0.2c0.2,0.3,0,0.7,0,0.7H25
		c0.1-0.4-0.2-0.7-0.5-0.7C24.2,15.2,24.2,14.7,24.4,14.7z M16.9,15.3c0.5,0.2,0.9,0.2,1.2,0.2c-0.1-0.4,0-0.7,0.2-1.1
		c0.2-0.4,0.6-0.6,1-0.7c0.1,0.4,0.1,0.9-0.2,1.3c-0.1,0.2-0.2,0.3-0.3,0.4c0.7-0.2,1.2-0.7,1.9-0.7c-0.4-1.3,0.6-1.2,0.6-1.2
		c0,0.3-0.2,0.9,0,1.4c0-0.9,0.6-1.6,1.3-1.6c0.8,0,1.4,0.7,1.4,1.7c0,0.9-0.6,1.7-1.3,1.7c-0.8,0-1.4-0.7-1.4-1.6
		c-0.3,0.4-0.1,1.4-0.1,1.4c-0.7,0-0.6-0.9-0.5-1.3c-0.3,0-0.5,0.1-1.2,0.4c-1,0.6-2.5,0.6-3.2,0.3L16.9,15.3z M26.3,16.3
		c2.4,1.3,7.9,2.1,10.5,0.8V36c0,2.2-2,4.1-4.4,4.1c-2.3,0-4.2,0.3-6.2,1.5c-2-1.3-3.9-1.5-6.2-1.5c-2.4,0-4.1-1.8-4.1-4.1V17.1
		C18.4,18.4,23.9,17.5,26.3,16.3z M15.1,40.6c0.5,0.1,1.3-0.7,1.3-0.7c0.4,0.6-0.5,1-0.9,1.1c0.1,0.2,0.4,0.4,1,0.8
		c1,0.5,1.8,1.7,2,2.4h-0.8c-0.1-0.5-0.3-0.8-0.5-1.1c-0.3,0.2-0.7,0.4-1.1,0.4c-0.5,0-0.9-0.2-1.2-0.4c0.3-0.3,0.7-0.5,1.2-0.5
		c0.2,0,0.4,0,0.5,0c-0.6-0.4-1.3-0.6-1.7-1.2c-0.9,1-1.4,0.2-1.4,0.2c0.3-0.1,0.9-0.3,1.3-0.8c-0.8,0.5-1.7,0.4-2.1-0.2
		c-0.4-0.6-0.1-1.5,0.7-2s1.8-0.4,2.2,0.2C16.1,39.2,15.9,40.1,15.1,40.6z M13.3,15.1c0,0,0.2-0.6,0.3-0.6s0.2,0.6,0.2,0.6
		c0.3-0.2,0.7,0.1,0.7,0.1v0.1c-0.4-0.2-0.7,0.2-0.7,0.4c0,0.1-0.5,0.1-0.5,0c0-0.2-0.3-0.6-0.6-0.4v-0.1
		C12.6,15.2,13.1,14.9,13.3,15.1z M13.5,16c1,0,1.7,0.7,1.6,1.4c-0.1,0.7-0.8,1.2-1.7,1.2c0.5,0.3,1.4,0.2,1.4,0.2
		c-0.1,0.7-1,0.5-1.4,0.4c0,0.3,0,0.5,0.4,1.2c0.5,1,0.4,2.4,0.1,3l-0.6-0.5c0.2-0.5,0.3-0.8,0.3-1.2c-0.4,0-0.8-0.1-1.1-0.3
		c-0.4-0.2-0.6-0.6-0.6-1c0.4-0.1,0.9,0,1.3,0.2c0.1,0.1,0.3,0.2,0.4,0.3c-0.2-0.7-0.6-1.2-0.5-1.9c-1.4,0.3-1.2-0.6-1.2-0.6
		c0.3,0.1,0.9,0.3,1.4,0.1c-0.9-0.1-1.5-0.8-1.5-1.4C11.7,16.4,12.5,15.9,13.5,16z M14.4,26.5v0.1c-0.4-0.2-0.7,0.2-0.6,0.4
		c0,0.1-0.5,0.2-0.5,0s-0.4-0.5-0.7-0.4v-0.1c0,0,0.4-0.3,0.7-0.1c0,0,0.1-0.6,0.2-0.6c0.1,0,0.3,0.6,0.3,0.6
		C13.9,26.2,14.4,26.5,14.4,26.5z M11.4,31c0.4,0,0.9,0.1,1.2,0.4c0.2,0.2,0.4,0.4,0.4,0.7c0-0.1,0.1-0.2,0.2-0.4
		c0.3-0.7,0.4-0.9,0.3-1.2c-0.4,0.2-1.3,0.4-1.4-0.4c0,0,1,0.2,1.5-0.2c-0.9,0-1.7-0.5-1.8-1.2c0-0.7,0.7-1.4,1.6-1.5
		c1,0,1.8,0.5,1.9,1.2c0,0.7-0.6,1.3-1.5,1.4c0.6,0.2,1.2,0,1.5-0.1c0,0,0.1,0.9-1.3,0.6c0.1,1.2-1.2,1.9-0.3,3.8l-0.6,0.5
		c-0.2-0.5-0.4-1.4-0.2-2.3c-0.4,0-0.9-0.1-1.1-0.4C11.5,31.7,11.3,31.3,11.4,31z M12.3,38.3c0,0,0.2-0.5,0.6-0.4
		c0,0-0.3-0.6-0.2-0.7c0.1-0.1,0.6,0.4,0.6,0.4c0.1-0.3,0.6-0.3,0.6-0.3v0.1c-0.4,0.1-0.5,0.5-0.4,0.7c0.1,0.1-0.4,0.3-0.4,0.3
		C13.1,38.2,12.6,38,12.3,38.3L12.3,38.3z"/>
	<path class="st0" d="M180.2,35.9c0-2.9-2.4-5.2-5.3-5.2h-6.3v16.7h6.9c2.9,0,5.3-2.3,5.3-5.2c0-1.3-0.5-2.5-1.4-3.5
		C179.9,37.9,180.2,36.9,180.2,35.9z M172.8,34.4h2.1c0.9,0,1.6,0.7,1.6,1.6s-0.7,1.6-1.6,1.6h-2.1V34.4z M175.5,43.8h-2.6v-3.2h2.1
		h0.6c0.9,0,1.6,0.7,1.6,1.6C177.1,43.1,176.4,43.8,175.5,43.8z"/>
	<path class="st0" d="M189.8,30.4c-4.6,0-8.4,3.9-8.4,8.7s3.8,8.7,8.4,8.7c4.7,0,8.4-3.9,8.4-8.7C198.3,34.3,194.5,30.4,189.8,30.4z
		 M189.8,43.3c-2.1,0-3.9-1.9-3.9-4.2s1.7-4.2,3.9-4.2c2.1,0,3.9,1.9,3.9,4.2C193.7,41.5,192,43.3,189.8,43.3z"/>
	<path class="st0" d="M208.6,41.7h2v0.9c-0.7,0.5-1.6,0.7-2.5,0.7c-2.5,0-4.5-1.9-4.5-4.2s2-4.2,4.5-4.2c1.2,0,2.3,0.4,3.1,1.2
		l0.4,0.4l3.1-3.3l-0.4-0.4c-1.7-1.5-3.9-2.4-6.2-2.4c-5,0-9,3.9-9,8.7s4,8.7,9,8.7c0.8,0,1.7-0.1,2.5-0.3l0,0h4.5V37.2h-6.5
		L208.6,41.7L208.6,41.7z"/>
	<polygon class="st0" points="248.9,30.5 233.3,30.5 233.3,35.6 238.4,35.6 238.4,47.6 243.8,47.6 243.8,35.6 248.9,35.6 	"/>
	<polygon class="st0" points="262.4,27.3 253.2,27.3 245.6,47.5 251.2,47.5 257.8,30.9 267.1,54.7 272.7,54.7 	"/>
	<path class="st0" d="M232,35c-1.4-2.7-4.2-4.6-7.4-4.6c-4.6,0-8.4,3.9-8.4,8.7s3.8,8.7,8.4,8.7c4.6,0,8.4-3.9,8.4-8.7
		C233,37.7,232.7,36.3,232,35L232,35z M224.6,43.3c-2.1,0-3.9-1.9-3.9-4.2s1.7-4.2,3.9-4.2c2.1,0,3.9,1.9,3.9,4.2
		C228.5,41.5,226.7,43.3,224.6,43.3z"/>
	<polygon class="st0" points="248.5,23.5 259.8,19.4 268.1,26.3 264.8,17.5 269.8,15.4 263.1,13 258.8,1.5 254.3,10 245.2,8.1 
		251.6,15.1 	"/>
	<polygon class="st0" points="242.1,20.4 244.8,18.7 246.8,20.3 245.9,17.9 248,16.6 245.5,16.1 244.8,13.6 243.8,15.7 240.1,14.9 
		243,17.9 	"/>
	<polygon class="st0" points="264.3,7 267,5.2 269.2,6.9 268.3,4.4 270.4,3 267.9,2.5 267.1,-0.1 265.9,2.1 262.2,1.3 265.2,4.4 	
		"/>
	<rect x="155" y="10.6" class="st0" width="1" height="53.1"/>
	<rect x="66.1" y="10.6" class="st0" width="1" height="53.1"/>
	<path class="st0" d="M94.2,41.4c-0.4-0.3-0.7-0.6-0.9-0.8c-0.3-0.2-0.6-0.4-1.1-0.6c-1.1-0.6-1.7-1.3-1.7-2.1
		c0-0.5,0.1-0.9,0.5-1.2s0.7-0.5,1.3-0.5c0.3,0,0.7,0.1,1.1,0.2s0.7,0.3,1,0.5l0.8-2c-0.9-0.6-1.8-0.9-2.9-0.9
		c-1.2,0-2.2,0.4-2.9,1.1c-0.7,0.7-1.1,1.6-1.1,2.7c0,0.5,0.1,1,0.3,1.4c0.2,0.4,0.4,0.8,0.7,1.1c0.3,0.3,0.6,0.6,0.9,0.8
		s0.7,0.5,1,0.7s0.6,0.4,0.9,0.6s0.5,0.4,0.7,0.7s0.3,0.6,0.3,0.9c0,0.5-0.2,0.9-0.5,1.2s-0.7,0.5-1.2,0.5c-0.9,0-1.6-0.4-2.3-1.1
		l-1.1,2c1,0.9,2.1,1.3,3.5,1.3c1.2,0,2.2-0.4,2.9-1.1c0.7-0.7,1-1.7,1-2.8c0-0.5-0.1-1-0.3-1.5C94.8,42.2,94.6,41.8,94.2,41.4z"/>
	<path class="st0" d="M99.3,34.4l-3.5,13.3h2.3l0.8-3.4h3.3l0.8,3.4h2.3l-3.5-13.3H99.3z M99.3,42.3l0.9-3.6
		c0.1-0.6,0.3-1.3,0.4-2.1h0.1l0.4,2.1l0.8,3.6H99.3z"/>
	<polygon class="st0" points="108.9,34.4 106.6,34.4 106.6,47.7 113.2,47.7 113.2,45.7 108.9,45.7 	"/>
	<path class="st0" d="M120.3,43.4c0,1.6-0.7,2.4-2,2.4s-2-0.8-2-2.4v-9H114v9c0,1.4,0.4,2.5,1.1,3.3c0.8,0.8,1.8,1.2,3.1,1.2
		c1.3,0,2.3-0.4,3.1-1.2c0.8-0.8,1.2-1.9,1.2-3.3v-9h-2.3v9H120.3z"/>
	<path class="st0" d="M128.6,34.4h-3.7v13.3h3.7c1.7,0,3-0.6,3.9-1.8c1-1.2,1.4-2.8,1.4-4.9c0-2.1-0.5-3.7-1.4-4.9
		C131.6,35,130.2,34.4,128.6,34.4z M130.8,44.4c-0.5,0.8-1.3,1.2-2.3,1.2h-1.3v-9.2h1.3c1,0,1.7,0.4,2.3,1.2s0.8,1.9,0.8,3.4
		C131.6,42.5,131.3,43.6,130.8,44.4z"/>
	<path class="st0" d="M84.6,25.6c-0.2-0.2-0.4-0.3-0.5-0.4c-0.2-0.1-0.4-0.2-0.6-0.4c-0.6-0.4-0.9-0.7-0.9-1.2
		c0-0.3,0.1-0.5,0.3-0.7s0.4-0.3,0.7-0.3c0.2,0,0.4,0,0.6,0.1s0.4,0.2,0.5,0.3l0.5-1.1c-0.5-0.3-1-0.5-1.6-0.5
		c-0.7,0-1.2,0.2-1.6,0.6s-0.6,0.9-0.6,1.5c0,0.3,0,0.6,0.1,0.8c0.1,0.2,0.2,0.4,0.4,0.6c0.2,0.2,0.3,0.3,0.5,0.4s0.4,0.3,0.6,0.4
		s0.4,0.2,0.5,0.3c0.2,0.1,0.3,0.2,0.4,0.4c0.1,0.2,0.1,0.3,0.1,0.5c0,0.3-0.1,0.5-0.2,0.7s-0.4,0.3-0.7,0.3c-0.5,0-0.9-0.2-1.3-0.6
		l-0.6,1.1c0.5,0.5,1.2,0.7,1.9,0.7c0.7,0,1.2-0.2,1.6-0.6s0.6-0.9,0.6-1.5c0-0.3,0-0.6-0.1-0.8C84.9,26,84.8,25.8,84.6,25.6z"/>
	<polygon class="st0" points="89.8,27.9 87.4,27.9 87.4,25.9 89.2,25.9 89.2,24.8 87.4,24.8 87.4,22.8 89.6,22.8 89.6,21.7 
		86.1,21.7 86.1,29.1 89.8,29.1 	"/>
	<path class="st0" d="M93.6,28c-0.6,0-1.1-0.3-1.4-0.8c-0.4-0.5-0.5-1.2-0.5-1.9c0-0.7,0.2-1.3,0.5-1.8c0.4-0.5,0.8-0.7,1.5-0.7
		c0.2,0,0.5,0,0.7,0.1s0.4,0.2,0.5,0.4l0.5-1.1c-0.5-0.4-1.1-0.6-1.8-0.6c-1,0-1.8,0.4-2.4,1.1s-0.9,1.6-0.9,2.7s0.3,2,0.8,2.8
		c0.6,0.7,1.3,1.1,2.3,1.1c0.8,0,1.5-0.2,2-0.7l-0.5-1.1C94.5,27.8,94,28,93.6,28z"/>
	<path class="st0" d="M97.5,26.3h0.8l1.1,2.8h1.4l-1.2-2.7c-0.1-0.2-0.1-0.3-0.2-0.4l0,0c0.3-0.2,0.6-0.5,0.8-0.8
		c0.2-0.4,0.3-0.8,0.3-1.2c0-0.5-0.1-0.9-0.3-1.2c-0.2-0.3-0.5-0.6-0.8-0.8c-0.3-0.2-0.6-0.2-1-0.2h-2.1v7.4h1.3v-2.9H97.5z
		 M97.5,22.8h0.7c0.2,0,0.4,0.1,0.6,0.2c0.3,0.2,0.4,0.5,0.4,1c0,0.4-0.1,0.7-0.3,0.9c-0.2,0.2-0.4,0.3-0.7,0.3h-0.7V22.8z"/>
	<polygon class="st0" points="105.3,27.9 102.9,27.9 102.9,25.9 104.7,25.9 104.7,24.8 102.9,24.8 102.9,22.8 105.2,22.8 
		105.2,21.7 101.7,21.7 101.7,29.1 105.3,29.1 	"/>
	<polygon class="st0" points="107.5,29.1 108.8,29.1 108.8,22.8 110.5,22.8 110.5,21.7 105.7,21.7 105.7,22.8 107.5,22.8 	"/>
	<path class="st0" d="M115.4,29.1l-1.9-7.4h-1.4l-1.9,7.4h1.3l0.4-1.9h1.8l0.5,1.9H115.4z M112.1,26.1l0.5-2
		c0.1-0.3,0.1-0.7,0.2-1.1l0,0l0.2,1.1l0.5,2H112.1z"/>
	<path class="st0" d="M117.4,26.3h0.8l1.1,2.8h1.4l-1.2-2.7c-0.1-0.2-0.1-0.3-0.2-0.4l0,0c0.3-0.2,0.6-0.5,0.8-0.8
		c0.2-0.4,0.3-0.8,0.3-1.2c0-0.5-0.1-0.9-0.3-1.2c-0.2-0.3-0.5-0.6-0.8-0.8c-0.3-0.2-0.6-0.2-1-0.2h-2.1v7.4h1.3v-2.9H117.4z
		 M117.4,22.8h0.7c0.2,0,0.4,0.1,0.6,0.2c0.3,0.2,0.4,0.5,0.4,1c0,0.4-0.1,0.7-0.3,0.9c-0.2,0.2-0.4,0.3-0.7,0.3h-0.7V22.8z"/>
	<polygon class="st0" points="123.5,19.8 122.3,19.8 121.6,21.2 122.6,21.2 	"/>
	<rect x="121.5" y="21.7" class="st0" width="1.3" height="7.4"/>
	<path class="st0" d="M127,27.2l0.5,1.9h1.3l-1.9-7.4h-1.4l-1.9,7.4h1.3l0.4-1.9H127z M125.9,24.1c0.1-0.3,0.1-0.7,0.2-1.1l0,0
		l0.2,1.1l0.5,2h-1.4L125.9,24.1z"/>
	<path class="st0" d="M133.4,21.7h-2.1v7.4h2.1c0.9,0,1.6-0.3,2.2-1c0.5-0.7,0.8-1.6,0.8-2.7c0-1.2-0.3-2.1-0.8-2.7
		C135,22,134.3,21.7,133.4,21.7z M134.6,27.3c-0.3,0.4-0.7,0.7-1.3,0.7h-0.7v-5.1h0.7c0.5,0,1,0.2,1.3,0.7c0.3,0.4,0.5,1.1,0.5,1.9
		C135,26.2,134.9,26.8,134.6,27.3z"/>
	<polygon class="st0" points="138.6,25.9 140.5,25.9 140.5,24.8 138.6,24.8 138.6,22.8 140.9,22.8 140.9,21.7 137.4,21.7 
		137.4,29.1 141,29.1 141,27.9 138.6,27.9 	"/>
</g>
</svg>
