<?xml version="1.0" encoding="utf-8"?>
<!-- Generator: Adobe Illustrator 23.0.0, SVG Export Plug-In . SVG Version: 6.00 Build 0)  -->
<svg version="1.1" id="Capa_1" xmlns="http://www.w3.org/2000/svg" xmlns:xlink="http://www.w3.org/1999/xlink" x="0px" y="0px"
	 viewBox="0 0 227 77.1" style="enable-background:new 0 0 227 77.1;" xml:space="preserve">
<style type="text/css">
	.st0{fill:#FFFFFF;}
</style>
<g>
	<path class="st0" d="M0,54.2L0,54.2c0-3.9,2.9-7.1,7-7.1s7,3.2,7,7l0,0c0,3.9-2.9,7-7,7C2.9,61.2,0,58,0,54.2 M11.6,54.2L11.6,54.2
		c0-2.7-1.9-5-4.6-5s-4.5,2.2-4.5,4.9l0,0c0,2.7,1.9,4.9,4.6,4.9C9.7,59,11.6,56.8,11.6,54.2"/>
	<path class="st0" d="M16.6,47.8c0-0.7,0.5-1.2,1.2-1.2s1.2,0.5,1.2,1.2v4.6c0.7-1.1,1.8-2,3.5-2c2.4,0,4.7,1.9,4.7,5.4l0,0
		c0,3.5-2.3,5.4-4.7,5.4c-1.7,0-2.7-0.9-3.5-1.8v0.5c0,0.7-0.5,1.2-1.2,1.2c-0.6,0-1.2-0.5-1.2-1.2C16.6,59.7,16.6,47.8,16.6,47.8z
		 M24.7,55.8L24.7,55.8c0-2.1-1.3-3.4-2.9-3.4s-3,1.3-3,3.3l0,0c0,2,1.4,3.3,3,3.3C23.4,59.2,24.7,57.9,24.7,55.8"/>
	<path class="st0" d="M29.1,59.9c-0.2-0.1-0.4-0.4-0.4-0.8c0-0.5,0.4-1,0.9-1c0.2,0,0.4,0.1,0.5,0.1c1,0.7,2,1,2.9,1
		c1,0,1.6-0.4,1.6-1.1l0,0c0-0.8-1.1-1.1-2.3-1.5c-1.5-0.4-3.2-1.1-3.2-3.1l0,0c0-2,1.6-3.2,3.6-3.2c1.1,0,2.2,0.3,3.2,0.8
		c0.3,0.2,0.6,0.5,0.6,0.9c0,0.6-0.4,1-1,1c-0.2,0-0.3,0-0.5-0.1c-0.8-0.4-1.7-0.7-2.4-0.7c-0.9,0-1.4,0.4-1.4,1l0,0
		c0,0.8,1.1,1.1,2.3,1.5c1.5,0.5,3.1,1.2,3.1,3l0,0c0,2.2-1.6,3.3-3.8,3.3C31.7,61.1,30.3,60.7,29.1,59.9"/>
	<path class="st0" d="M43.7,61.2c-2.9,0-5.2-2.2-5.2-5.4l0,0c0-3,2.1-5.4,4.9-5.4c3.2,0,4.8,2.7,4.8,5.1c0,0.7-0.5,1.1-1.1,1.1h-6.3
		c0.2,1.7,1.4,2.6,2.9,2.6c1,0,1.7-0.4,2.4-0.9c0.2-0.1,0.3-0.2,0.6-0.2c0.5,0,0.9,0.4,0.9,1c0,0.3-0.1,0.6-0.3,0.7
		C46.4,60.6,45.3,61.2,43.7,61.2 M46,55.1c-0.2-1.5-1-2.7-2.6-2.7c-1.4,0-2.4,1.1-2.6,2.7H46z"/>
	<path class="st0" d="M50.7,51.7c0-0.7,0.5-1.2,1.2-1.2s1.2,0.5,1.2,1.2v1.1c0.5-1.3,1.5-2.3,2.5-2.3c0.7,0,1.2,0.5,1.2,1.2
		c0,0.6-0.4,1-0.9,1.1c-1.6,0.3-2.8,1.6-2.8,4.1v3.1c0,0.7-0.5,1.2-1.2,1.2c-0.6,0-1.2-0.5-1.2-1.2V51.7z"/>
	<path class="st0" d="M62.8,61.1L62.8,61.1c-0.7,0-1.2-0.4-1.4-1L58,52.2c-0.1-0.2-0.1-0.4-0.1-0.6c0-0.6,0.5-1.1,1.2-1.1
		c0.6,0,1,0.4,1.2,0.9l2.6,6.8l2.6-6.8c0.2-0.4,0.5-0.8,1.1-0.8s1.1,0.5,1.1,1.1c0,0.2-0.1,0.5-0.1,0.6l-3.4,7.9
		C63.8,60.7,63.4,61.1,62.8,61.1"/>
	<path class="st0" d="M68.8,58L68.8,58c0-2.3,1.7-3.4,4.2-3.4c1.1,0,1.9,0.2,2.7,0.4v-0.3c0-1.5-0.9-2.3-2.5-2.3
		c-0.9,0-1.6,0.2-2.2,0.4c-0.1,0-0.2,0.1-0.4,0.1c-0.5,0-1-0.4-1-1c0-0.4,0.3-0.8,0.6-0.9c1-0.4,1.9-0.6,3.3-0.6
		c1.5,0,2.6,0.4,3.4,1.2c0.7,0.8,1.1,1.9,1.1,3.2v5.1c0,0.7-0.5,1.1-1.1,1.1c-0.7,0-1.1-0.5-1.1-1v-0.4c-0.7,0.8-1.7,1.5-3.3,1.5
		C70.5,61.1,68.8,60,68.8,58 M75.8,57.3v-0.7c-0.6-0.2-1.4-0.4-2.3-0.4c-1.5,0-2.4,0.7-2.4,1.7l0,0c0,1,0.9,1.6,2,1.6
		C74.6,59.4,75.8,58.6,75.8,57.3"/>
	<path class="st0" d="M81.2,58.1v-5.4h-0.4c-0.6,0-1-0.5-1-1c0-0.6,0.4-1,1-1h0.4v-1.8c0-0.7,0.5-1.2,1.2-1.2c0.6,0,1.2,0.5,1.2,1.2
		v1.8h1.8c0.6,0,1,0.5,1,1c0,0.6-0.5,1-1,1h-1.8v5.1c0,0.9,0.5,1.3,1.2,1.3c0.3,0,0.5-0.1,0.6-0.1c0.5,0,1,0.4,1,1
		c0,0.4-0.3,0.8-0.6,0.9c-0.5,0.2-1,0.3-1.6,0.3C82.4,61.1,81.2,60.3,81.2,58.1"/>
	<path class="st0" d="M87.7,55.9L87.7,55.9c0-3,2.3-5.4,5.4-5.4s5.4,2.4,5.4,5.4l0,0c0,3-2.3,5.4-5.4,5.4
		C90,61.2,87.7,58.8,87.7,55.9 M96.2,55.9L96.2,55.9c0-1.9-1.3-3.4-3.1-3.4c-1.9,0-3,1.5-3,3.3l0,0c0,1.8,1.3,3.3,3.1,3.3
		C95,59.2,96.2,57.7,96.2,55.9"/>
	<path class="st0" d="M100.9,51.7c0-0.7,0.5-1.2,1.2-1.2s1.2,0.5,1.2,1.2v1.1c0.5-1.3,1.5-2.3,2.5-2.3c0.7,0,1.2,0.5,1.2,1.2
		c0,0.6-0.4,1-0.9,1.1c-1.6,0.3-2.8,1.6-2.8,4.1v3.1c0,0.7-0.5,1.2-1.2,1.2c-0.6,0-1.2-0.5-1.2-1.2
		C100.9,59.9,100.9,51.7,100.9,51.7z"/>
	<path class="st0" d="M108.7,47.9c0-0.7,0.6-1.2,1.3-1.2c0.7,0,1.3,0.5,1.3,1.2V48c0,0.7-0.6,1.2-1.3,1.2
		C109.3,49.1,108.7,48.6,108.7,47.9L108.7,47.9z M108.9,51.7c0-0.7,0.5-1.2,1.2-1.2s1.2,0.5,1.2,1.2v8.1c0,0.7-0.5,1.2-1.2,1.2
		c-0.6,0-1.2-0.5-1.2-1.2V51.7z"/>
	<path class="st0" d="M113.7,55.9L113.7,55.9c0-3,2.3-5.4,5.4-5.4s5.4,2.4,5.4,5.4l0,0c0,3-2.3,5.4-5.4,5.4
		C116,61.2,113.7,58.8,113.7,55.9 M122.2,55.9L122.2,55.9c0-1.9-1.3-3.4-3.1-3.4c-1.9,0-3,1.5-3,3.3l0,0c0,1.8,1.3,3.3,3.1,3.3
		C121,59.2,122.2,57.7,122.2,55.9"/>
	<path class="st0" d="M140.5,59.8c0,0.7-0.5,1.2-1.2,1.2s-1.2-0.5-1.2-1.2v-0.6c-0.7,1.1-1.8,2-3.5,2c-2.4,0-4.7-2-4.7-5.4l0,0
		c0-3.5,2.3-5.4,4.7-5.4c1.7,0,2.7,0.8,3.5,1.8v-4.5c0-0.7,0.5-1.2,1.2-1.2s1.2,0.5,1.2,1.2V59.8z M132.4,55.8L132.4,55.8
		c0,2.1,1.3,3.4,2.9,3.4c1.6,0,2.9-1.3,2.9-3.3l0,0c0-2-1.4-3.3-2.9-3.3C133.7,52.5,132.4,53.7,132.4,55.8"/>
	<path class="st0" d="M148.1,61.2c-2.9,0-5.2-2.2-5.2-5.4l0,0c0-3,2.1-5.4,4.9-5.4c3.2,0,4.8,2.7,4.8,5.1c0,0.7-0.5,1.1-1.1,1.1
		h-6.3c0.2,1.7,1.4,2.6,2.9,2.6c1,0,1.7-0.4,2.4-0.9c0.2-0.1,0.3-0.2,0.6-0.2c0.5,0,0.9,0.4,0.9,1c0,0.3-0.1,0.6-0.3,0.7
		C150.8,60.6,149.7,61.2,148.1,61.2 M150.4,55.1c-0.2-1.5-1-2.7-2.6-2.7c-1.4,0-2.4,1.1-2.6,2.7H150.4z"/>
	<path class="st0" d="M159,48.5c0-0.7,0.5-1.2,1.2-1.2h4.8c1.5,0,2.7,0.4,3.5,1.2c0.6,0.6,0.9,1.4,0.9,2.3l0,0
		c0,1.7-0.9,2.5-1.9,3.1c1.6,0.6,2.7,1.5,2.7,3.4l0,0c0,2.5-2,3.8-5,3.8h-5c-0.7,0-1.2-0.5-1.2-1.2V48.5z M164.6,53
		c1.5,0,2.5-0.6,2.5-1.9l0,0c0-1.1-0.8-1.8-2.4-1.8h-3.4V53H164.6z M165.3,58.9c1.6,0,2.6-0.6,2.6-1.9l0,0c0-1.2-0.9-1.9-2.8-1.9
		h-3.7v3.8C161.4,58.9,165.3,58.9,165.3,58.9z"/>
	<path class="st0" d="M172,55.9L172,55.9c0-3,2.3-5.4,5.4-5.4c3.1,0,5.4,2.4,5.4,5.4l0,0c0,3-2.3,5.4-5.4,5.4
		C174.3,61.2,172,58.8,172,55.9 M180.5,55.9L180.5,55.9c0-1.9-1.3-3.4-3.1-3.4c-1.9,0-3,1.5-3,3.3l0,0c0,1.8,1.3,3.3,3.1,3.3
		C179.3,59.2,180.5,57.7,180.5,55.9"/>
	<path class="st0" d="M185.8,63.2c-0.4-0.2-0.7-0.5-0.7-0.9c0-0.5,0.4-1,1-1c0.2,0,0.3,0,0.4,0.1c0.9,0.5,1.9,0.8,3.1,0.8
		c2.1,0,3.2-1.1,3.2-3.2v-0.8c-0.8,1.1-1.9,1.9-3.6,1.9c-2.4,0-4.6-1.8-4.6-4.9l0,0c0-3.1,2.2-4.9,4.6-4.9c1.7,0,2.8,0.8,3.5,1.8
		v-0.5c0-0.7,0.5-1.2,1.1-1.2c0.7,0,1.2,0.5,1.2,1.2v7.1c0,1.8-0.4,3.1-1.3,3.9c-0.9,0.9-2.3,1.4-4.2,1.4
		C188.3,64.1,187,63.8,185.8,63.2 M192.9,55.3L192.9,55.3c0-1.7-1.4-2.9-3-2.9s-2.9,1.1-2.9,2.9l0,0c0,1.7,1.3,2.9,2.9,2.9
		C191.5,58.2,192.9,57,192.9,55.3"/>
	<path class="st0" d="M197.5,55.9L197.5,55.9c0-3,2.3-5.4,5.4-5.4s5.4,2.4,5.4,5.4l0,0c0,3-2.3,5.4-5.4,5.4
		C199.8,61.2,197.5,58.8,197.5,55.9 M206,55.9L206,55.9c0-1.9-1.3-3.4-3.1-3.4c-1.9,0-3,1.5-3,3.3l0,0c0,1.8,1.3,3.3,3.1,3.3
		C204.8,59.2,206,57.7,206,55.9"/>
	<path class="st0" d="M211.1,58.1v-5.4h-0.4c-0.6,0-1-0.5-1-1c0-0.6,0.4-1,1-1h0.4v-1.8c0-0.7,0.5-1.2,1.2-1.2
		c0.6,0,1.2,0.5,1.2,1.2v1.8h1.8c0.6,0,1,0.5,1,1c0,0.6-0.5,1-1,1h-1.8v5.1c0,0.9,0.5,1.3,1.2,1.3c0.3,0,0.5-0.1,0.6-0.1
		c0.5,0,1,0.4,1,1c0,0.4-0.3,0.8-0.6,0.9c-0.5,0.2-1,0.3-1.6,0.3C212.3,61.1,211.1,60.3,211.1,58.1"/>
	<path class="st0" d="M217.9,58L217.9,58c0-2.3,1.7-3.4,4.2-3.4c1.1,0,1.9,0.2,2.7,0.4v-0.3c0-1.5-0.9-2.3-2.5-2.3
		c-0.9,0-1.6,0.2-2.2,0.4c-0.1,0-0.2,0.1-0.4,0.1c-0.5,0-1-0.4-1-1c0-0.4,0.3-0.8,0.6-0.9c1-0.4,1.9-0.6,3.3-0.6
		c1.5,0,2.6,0.4,3.4,1.2c0.7,0.7,1.1,1.9,1.1,3.2v5.1c0,0.6-0.5,1.1-1.1,1.1c-0.7,0-1.1-0.5-1.1-1v-0.4c-0.7,0.8-1.7,1.5-3.3,1.5
		C219.5,61.1,217.9,60,217.9,58 M224.8,57.3v-0.7c-0.6-0.2-1.4-0.4-2.3-0.4c-1.5,0-2.4,0.7-2.4,1.7l0,0c0,1,0.9,1.6,2,1.6
		C223.6,59.4,224.8,58.6,224.8,57.3 M222.1,49c0-0.1,0.1-0.3,0.2-0.4l1.1-1.7c0.2-0.4,0.5-0.6,0.9-0.6c0.6,0,1.4,0.4,1.4,0.8
		c0,0.2-0.1,0.4-0.3,0.6l-1.3,1.3c-0.5,0.4-0.8,0.5-1.4,0.5C222.3,49.4,222.1,49.2,222.1,49"/>
</g>
<g>
	<path class="st0" d="M1.4,38.4C0.6,37.8,0,36.8,0,35.6c0-1.9,1.6-3.4,3.5-3.4c1,0,1.7,0.3,2.1,0.7C8.2,34.8,11,36,14.3,36
		c3.1,0,4.9-1.2,4.9-3.2v-0.1c0-1.9-1.2-2.9-6.9-4.3C5.6,26.7,1.1,24.8,1.1,18v-0.1c0-6.1,5-10.1,11.9-10.1c4.1,0,7.7,1.1,10.8,3
		c0.8,0.5,1.7,1.5,1.7,3c0,1.9-1.6,3.4-3.5,3.4c-0.7,0-1.3-0.2-1.9-0.5c-2.5-1.5-4.8-2.3-7.2-2.3c-2.9,0-4.4,1.3-4.4,3v0.1
		c0,2.2,1.5,3,7.4,4.5c6.9,1.8,10.8,4.3,10.8,10.1v0.1c0,6.6-5.2,10.4-12.5,10.4C9.7,42.4,5.2,41.1,1.4,38.4"/>
	<path class="st0" d="M29.7,34.6L29.7,34.6c0-5.7,4.3-8.3,10.5-8.3c2.6,0,4.5,0.4,6.4,1.1V27c0-3.1-1.9-4.8-5.6-4.8
		c-2,0-3.7,0.3-5.1,0.7c-0.4,0.1-0.7,0.2-1.1,0.2c-1.7,0-3.1-1.3-3.1-3c0-1.3,0.8-2.4,2-2.9c2.3-0.9,4.9-1.4,8.3-1.4
		c4,0,7,1.1,8.8,2.9c2,1.9,2.8,4.8,2.8,8.2v11.7c0,2-1.6,3.5-3.6,3.5c-2.1,0-3.6-1.5-3.6-3.1l0,0c-1.8,2-4.3,3.3-7.9,3.3
		C33.8,42.4,29.7,39.6,29.7,34.6 M46.7,32.9v-1.3c-1.3-0.6-2.9-1-4.7-1c-3.2,0-5.1,1.3-5.1,3.6v0.1c0,2,1.7,3.2,4,3.2
		C44.4,37.4,46.7,35.5,46.7,32.9"/>
	<path class="st0" d="M59.3,10.2c0-2,1.7-3.7,3.7-3.7s3.7,1.7,3.7,3.7v28.3c0,2-1.7,3.7-3.7,3.7s-3.7-1.7-3.7-3.7
		C59.3,38.5,59.3,10.2,59.3,10.2z"/>
	<path class="st0" d="M96.2,38.5c0,2-1.7,3.7-3.7,3.7s-3.7-1.7-3.7-3.7v-0.3c-1.7,2.2-3.9,4.2-7.7,4.2c-5.6,0-8.9-3.7-8.9-9.6V19.5
		c0-2,1.7-3.7,3.7-3.7s3.7,1.7,3.7,3.7v11c0,3.5,1.7,5.3,4.5,5.3s4.6-1.8,4.6-5.3v-11c0-2,1.7-3.7,3.7-3.7s3.7,1.7,3.7,3.7v19H96.2z
		"/>
	<path class="st0" d="M167.9,16.2h6.2v25.7H168l-0.3-3.8c-1.5,3-5.5,4.5-8.4,4.6c-7.7,0.1-13.4-4.7-13.4-13.7
		c0-8.8,6-13.5,13.6-13.5c3.5,0,6.8,1.6,8.3,4.2L167.9,16.2z M152.3,28.9c0,4.9,3.4,7.8,7.7,7.8c10.1,0,10.1-15.6,0-15.6
		C155.7,21.2,152.3,24.1,152.3,28.9"/>
	<path class="st0" d="M189,8.9v7.3h7.2v5.4H189v11.1c0,2.5,1.4,3.7,3.4,3.7c1,0,2.2-0.3,3.1-0.8l1.8,5.4c-1.8,0.7-3.4,1.1-5.3,1.1
		c-5.6,0.2-9.3-3-9.3-9.4V21.7h-4.9v-5.4h4.9V9.6L189,8.9z"/>
	<path class="st0" d="M220.8,16.2h6.2v25.7h-6.1l-0.3-3.8c-1.5,3-5.5,4.5-8.4,4.6c-7.7,0.1-13.4-4.7-13.4-13.7
		c0-8.8,6-13.5,13.6-13.5c3.5,0,6.8,1.6,8.3,4.2L220.8,16.2z M205.2,28.9c0,4.9,3.4,7.8,7.7,7.8c10.1,0,10.1-15.6,0-15.6
		C208.6,21.2,205.2,24.1,205.2,28.9"/>
	<path class="st0" d="M120,0h1c12,0,22.1,9.7,21.9,21.6c-0.2,11.5-9.7,20.8-21.5,20.8h-19.6V28c0-0.2,0.1-0.3,0.3-0.3h4.3
		c0.2,0,0.3,0.1,0.3,0.3v8.3h14.1c8.3,0,15.4-6.3,15.7-14.6c0.3-8.6-6.7-15.7-15.3-15.7H120c-0.2,0-0.3-0.2-0.3-0.3V0.4
		C119.6,0.2,119.8,0,120,0"/>
	<rect x="108.5" y="24.4" class="st0" width="4.5" height="10"/>
	<rect x="114.5" y="20.9" class="st0" width="4.5" height="13.6"/>
	<rect x="120.6" y="17.4" class="st0" width="4.5" height="17"/>
	<polygon class="st0" points="104.6,25.6 103.8,25.1 108.1,19.2 110.7,21.3 114.9,15.7 117,17.5 122.9,10.5 123.6,11.2 117.1,18.9 
		115,17 110.8,22.7 108.2,20.6 	"/>
	<polygon class="st0" points="121.6,10.1 124.8,9 124.2,12.3 	"/>
</g>
<g>
	<path class="st0" d="M0,67.4c0-0.4,0.3-0.8,0.7-0.8h2.4c2.6,0,4.4,1.8,4.4,4.3l0,0c0,2.4-1.8,4.3-4.4,4.3H0.7
		c-0.4,0-0.7-0.3-0.7-0.8V67.4z M3.1,73.7c1.8,0,2.9-1.2,2.9-2.9l0,0C6,69.2,4.9,68,3.1,68H1.5v5.7H3.1z"/>
	<path class="st0" d="M8.7,73.2L8.7,73.2c0-1.4,1.1-2.1,2.6-2.1c0.7,0,1.2,0.1,1.7,0.3v-0.2c0-0.9-0.6-1.4-1.6-1.4
		c-0.5,0-1,0.1-1.4,0.3c-0.1,0-0.2,0-0.2,0c-0.3,0-0.6-0.3-0.6-0.6s0.2-0.5,0.4-0.6c0.6-0.2,1.2-0.4,2-0.4c0.9,0,1.6,0.3,2.1,0.7
		c0.5,0.5,0.7,1.1,0.7,2v3.2c0,0.4-0.3,0.7-0.7,0.7S13,74.8,13,74.5v-0.2c-0.4,0.5-1.1,0.9-2.1,0.9C9.8,75.2,8.7,74.5,8.7,73.2
		 M13.1,72.8v-0.4c-0.4-0.1-0.9-0.3-1.4-0.3c-0.9,0-1.5,0.4-1.5,1.1l0,0c0,0.6,0.5,1,1.2,1C12.3,74.1,13.1,73.6,13.1,72.8"/>
	<path class="st0" d="M16.4,73.3V70h-0.2c-0.3,0-0.6-0.3-0.6-0.6c0-0.4,0.3-0.6,0.6-0.6h0.2v-1.1c0-0.4,0.3-0.7,0.7-0.7
		c0.4,0,0.7,0.3,0.7,0.7v1.1H19c0.3,0,0.6,0.3,0.6,0.6c0,0.4-0.3,0.6-0.6,0.6h-1.1v3.2c0,0.6,0.3,0.8,0.8,0.8c0.2,0,0.3,0,0.4,0
		c0.3,0,0.6,0.3,0.6,0.6c0,0.3-0.2,0.5-0.4,0.6c-0.3,0.1-0.6,0.2-1,0.2C17.2,75.2,16.4,74.7,16.4,73.3"/>
	<path class="st0" d="M20.5,71.9L20.5,71.9c0-1.9,1.4-3.4,3.4-3.4c1.9,0,3.4,1.5,3.4,3.3l0,0c0,1.8-1.4,3.4-3.4,3.4
		C21.9,75.2,20.5,73.7,20.5,71.9 M25.8,71.9L25.8,71.9c0-1.2-0.8-2.1-1.9-2.1c-1.2,0-1.9,0.9-1.9,2.1l0,0c0,1.1,0.8,2.1,1.9,2.1
		C25,73.9,25.8,73,25.8,71.9"/>
	<path class="st0" d="M28.4,74.4c-0.2-0.1-0.3-0.3-0.3-0.5c0-0.3,0.3-0.6,0.6-0.6c0.1,0,0.2,0,0.3,0.1c0.6,0.4,1.2,0.6,1.8,0.6
		c0.6,0,1-0.3,1-0.7l0,0c0-0.5-0.7-0.7-1.4-0.9c-0.9-0.3-2-0.7-2-1.9l0,0c0-1.2,1-2,2.2-2c0.7,0,1.4,0.2,2,0.5
		c0.2,0.1,0.3,0.3,0.3,0.6c0,0.3-0.3,0.6-0.6,0.6c-0.1,0-0.2,0-0.3-0.1c-0.5-0.3-1-0.4-1.5-0.4c-0.6,0-0.9,0.3-0.9,0.6l0,0
		c0,0.5,0.7,0.7,1.4,0.9c0.9,0.3,2,0.7,2,1.9l0,0c0,1.4-1,2-2.3,2C30,75.2,29.2,74.9,28.4,74.4"/>
	<path class="st0" d="M37.8,73.2L37.8,73.2c0-1.4,1.1-2.1,2.6-2.1c0.7,0,1.2,0.1,1.7,0.3v-0.2c0-0.9-0.5-1.4-1.6-1.4
		c-0.5,0-1,0.1-1.4,0.3c-0.1,0-0.2,0-0.2,0c-0.3,0-0.6-0.3-0.6-0.6s0.2-0.5,0.4-0.6c0.6-0.2,1.2-0.4,2-0.4c0.9,0,1.6,0.3,2.1,0.7
		c0.5,0.5,0.7,1.1,0.7,2v3.2c0,0.4-0.3,0.7-0.7,0.7s-0.7-0.3-0.7-0.6v-0.2c-0.4,0.5-1.1,0.9-2.1,0.9C38.9,75.2,37.8,74.5,37.8,73.2
		 M42.1,72.8v-0.4c-0.4-0.1-0.9-0.3-1.4-0.3c-0.9,0-1.5,0.4-1.5,1.1l0,0c0,0.6,0.5,1,1.2,1C41.4,74.1,42.1,73.6,42.1,72.8"/>
	<path class="st0" d="M45.2,66.9c0-0.4,0.3-0.7,0.7-0.7s0.7,0.3,0.7,0.7v2.9c0.5-0.7,1.1-1.2,2.1-1.2c1.5,0,2.9,1.2,2.9,3.3l0,0
		c0,2.1-1.4,3.3-2.9,3.3c-1,0-1.7-0.5-2.1-1.1v0.3c0,0.4-0.3,0.7-0.7,0.7s-0.7-0.3-0.7-0.7V66.9z M50.3,71.9L50.3,71.9
		c0-1.3-0.8-2.1-1.8-2.1s-1.8,0.8-1.8,2.1l0,0c0,1.2,0.9,2.1,1.8,2.1C49.5,73.9,50.3,73.1,50.3,71.9"/>
	<path class="st0" d="M53.2,67c0-0.4,0.4-0.7,0.8-0.7c0.5,0,0.8,0.3,0.8,0.7v0.1c0,0.4-0.4,0.7-0.8,0.7C53.6,67.8,53.2,67.5,53.2,67
		L53.2,67z M53.3,69.4c0-0.4,0.3-0.7,0.7-0.7s0.7,0.3,0.7,0.7v5.1c0,0.4-0.3,0.7-0.7,0.7s-0.7-0.3-0.7-0.7V69.4z"/>
	<path class="st0" d="M59.5,75.2c-1.8,0-3.2-1.4-3.2-3.3l0,0c0-1.8,1.3-3.4,3.1-3.4c2,0,3,1.7,3,3.2c0,0.4-0.3,0.7-0.7,0.7h-3.9
		c0.2,1.1,0.9,1.6,1.8,1.6c0.6,0,1.1-0.2,1.5-0.6c0.1-0.1,0.2-0.1,0.4-0.1c0.3,0,0.6,0.3,0.6,0.6c0,0.2-0.1,0.3-0.2,0.5
		C61.2,74.9,60.5,75.2,59.5,75.2 M61,71.4c-0.1-1-0.6-1.7-1.6-1.7c-0.9,0-1.5,0.7-1.6,1.7H61z"/>
	<path class="st0" d="M63.9,69.4c0-0.4,0.3-0.7,0.7-0.7c0.4,0,0.7,0.3,0.7,0.7v0.7c0.3-0.8,1-1.4,1.6-1.4c0.5,0,0.7,0.3,0.7,0.7
		c0,0.4-0.3,0.6-0.6,0.7c-1,0.2-1.7,1-1.7,2.5v1.9c0,0.4-0.3,0.7-0.7,0.7c-0.4,0-0.7-0.3-0.7-0.7C63.9,74.4,63.9,69.4,63.9,69.4z"/>
	<path class="st0" d="M69.1,73.3V70h-0.2c-0.3,0-0.6-0.3-0.6-0.6c0-0.4,0.3-0.6,0.6-0.6h0.2v-1.1c0-0.4,0.3-0.7,0.7-0.7
		c0.4,0,0.7,0.3,0.7,0.7v1.1h1.1c0.3,0,0.6,0.3,0.6,0.6c0,0.4-0.3,0.6-0.6,0.6h-1.1v3.2c0,0.6,0.3,0.8,0.8,0.8c0.2,0,0.3,0,0.4,0
		c0.3,0,0.6,0.3,0.6,0.6c0,0.3-0.2,0.5-0.4,0.6c-0.3,0.1-0.6,0.2-1,0.2C69.8,75.2,69.1,74.7,69.1,73.3"/>
	<path class="st0" d="M73.2,71.9L73.2,71.9c0-1.9,1.4-3.4,3.4-3.4c1.9,0,3.4,1.5,3.4,3.3l0,0c0,1.8-1.4,3.4-3.4,3.4
		C74.6,75.2,73.2,73.7,73.2,71.9 M78.4,71.9L78.4,71.9c0-1.2-0.8-2.1-1.9-2.1c-1.2,0-1.9,0.9-1.9,2.1l0,0c0,1.1,0.8,2.1,1.9,2.1
		C77.7,73.9,78.4,73,78.4,71.9"/>
	<path class="st0" d="M81.1,74.4c-0.2-0.1-0.3-0.3-0.3-0.5c0-0.3,0.3-0.6,0.6-0.6c0.1,0,0.2,0,0.3,0.1c0.6,0.4,1.2,0.6,1.8,0.6
		c0.6,0,1-0.3,1-0.7l0,0c0-0.5-0.7-0.7-1.4-0.9c-0.9-0.3-2-0.7-2-1.9l0,0c0-1.2,1-2,2.2-2c0.7,0,1.4,0.2,2,0.5
		c0.2,0.1,0.3,0.3,0.3,0.6c0,0.3-0.3,0.6-0.6,0.6c-0.1,0-0.2,0-0.3-0.1c-0.5-0.3-1-0.4-1.5-0.4c-0.6,0-0.9,0.3-0.9,0.6l0,0
		c0,0.5,0.7,0.7,1.4,0.9c0.9,0.3,2,0.7,2,1.9l0,0c0,1.4-1,2-2.3,2C82.7,75.2,81.8,74.9,81.1,74.4"/>
	<path class="st0" d="M87,76.2c0.5-0.2,0.8-0.6,0.8-1.1c-0.3-0.1-0.7-0.4-0.7-0.8v-0.1c0-0.5,0.3-0.8,0.8-0.8s0.9,0.4,0.9,1.1v0.1
		c0,0.8-0.2,1.4-0.6,1.8c-0.3,0.3-0.8,0.5-1.1,0.5c-0.3,0-0.4-0.2-0.4-0.3C86.8,76.3,86.9,76.2,87,76.2"/>
	<path class="st0" d="M94.5,76.5c-0.3-0.1-0.4-0.3-0.4-0.6s0.3-0.6,0.6-0.6c0.1,0,0.2,0,0.3,0.1c0.6,0.3,1.2,0.5,1.9,0.5
		c1.3,0,2-0.7,2-2v-0.5c-0.5,0.7-1.2,1.2-2.2,1.2c-1.5,0-2.9-1.1-2.9-3l0,0c0-1.9,1.4-3,2.9-3c1.1,0,1.7,0.5,2.2,1.1v-0.3
		c0-0.4,0.3-0.7,0.7-0.7c0.4,0,0.7,0.3,0.7,0.7v4.5c0,1.1-0.3,1.9-0.8,2.4c-0.6,0.5-1.5,0.8-2.6,0.8C96,77.1,95.2,76.9,94.5,76.5
		 M98.9,71.5L98.9,71.5c0-1.1-0.8-1.8-1.8-1.8s-1.8,0.7-1.8,1.8l0,0c0,1.1,0.8,1.8,1.8,1.8C98,73.3,98.9,72.6,98.9,71.5"/>
	<path class="st0" d="M101.8,71.9L101.8,71.9c0-1.9,1.4-3.4,3.4-3.4c1.9,0,3.4,1.5,3.4,3.3l0,0c0,1.8-1.4,3.4-3.4,3.4
		C103.2,75.2,101.8,73.7,101.8,71.9 M107,71.9L107,71.9c0-1.2-0.8-2.1-1.9-2.1c-1.2,0-1.9,0.9-1.9,2.1l0,0c0,1.1,0.8,2.1,1.9,2.1
		C106.3,73.9,107,73,107,71.9"/>
	<path class="st0" d="M109.9,66.9c0-0.4,0.3-0.7,0.7-0.7c0.4,0,0.7,0.3,0.7,0.7v2.9c0.5-0.7,1.1-1.2,2.1-1.2c1.5,0,2.9,1.2,2.9,3.3
		l0,0c0,2.1-1.4,3.3-2.9,3.3c-1,0-1.7-0.5-2.1-1.1v0.3c0,0.4-0.3,0.7-0.7,0.7c-0.4,0-0.7-0.3-0.7-0.7V66.9z M115,71.9L115,71.9
		c0-1.3-0.8-2.1-1.8-2.1s-1.8,0.8-1.8,2.1l0,0c0,1.2,0.9,2.1,1.8,2.1C114.2,73.9,115,73.1,115,71.9"/>
	<path class="st0" d="M117.9,67c0-0.4,0.4-0.7,0.8-0.7c0.5,0,0.8,0.3,0.8,0.7v0.1c0,0.4-0.4,0.7-0.8,0.7S117.9,67.5,117.9,67
		L117.9,67z M118,69.4c0-0.4,0.3-0.7,0.7-0.7c0.4,0,0.7,0.3,0.7,0.7v5.1c0,0.4-0.3,0.7-0.7,0.7c-0.4,0-0.7-0.3-0.7-0.7V69.4z"/>
	<path class="st0" d="M124.3,75.2c-1.8,0-3.2-1.4-3.2-3.3l0,0c0-1.8,1.3-3.4,3.1-3.4c2,0,3,1.7,3,3.2c0,0.4-0.3,0.7-0.7,0.7h-3.9
		c0.2,1.1,0.9,1.6,1.8,1.6c0.6,0,1.1-0.2,1.5-0.6c0.1-0.1,0.2-0.1,0.4-0.1c0.3,0,0.6,0.3,0.6,0.6c0,0.2-0.1,0.3-0.2,0.5
		C125.9,74.9,125.2,75.2,124.3,75.2 M125.7,71.4c-0.1-1-0.6-1.7-1.6-1.7c-0.9,0-1.5,0.7-1.6,1.7H125.7z"/>
	<path class="st0" d="M128.6,69.4c0-0.4,0.3-0.7,0.7-0.7s0.7,0.3,0.7,0.7v0.7c0.3-0.8,1-1.4,1.6-1.4c0.5,0,0.7,0.3,0.7,0.7
		c0,0.4-0.3,0.6-0.6,0.7c-1,0.2-1.7,1-1.7,2.5v1.9c0,0.4-0.3,0.7-0.7,0.7s-0.7-0.3-0.7-0.7V69.4z"/>
	<path class="st0" d="M133.5,69.4c0-0.4,0.3-0.7,0.7-0.7s0.7,0.3,0.7,0.7v0.3c0.4-0.6,1-1.1,2-1.1c1.4,0,2.2,1,2.2,2.5v3.4
		c0,0.4-0.3,0.7-0.7,0.7s-0.7-0.3-0.7-0.7v-3c0-1-0.5-1.6-1.3-1.6s-1.4,0.6-1.4,1.6v3c0,0.4-0.3,0.7-0.7,0.7s-0.7-0.3-0.7-0.7v-5.1
		H133.5z"/>
	<path class="st0" d="M140.6,71.9L140.6,71.9c0-1.9,1.4-3.4,3.4-3.4c1.9,0,3.4,1.5,3.4,3.3l0,0c0,1.8-1.4,3.4-3.4,3.4
		C142,75.2,140.6,73.7,140.6,71.9 M145.8,71.9L145.8,71.9c0-1.2-0.8-2.1-1.9-2.1c-1.2,0-1.9,0.9-1.9,2.1l0,0c0,1.1,0.8,2.1,1.9,2.1
		C145.1,73.9,145.8,73,145.8,71.9"/>
	<path class="st0" d="M152.6,73.3V70h-0.2c-0.3,0-0.6-0.3-0.6-0.6c0-0.4,0.3-0.6,0.6-0.6h0.2v-1.1c0-0.4,0.3-0.7,0.7-0.7
		s0.7,0.3,0.7,0.7v1.1h1.1c0.3,0,0.6,0.3,0.6,0.6c0,0.4-0.3,0.6-0.6,0.6H154v3.2c0,0.6,0.3,0.8,0.8,0.8c0.2,0,0.3,0,0.4,0
		c0.3,0,0.6,0.3,0.6,0.6c0,0.3-0.2,0.5-0.4,0.6c-0.3,0.1-0.6,0.2-1,0.2C153.4,75.2,152.6,74.7,152.6,73.3"/>
	<path class="st0" d="M157.2,69.4c0-0.4,0.3-0.7,0.7-0.7s0.7,0.3,0.7,0.7v0.7c0.3-0.8,1-1.4,1.6-1.4c0.5,0,0.7,0.3,0.7,0.7
		c0,0.4-0.3,0.6-0.6,0.7c-1,0.2-1.7,1-1.7,2.5v1.9c0,0.4-0.3,0.7-0.7,0.7s-0.7-0.3-0.7-0.7V69.4z"/>
	<path class="st0" d="M161.4,73.2L161.4,73.2c0-1.4,1.1-2.1,2.6-2.1c0.7,0,1.2,0.1,1.7,0.3v-0.2c0-0.9-0.5-1.4-1.6-1.4
		c-0.5,0-1,0.1-1.4,0.3c-0.1,0-0.2,0-0.2,0c-0.3,0-0.6-0.3-0.6-0.6s0.2-0.5,0.4-0.6c0.6-0.2,1.2-0.4,2-0.4c0.9,0,1.6,0.3,2.1,0.7
		c0.5,0.5,0.7,1.1,0.7,2v3.2c0,0.4-0.3,0.7-0.7,0.7s-0.7-0.3-0.7-0.6v-0.2c-0.4,0.5-1.1,0.9-2.1,0.9
		C162.5,75.2,161.4,74.5,161.4,73.2 M165.7,72.8v-0.4c-0.4-0.1-0.9-0.3-1.4-0.3c-0.9,0-1.5,0.4-1.5,1.1l0,0c0,0.6,0.5,1,1.2,1
		C165,74.1,165.7,73.6,165.7,72.8"/>
	<path class="st0" d="M168.9,69.4c0-0.4,0.3-0.7,0.7-0.7s0.7,0.3,0.7,0.7v0.3c0.4-0.6,1-1.1,2-1.1c1.4,0,2.2,1,2.2,2.5v3.4
		c0,0.4-0.3,0.7-0.7,0.7s-0.7-0.3-0.7-0.7v-3c0-1-0.5-1.6-1.3-1.6s-1.4,0.6-1.4,1.6v3c0,0.4-0.3,0.7-0.7,0.7s-0.7-0.3-0.7-0.7v-5.1
		H168.9z"/>
	<path class="st0" d="M176,74.4c-0.2-0.1-0.3-0.3-0.3-0.5c0-0.3,0.3-0.6,0.6-0.6c0.1,0,0.2,0,0.3,0.1c0.6,0.4,1.2,0.6,1.8,0.6
		s1-0.3,1-0.7l0,0c0-0.5-0.7-0.7-1.4-0.9c-0.9-0.3-2-0.7-2-1.9l0,0c0-1.2,1-2,2.2-2c0.7,0,1.4,0.2,2,0.5c0.2,0.1,0.3,0.3,0.3,0.6
		c0,0.3-0.3,0.6-0.6,0.6c-0.1,0-0.2,0-0.3-0.1c-0.5-0.3-1-0.4-1.5-0.4c-0.6,0-0.9,0.3-0.9,0.6l0,0c0,0.5,0.7,0.7,1.4,0.9
		c0.9,0.3,2,0.7,2,1.9l0,0c0,1.4-1,2-2.3,2C177.6,75.2,176.7,74.9,176,74.4"/>
	<path class="st0" d="M182.2,69.4c0-0.4,0.3-0.7,0.7-0.7s0.7,0.3,0.7,0.7v0.4c0.5-0.7,1.1-1.2,2.1-1.2c1.5,0,2.9,1.2,2.9,3.3l0,0
		c0,2.1-1.4,3.3-2.9,3.3c-1,0-1.7-0.5-2.1-1.1v2.3c0,0.4-0.3,0.7-0.7,0.7s-0.7-0.3-0.7-0.7V69.4z M187.3,71.9L187.3,71.9
		c0-1.3-0.8-2.1-1.8-2.1s-1.8,0.8-1.8,2.1l0,0c0,1.2,0.9,2.1,1.8,2.1C186.5,73.9,187.3,73.1,187.3,71.9"/>
	<path class="st0" d="M189.8,73.2L189.8,73.2c0-1.4,1.1-2.1,2.6-2.1c0.7,0,1.2,0.1,1.7,0.3v-0.2c0-0.9-0.5-1.4-1.6-1.4
		c-0.5,0-1,0.1-1.4,0.3c-0.1,0-0.2,0-0.2,0c-0.3,0-0.6-0.3-0.6-0.6s0.2-0.5,0.4-0.6c0.6-0.2,1.2-0.4,2-0.4c0.9,0,1.6,0.3,2.1,0.7
		c0.5,0.5,0.7,1.1,0.7,2v3.2c0,0.4-0.3,0.7-0.7,0.7s-0.7-0.3-0.7-0.6v-0.2c-0.4,0.5-1.1,0.9-2.1,0.9
		C190.9,75.2,189.8,74.5,189.8,73.2 M194.1,72.8v-0.4c-0.4-0.1-0.9-0.3-1.4-0.3c-0.9,0-1.5,0.4-1.5,1.1l0,0c0,0.6,0.5,1,1.2,1
		C193.4,74.1,194.1,73.6,194.1,72.8"/>
	<path class="st0" d="M197.2,69.4c0-0.4,0.3-0.7,0.7-0.7s0.7,0.3,0.7,0.7v0.7c0.3-0.8,1-1.4,1.6-1.4c0.5,0,0.7,0.3,0.7,0.7
		c0,0.4-0.3,0.6-0.6,0.7c-1,0.2-1.7,1-1.7,2.5v1.9c0,0.4-0.3,0.7-0.7,0.7s-0.7-0.3-0.7-0.7V69.4z"/>
	<path class="st0" d="M204.8,75.2c-1.8,0-3.2-1.4-3.2-3.3l0,0c0-1.8,1.3-3.4,3.1-3.4c2,0,3,1.7,3,3.2c0,0.4-0.3,0.7-0.7,0.7h-4
		c0.2,1.1,0.9,1.6,1.8,1.6c0.6,0,1.1-0.2,1.5-0.6c0.1-0.1,0.2-0.1,0.4-0.1c0.3,0,0.6,0.3,0.6,0.6c0,0.2-0.1,0.3-0.2,0.5
		C206.5,74.9,205.8,75.2,204.8,75.2 M206.3,71.4c-0.1-1-0.6-1.7-1.6-1.7c-0.9,0-1.5,0.7-1.6,1.7H206.3z"/>
	<path class="st0" d="M209.2,69.4c0-0.4,0.3-0.7,0.7-0.7s0.7,0.3,0.7,0.7v0.3c0.4-0.6,1-1.1,2-1.1c1.4,0,2.2,1,2.2,2.5v3.4
		c0,0.4-0.3,0.7-0.7,0.7s-0.7-0.3-0.7-0.7v-3c0-1-0.5-1.6-1.3-1.6s-1.4,0.6-1.4,1.6v3c0,0.4-0.3,0.7-0.7,0.7s-0.7-0.3-0.7-0.7v-5.1
		H209.2z"/>
	<path class="st0" d="M216.8,73.3V70h-0.2c-0.3,0-0.6-0.3-0.6-0.6c0-0.4,0.3-0.6,0.6-0.6h0.2v-1.1c0-0.4,0.3-0.7,0.7-0.7
		s0.7,0.3,0.7,0.7v1.1h1.1c0.3,0,0.6,0.3,0.6,0.6c0,0.4-0.3,0.6-0.6,0.6h-1.1v3.2c0,0.6,0.3,0.8,0.8,0.8c0.2,0,0.3,0,0.4,0
		c0.3,0,0.6,0.3,0.6,0.6c0,0.3-0.2,0.5-0.4,0.6c-0.3,0.1-0.6,0.2-1,0.2C217.6,75.2,216.8,74.7,216.8,73.3"/>
	<path class="st0" d="M224.2,75.2c-1.8,0-3.2-1.4-3.2-3.3l0,0c0-1.8,1.3-3.4,3.1-3.4c2,0,3,1.7,3,3.2c0,0.4-0.3,0.7-0.7,0.7h-3.9
		c0.2,1.1,0.9,1.6,1.8,1.6c0.6,0,1.1-0.2,1.5-0.6c0.1-0.1,0.2-0.1,0.4-0.1c0.3,0,0.6,0.3,0.6,0.6c0,0.2-0.1,0.3-0.2,0.5
		C225.9,74.9,225.1,75.2,224.2,75.2 M225.6,71.4c-0.1-1-0.6-1.7-1.6-1.7c-0.9,0-1.5,0.7-1.6,1.7H225.6z"/>
</g>
</svg>
