<?xml version="1.0" encoding="utf-8"?>
<!-- Generator: Adobe Illustrator 23.0.0, SVG Export Plug-In . SVG Version: 6.00 Build 0)  -->
<svg version="1.1" id="Capa_1" xmlns="http://www.w3.org/2000/svg" xmlns:xlink="http://www.w3.org/1999/xlink" x="0px" y="0px"
	 viewBox="0 0 286 63" style="enable-background:new 0 0 286 63;" xml:space="preserve">
<style type="text/css">
	.st0{fill:#29BFDF;}
</style>
<g>
	<g>
		<path class="st0" d="M4.8,54.6L3,50.1h-1l-1.7,4.5h1l0.4-1h1.8l0.4,1H4.8z M2,52.8l0.6-1.6l0.6,1.6H2z"/>
		<polygon class="st0" points="8.2,53.8 6,53.8 6,50.2 5.1,50.2 5.1,54.6 8.2,54.6 		"/>
		<path class="st0" d="M10.9,53.7c-0.2,0.2-0.4,0.2-0.6,0.2c-0.3,0-0.6-0.1-0.8-0.4c-0.2-0.2-0.3-0.6-0.3-1.2c0-0.5,0.1-0.9,0.3-1.1
			c0.2-0.2,0.5-0.4,0.8-0.4c0.2,0,0.4,0.1,0.6,0.2c0.2,0.1,0.3,0.3,0.3,0.5l0.9-0.2c-0.1-0.4-0.3-0.6-0.5-0.8
			c-0.3-0.3-0.8-0.5-1.3-0.5c-0.6,0-1.1,0.2-1.5,0.6c-0.4,0.4-0.6,1-0.6,1.7c0,0.7,0.2,1.3,0.6,1.7c0.4,0.4,0.9,0.6,1.5,0.6
			c0.5,0,0.9-0.1,1.2-0.4c0.3-0.2,0.5-0.6,0.7-1.1L11.2,53C11.2,53.3,11,53.5,10.9,53.7z"/>
		<path class="st0" d="M13.4,53.6h1.8l0.4,1h1l-1.8-4.5h-1l-1.7,4.5h1L13.4,53.6z M14.3,51.2l0.6,1.6h-1.2L14.3,51.2z"/>
		<polygon class="st0" points="20.1,53.8 17.8,53.8 17.8,50.2 16.9,50.2 16.9,54.6 20.1,54.6 		"/>
		<path class="st0" d="M22.9,50.2c-0.2-0.1-0.5-0.1-0.9-0.1h-1.6v4.5h1.7c0.3,0,0.6,0,0.8-0.1c0.3-0.1,0.5-0.2,0.6-0.4
			c0.2-0.2,0.4-0.5,0.5-0.8c0.1-0.3,0.1-0.6,0.1-1c0-0.4,0-0.8-0.1-1.1c-0.1-0.3-0.2-0.5-0.4-0.7C23.4,50.4,23.2,50.3,22.9,50.2z
			 M23.1,53.2c-0.1,0.2-0.1,0.3-0.2,0.4c-0.1,0.1-0.2,0.1-0.4,0.2c-0.1,0-0.3,0-0.5,0h-0.7v-3h0.4c0.4,0,0.6,0,0.7,0
			c0.2,0,0.3,0.1,0.4,0.2c0.1,0.1,0.2,0.2,0.3,0.4c0.1,0.2,0.1,0.4,0.1,0.8C23.2,52.7,23.2,53,23.1,53.2z"/>
		<polygon class="st0" points="25.2,48.8 24.8,49.7 25.3,49.7 26.2,48.8 		"/>
		<rect x="24.6" y="50.1" class="st0" width="0.9" height="4.5"/>
		<path class="st0" d="M27.6,50.1l-1.7,4.5h1l0.4-1H29l0.4,1h1l-1.8-4.5H27.6z M27.5,52.8l0.6-1.6l0.6,1.6H27.5z"/>
		<polygon class="st0" points="36.8,50.1 35.4,50.1 34.6,53.2 33.8,50.1 32.5,50.1 32.5,54.6 33.3,54.6 33.3,51.1 34.2,54.6 
			35.1,54.6 36,51.1 36,54.6 36.8,54.6 		"/>
		<path class="st0" d="M41.6,54.6l-1.8-4.5h-1l-1.7,4.5h1l0.4-1h1.8l0.4,1H41.6z M38.7,52.8l0.6-1.6l0.6,1.6H38.7z"/>
		<polygon class="st0" points="40.5,50.1 42.1,52.7 42.1,54.6 43,54.6 43,52.7 44.7,50.1 43.6,50.1 42.6,51.9 41.6,50.1 		"/>
		<path class="st0" d="M44.3,52.4c0,0.7,0.2,1.3,0.6,1.7c0.4,0.4,0.9,0.6,1.6,0.6c0.7,0,1.2-0.2,1.6-0.6c0.4-0.4,0.6-1,0.6-1.7
			c0-0.7-0.2-1.3-0.6-1.7c-0.4-0.4-0.9-0.6-1.6-0.6c-0.4,0-0.7,0.1-1,0.2c-0.2,0.1-0.4,0.2-0.6,0.4c-0.2,0.2-0.3,0.4-0.4,0.6
			C44.4,51.6,44.3,51.9,44.3,52.4z M45.6,51.2c0.2-0.3,0.5-0.4,0.9-0.4c0.4,0,0.7,0.1,0.9,0.4c0.2,0.3,0.3,0.6,0.3,1.1
			c0,0.5-0.1,0.9-0.3,1.2c-0.2,0.3-0.5,0.4-0.9,0.4c-0.4,0-0.7-0.1-0.9-0.4c-0.2-0.3-0.3-0.6-0.3-1.1C45.2,51.9,45.3,51.5,45.6,51.2
			z"/>
		<path class="st0" d="M51.9,53c-0.1-0.1-0.3-0.3-0.5-0.4c0.4-0.1,0.7-0.2,0.9-0.4c0.2-0.2,0.3-0.5,0.3-0.8c0-0.3-0.1-0.5-0.2-0.7
			c-0.1-0.2-0.3-0.3-0.5-0.4c-0.2-0.1-0.6-0.1-1-0.1h-1.9v4.5h0.9v-1.9H50c0.2,0,0.4,0,0.5,0.1c0.1,0,0.2,0.1,0.3,0.2
			c0.1,0.1,0.2,0.3,0.5,0.7l0.6,1h1.1l-0.6-0.9C52.2,53.4,52,53.1,51.9,53z M50.5,52h-0.7v-1.1h0.7c0.4,0,0.6,0,0.7,0
			c0.2,0,0.3,0.1,0.3,0.2c0.1,0.1,0.1,0.2,0.1,0.4c0,0.1,0,0.2-0.1,0.3c-0.1,0.1-0.1,0.2-0.3,0.2C51.2,52,50.9,52,50.5,52z"/>
		<rect x="44" y="61" class="st0" width="0.8" height="0.8"/>
		<path class="st0" d="M6.7,57.9c-0.2-0.2-0.4-0.3-0.7-0.4c-0.2-0.1-0.5-0.1-0.8-0.1H3.5v4.4h1.7c0.3,0,0.6,0,0.8-0.1
			c0.3-0.1,0.5-0.2,0.6-0.3c0.2-0.2,0.4-0.5,0.5-0.8c0.1-0.3,0.1-0.6,0.1-0.9c0-0.4,0-0.7-0.1-1C7,58.3,6.8,58.1,6.7,57.9z
			 M6.2,60.4c-0.1,0.2-0.1,0.3-0.2,0.4C5.9,60.9,5.8,61,5.6,61c-0.1,0-0.3,0-0.5,0H4.4v-2.9h0.4c0.4,0,0.6,0,0.7,0
			c0.2,0,0.3,0.1,0.4,0.2c0.1,0.1,0.2,0.2,0.3,0.4c0.1,0.2,0.1,0.4,0.1,0.8C6.3,60,6.3,60.2,6.2,60.4z"/>
		<polygon class="st0" points="8.4,59.9 10.6,59.9 10.6,59.1 8.4,59.1 8.4,58.2 10.8,58.2 10.8,57.4 7.5,57.4 7.5,61.8 10.8,61.8 
			10.8,61.1 8.4,61.1 		"/>
		<path class="st0" d="M15.8,59.5c0.2-0.1,0.3-0.2,0.4-0.4c0.1-0.2,0.2-0.4,0.2-0.6c0-0.2,0-0.4-0.1-0.5c-0.1-0.1-0.2-0.3-0.3-0.4
			c-0.1-0.1-0.3-0.2-0.5-0.2c-0.2,0-0.4,0-0.8,0H13v4.4h1.5c0.6,0,0.9,0,1.1,0c0.2,0,0.4-0.1,0.6-0.2c0.2-0.1,0.3-0.3,0.4-0.4
			c0.1-0.2,0.1-0.4,0.1-0.6c0-0.3-0.1-0.5-0.2-0.7C16.3,59.7,16.1,59.6,15.8,59.5z M13.9,58.2h0.5c0.4,0,0.7,0,0.8,0
			c0.1,0,0.3,0.1,0.3,0.2c0.1,0.1,0.1,0.2,0.1,0.3c0,0.1,0,0.3-0.1,0.3c-0.1,0.1-0.2,0.1-0.4,0.2c-0.1,0-0.3,0-0.6,0h-0.6V58.2z
			 M15.6,60.9C15.5,61,15.4,61,15.3,61c-0.1,0-0.3,0-0.6,0h-0.8v-1.2h0.7c0.4,0,0.7,0,0.8,0.1c0.1,0,0.2,0.1,0.3,0.2
			c0.1,0.1,0.1,0.2,0.1,0.3C15.8,60.6,15.7,60.8,15.6,60.9z"/>
		<path class="st0" d="M19.1,57.3c-0.4,0-0.7,0.1-0.9,0.2c-0.2,0.1-0.4,0.2-0.6,0.4c-0.2,0.2-0.3,0.4-0.4,0.6
			C17,58.8,17,59.2,17,59.6c0,0.7,0.2,1.2,0.6,1.6c0.4,0.4,0.9,0.6,1.6,0.6c0.6,0,1.2-0.2,1.5-0.6c0.4-0.4,0.6-1,0.6-1.7
			c0-0.7-0.2-1.3-0.6-1.7C20.3,57.5,19.7,57.3,19.1,57.3z M20,60.7c-0.2,0.3-0.5,0.4-0.9,0.4c-0.3,0-0.6-0.1-0.9-0.4
			c-0.2-0.3-0.3-0.6-0.3-1.1c0-0.5,0.1-0.9,0.3-1.1c0.2-0.3,0.5-0.4,0.9-0.4s0.7,0.1,0.9,0.4c0.2,0.2,0.3,0.6,0.3,1.1
			C20.3,60.1,20.2,60.5,20,60.7z"/>
		<path class="st0" d="M23.8,60.2h1v0.6c-0.1,0.1-0.3,0.2-0.5,0.3c-0.2,0.1-0.4,0.1-0.6,0.1c-0.4,0-0.7-0.1-0.9-0.4
			c-0.2-0.3-0.3-0.6-0.3-1.2c0-0.5,0.1-0.8,0.3-1.1c0.2-0.2,0.5-0.4,0.9-0.4c0.3,0,0.5,0.1,0.6,0.2c0.2,0.1,0.3,0.3,0.3,0.5l0.9-0.2
			c-0.1-0.4-0.3-0.7-0.6-0.9c-0.3-0.2-0.7-0.3-1.3-0.3c-0.4,0-0.8,0.1-1.1,0.2c-0.4,0.2-0.6,0.5-0.8,0.8c-0.2,0.3-0.3,0.8-0.3,1.2
			c0,0.4,0.1,0.8,0.3,1.2c0.2,0.4,0.4,0.6,0.8,0.8c0.3,0.2,0.7,0.3,1.2,0.3c0.4,0,0.7-0.1,1.1-0.2c0.4-0.1,0.6-0.3,0.8-0.5v-1.7
			h-1.9V60.2z"/>
		<path class="st0" d="M28.2,57.3c-0.4,0-0.7,0.1-0.9,0.2c-0.2,0.1-0.4,0.2-0.6,0.4c-0.2,0.2-0.3,0.4-0.4,0.6
			c-0.1,0.3-0.2,0.7-0.2,1.1c0,0.7,0.2,1.2,0.6,1.6c0.4,0.4,0.9,0.6,1.6,0.6c0.6,0,1.2-0.2,1.5-0.6c0.4-0.4,0.6-1,0.6-1.7
			c0-0.7-0.2-1.3-0.6-1.7C29.4,57.5,28.9,57.3,28.2,57.3z M29.1,60.7c-0.2,0.3-0.5,0.4-0.9,0.4c-0.4,0-0.6-0.1-0.9-0.4
			c-0.2-0.3-0.3-0.6-0.3-1.1c0-0.5,0.1-0.9,0.3-1.1c0.2-0.3,0.5-0.4,0.9-0.4c0.4,0,0.7,0.1,0.9,0.4c0.2,0.2,0.3,0.6,0.3,1.1
			C29.5,60.1,29.3,60.5,29.1,60.7z"/>
		<polygon class="st0" points="33.9,57.4 30.4,57.4 30.4,58.2 31.7,58.2 31.7,61.8 32.6,61.8 32.6,58.2 33.9,58.2 		"/>
		<path class="st0" d="M35.1,57.4l-1.7,4.4h0.9l0.4-1h1.8l0.4,1h1l-1.8-4.4H35.1z M35,60.1l0.6-1.6l0.6,1.6H35z"/>
		<polygon class="st0" points="35.3,57 35.8,57 36.6,56.1 35.7,56.1 		"/>
		<path class="st0" d="M43.4,57.9c-0.2-0.2-0.4-0.3-0.7-0.4c-0.2-0.1-0.5-0.1-0.8-0.1h-1.6v4.4h1.7c0.3,0,0.6,0,0.8-0.1
			c0.3-0.1,0.5-0.2,0.6-0.3c0.2-0.2,0.4-0.5,0.5-0.8c0.1-0.3,0.1-0.6,0.1-0.9c0-0.4,0-0.7-0.1-1C43.7,58.3,43.6,58.1,43.4,57.9z
			 M42.9,60.4c-0.1,0.2-0.1,0.3-0.2,0.4c-0.1,0.1-0.2,0.1-0.4,0.2c-0.1,0-0.3,0-0.5,0h-0.7v-2.9h0.4c0.4,0,0.6,0,0.7,0
			c0.2,0,0.3,0.1,0.4,0.2c0.1,0.1,0.2,0.2,0.3,0.4C43,59,43,59.3,43,59.6C43,60,43,60.2,42.9,60.4z"/>
		<path class="st0" d="M47.5,60.9c-0.2,0.1-0.4,0.2-0.6,0.2c-0.3,0-0.6-0.1-0.8-0.4c-0.2-0.2-0.3-0.6-0.3-1.2c0-0.5,0.1-0.9,0.3-1.1
			c0.2-0.2,0.5-0.3,0.8-0.3c0.2,0,0.4,0.1,0.6,0.2c0.2,0.1,0.3,0.3,0.3,0.5l0.9-0.2c-0.1-0.4-0.3-0.6-0.4-0.8
			c-0.3-0.3-0.8-0.5-1.3-0.5c-0.6,0-1.1,0.2-1.5,0.6c-0.4,0.4-0.6,1-0.6,1.7c0,0.7,0.2,1.2,0.6,1.6c0.4,0.4,0.8,0.6,1.4,0.6
			c0.5,0,0.9-0.1,1.2-0.4c0.3-0.2,0.5-0.6,0.7-1.1l-0.9-0.3C47.8,60.5,47.6,60.7,47.5,60.9z"/>
		<rect x="48.8" y="61" class="st0" width="0.8" height="0.8"/>
		<path class="st0" d="M23,14.5c0.8,0,1.4-0.3,1.4-0.7c0-0.3-0.6-0.7-1.4-0.7c-0.8,0-1.2,0.4-1.2,0.8C21.7,14.2,22.2,14.5,23,14.5z"
			/>
		<path class="st0" d="M13.9,37.3c-0.3,0.2-0.3,0.9,0.1,1.5c0.4,0.6,1,0.8,1.3,0.6c0.3-0.2,0.4-0.7,0-1.3
			C14.8,37.4,14.2,37.1,13.9,37.3z"/>
		<path class="st0" d="M31.4,13.8c0-0.3-0.4-0.7-1.2-0.8c-0.8,0-1.4,0.4-1.4,0.7c0,0.4,0.6,0.7,1.4,0.7C31,14.5,31.5,14.2,31.4,13.8
			z"/>
		<path class="st0" d="M24.9,41.8c-0.8-0.1-1.5,0.1-1.6,0.4c-0.1,0.3,0.4,0.8,1.2,1c0.8,0.2,1.3-0.1,1.4-0.5
			C26,42.4,25.7,41.9,24.9,41.8z"/>
		<path class="st0" d="M39.3,28.6c0.4,0,0.8-0.3,0.8-1.1c0-0.8-0.3-1.4-0.6-1.4c-0.4,0-0.8,0.5-0.9,1.3
			C38.6,28.2,38.9,28.6,39.3,28.6z"/>
		<path class="st0" d="M14.6,27.4c0-0.8-0.5-1.3-0.9-1.3c-0.4,0-0.6,0.7-0.6,1.4c0,0.7,0.4,1.1,0.8,1.1
			C14.4,28.6,14.7,28.2,14.6,27.4z"/>
		<path class="st0" d="M39.7,17.3c0.4,0,0.7-0.5,0.7-1.2c0-0.8-0.5-1.3-0.9-1.3c-0.4,0-0.7,0.7-0.6,1.4C38.9,17,39.3,17.4,39.7,17.3
			z"/>
		<path class="st0" d="M38,39.4c0.3,0.2,0.8,0,1.3-0.6c0.4-0.6,0.4-1.3,0.1-1.5c-0.3-0.2-1,0.1-1.4,0.7C37.6,38.6,37.7,39.2,38,39.4
			z"/>
		<path class="st0" d="M13.6,17.3c0.4,0,0.8-0.3,0.8-1.1c0-0.8-0.2-1.4-0.6-1.4c-0.4,0-0.8,0.5-0.9,1.3
			C12.9,16.9,13.2,17.3,13.6,17.3z"/>
		<path class="st0" d="M35.5,30.1c0,0,0.2-0.6,0.1-0.7c-0.1,0-0.6,0.5-0.6,0.5c-0.1-0.4-0.7-0.4-0.7-0.4v0.2c0.4,0,0.5,0.6,0.4,0.8
			c0,0.1,0.4,0.4,0.5,0.3c0.1-0.2,0.6-0.3,0.9,0l0.1-0.1C36.1,30.5,35.9,30,35.5,30.1z"/>
		<path class="st0" d="M17.2,21.7c0,0,0.5,2.7,4.2,2.8c0,0-2.4,0.8-3.3,0.7c0,0,1.7,2,4.3,1.4c0,0-1.4,1.3-3,1c0,0,1.8,1.6,4.2,0.3
			c0,0-0.5,1.2-1.7,1.6c0,0,1.5,1,3.2-0.4c0.2-0.2,0.9,0,0.2,0.6c-0.9,0.7-2.2,0.9-2.8,2l0.7,0.1c-0.8,0.8-1.8,1.8-1.9,1.9
			c0,0-0.2-0.2-0.6-0.1c-0.1,0-0.1-0.1-0.2-0.1c0.5-0.2,1.1-0.5,0.8-1.1c0,0-0.8,0.8-1.4,0.8c0.8-0.5,1.1-1.5,0.7-2.1
			c-0.4-0.7-1.5-0.8-2.4-0.3c-0.9,0.5-1.2,1.5-0.8,2.2c0.4,0.7,1.4,0.8,2.3,0.3c-0.4,0.5-1.1,0.7-1.3,0.8c0,0,0.5,0.9,1.6-0.3
			c0.1,0,0.1,0.1,0.2,0.1c-0.3,0.2-0.4,0.6-0.2,0.8c0,0-0.1,0.6,0.6,0.6c0,0,0.2,0.4,0.7,0.2c0.3,0.9,0.2,1.6,0.3,2.1l0.9,0
			c-0.1-0.4-0.1-1.7-0.8-2.9c0.1-0.1,0.2-0.3,0.1-0.5c0,0,1.3-0.9,2.3-1.5l0.1,0.6c0.3-0.4,0.8-0.8,1.4-0.9c-0.6,0.8-1,1.8-0.7,3.1
			c0,0,0.2-0.5,1-0.6c0,0-1.1,1.4,0.7,4c1.8-2.6,0.8-4,0.8-4c0.8,0.1,1,0.6,1,0.6c0.2-1.3-0.2-2.3-0.8-3.1c0.6,0.2,1,0.5,1.4,0.9
			l0.1-0.6c1,0.6,2.3,1.4,2.3,1.5c-0.1,0.2,0,0.3,0.1,0.5c-0.7,1.2-0.8,2.4-0.8,2.9l0.9,0c0.1-0.5,0-1.2,0.3-2.1
			c0.5,0.2,0.7-0.2,0.7-0.2c0.7,0,0.6-0.6,0.6-0.6c0.2-0.2,0.1-0.5-0.2-0.8c0.1-0.1,0.1-0.1,0.2-0.2c1.1,1.3,1.6,0.3,1.6,0.3
			c-0.3-0.1-1-0.3-1.3-0.8c0.9,0.5,1.8,0.4,2.3-0.3c0.4-0.7,0.1-1.7-0.8-2.2c-0.9-0.5-2-0.4-2.4,0.3c-0.4,0.7-0.1,1.6,0.7,2.1
			c-0.6,0.1-1.4-0.8-1.4-0.8c-0.3,0.6,0.3,1,0.8,1.1c-0.1,0-0.1,0.1-0.2,0.2c-0.5-0.1-0.6,0.1-0.6,0.1c-0.1,0-1.1-1.1-1.8-1.9
			l0.7-0.1c-0.5-1.1-1.8-1.3-2.7-2c-0.7-0.5,0.1-0.7,0.3-0.6c1.6,1.4,3.1,0.4,3.1,0.4c-1.2-0.4-1.7-1.7-1.7-1.7
			c2.4,1.4,4.2-0.2,4.2-0.2c-1.6,0.3-2.8-1.2-2.8-1.2c2.5,0.6,4.2-1.1,4.2-1.1c-0.9,0.1-3.2-0.9-3.2-0.9c3.6-0.1,3.9-2.7,4-2.7
			c-1,0.7-3.7,0.3-3.7,0.3c3.8-1.3,3.5-4.5,3.5-4.5c-0.8,1.2-4.5,2.3-4.5,2.3c-1,0.3-1.8,1.2-1.8,2.2c0,0.4-0.4,0.8-0.9,0.8
			c-1,0-1-1.4-1-2.1c0-1,0-2.2-0.8-2.2h-1.4c-0.3,0-0.7,0-0.9,0.2c-0.4,0.4-0.3,1.6-0.1,1.3c0,0,0.6-0.2,0.9,0
			c0.5,0.1,0.1,1.6,0.1,1.9c0,0.4-0.4,0.8-0.9,0.8c-0.4,0-0.8-0.3-0.9-0.8c0-1-0.8-1.9-1.8-2.2c0,0-3.8-1.2-4.5-2.3
			c0,0-0.3,3.2,3.5,4.5C20.9,22.1,18.2,22.3,17.2,21.7z M18.4,32.3c-0.4-0.7-0.4-1.5-0.1-1.7c0.4-0.2,1,0.2,1.5,0.8
			c0.5,0.7,0.4,1.2,0,1.4C19.5,33.1,18.9,33,18.4,32.3z M33.3,31.5c0.4-0.7,1.1-1,1.5-0.8c0.4,0.2,0.4,1-0.1,1.7
			c-0.5,0.7-1,0.8-1.4,0.6C32.9,32.7,32.8,32.1,33.3,31.5z M25.6,19.5c0-0.2,0.2-0.4,0.4-0.4c0.2,0,0.4,0.2,0.4,0.4
			c0,0.2-0.2,0.3-0.4,0.3C25.7,19.8,25.6,19.7,25.6,19.5z"/>
		<path class="st0" d="M18,30.6c0.1,0.1,0.5-0.2,0.5-0.3c-0.1-0.2,0-0.7,0.4-0.8v-0.2c0,0-0.6,0-0.7,0.4c0,0-0.5-0.5-0.6-0.5
			c-0.1,0.1,0.1,0.7,0.1,0.7C17.2,30,17,30.5,17,30.5l0.1,0.1C17.3,30.3,17.8,30.4,18,30.6z"/>
		<path class="st0" d="M30.3,34.7c-0.4-0.3-0.8-0.5-1.2-0.5c0,0.5,0.1,0.9,0.4,1.3c0.3,0.4,0.8,0.6,1.2,0.6
			C30.7,35.6,30.6,35.1,30.3,34.7z"/>
		<path class="st0" d="M22.4,36.1c0.4,0,0.9-0.2,1.2-0.6c0.4-0.4,0.5-0.8,0.4-1.3c-0.4,0-0.8,0.2-1.2,0.5
			C22.5,35.1,22.3,35.6,22.4,36.1z"/>
		<polygon class="st0" points="27.4,18.3 28.2,17.1 27,17.6 26.5,16.4 26,17.6 24.8,17.1 25.6,18.3 		"/>
		<path class="st0" d="M17.2,43.9c3.4,0,6.4,0.5,9.3,2.3c2.9-1.8,5.9-2.3,9.3-2.3c3.5,0,6.4-2.7,6.4-6.2V9.6
			c-4.9,2.6-10.8,2.6-15.7,0c-4.9,2.6-10.8,2.5-15.7,0v28.1C10.8,41.1,13.7,43.9,17.2,43.9z M23,42.4c-0.2,0-0.7,0.2-0.6,0.6h-0.1
			c0,0-0.2-0.5,0.1-0.7c0,0-0.6-0.3-0.6-0.4c0-0.1,0.7-0.1,0.7-0.1c-0.2-0.3,0.2-0.7,0.2-0.7l0.1,0.1c-0.2,0.3,0.1,0.7,0.3,0.7
			C23.2,41.9,23.1,42.4,23,42.4z M30.4,43.4c-0.4-0.3-0.8-0.4-1.2-0.5c0,0.4-0.2,0.7-0.4,1c-0.3,0.3-0.7,0.5-1.1,0.5
			c0-0.4,0.2-0.9,0.4-1.2c0.1-0.1,0.3-0.2,0.4-0.3c-0.7,0.1-1.3,0.4-2.1,0.3c0.1,1.3-0.8,1.1-0.8,1.1c0.1-0.3,0.4-0.8,0.3-1.4
			c-0.2,0.8-0.9,1.4-1.7,1.3c-0.8-0.2-1.2-1-1-1.9c0.2-0.9,1-1.5,1.7-1.4c0.7,0.2,1.2,1,1,1.8c0.4-0.4,0.4-1.3,0.4-1.3
			c0.7,0.2,0.4,1,0.2,1.4c0.3,0.1,0.6,0.1,1.3-0.1c1.1-0.3,2.6-0.1,3.2,0.3L30.4,43.4z M40.6,37.2c-0.2-0.3-0.7-0.2-0.8,0
			c0,0.1-0.5-0.2-0.4-0.3c0.1-0.2,0.1-0.7-0.3-0.7l0-0.1c0,0,0.5,0,0.6,0.3c0,0,0.4-0.5,0.6-0.4c0.1,0.1-0.2,0.7-0.2,0.7
			c0.4-0.1,0.6,0.4,0.6,0.4L40.6,37.2z M39.2,14c0,0,0.1-0.6,0.2-0.6c0.1,0,0.3,0.6,0.3,0.6c0.2-0.2,0.7,0,0.7,0l0,0.1
			c-0.4-0.2-0.7,0.2-0.6,0.4c0,0.1-0.5,0.2-0.5,0c0-0.2-0.4-0.5-0.7-0.4l0-0.1C38.4,14.1,38.8,13.7,39.2,14z M39.5,14.8
			c1-0.1,1.8,0.5,1.9,1.2c0,0.7-0.6,1.3-1.5,1.4c0.5,0.2,1.1,0,1.4-0.1c0,0,0.1,0.9-1.3,0.6c0.1,0.7-0.4,1.3-0.6,2
			c0.1-0.1,0.2-0.3,0.4-0.4c0.4-0.2,0.9-0.3,1.3-0.2c0,0.3-0.3,0.7-0.6,1c-0.4,0.2-0.8,0.3-1.1,0.3c0,0.3,0.1,0.7,0.3,1.2l-0.6,0.5
			c-0.3-0.6-0.4-2,0.1-3c0.3-0.7,0.4-0.9,0.4-1.2c-0.4,0.2-1.3,0.4-1.4-0.4c0,0,1,0.2,1.4-0.2c-0.9,0-1.6-0.5-1.7-1.2
			C37.8,15.5,38.5,14.8,39.5,14.8z M40.5,25.4l0,0.1c-0.4-0.2-0.7,0.2-0.7,0.4c0,0.1-0.5,0.1-0.5,0c0-0.2-0.3-0.6-0.6-0.4l0-0.1
			c0,0,0.5-0.3,0.7,0c0,0,0.2-0.6,0.3-0.6c0.1,0,0.2,0.6,0.2,0.6C40.1,25.1,40.5,25.4,40.5,25.4z M39.5,26.1c1,0.1,1.7,0.7,1.6,1.5
			c-0.1,0.7-0.9,1.2-1.8,1.2c0.4,0.4,1.5,0.2,1.5,0.2c-0.1,0.7-1,0.5-1.4,0.4c0,0.3,0,0.5,0.4,1.2c0.1,0.1,0.1,0.2,0.2,0.4
			c0-0.2,0.2-0.5,0.4-0.7c0.3-0.3,0.8-0.5,1.2-0.4c0,0.3-0.1,0.7-0.4,1c-0.3,0.3-0.7,0.4-1.1,0.4c0.2,0.9,0.1,1.8-0.2,2.3L39.2,33
			c1-1.9-0.4-2.6-0.3-3.8c-1.4,0.3-1.2-0.6-1.2-0.6c0.3,0.1,0.9,0.3,1.5,0.1c-0.9-0.1-1.6-0.7-1.5-1.4C37.7,26.6,38.5,26,39.5,26.1z
			 M39.5,37.2c0.8,0.5,1.1,1.4,0.7,2c-0.4,0.6-1.3,0.7-2.1,0.3c0.3,0.5,0.9,0.7,1.2,0.8c0,0-0.5,0.8-1.4-0.2
			c-0.4,0.6-1.1,0.8-1.7,1.2c0.2,0,0.3-0.1,0.5,0c0.5,0,0.9,0.2,1.2,0.5c-0.3,0.3-0.7,0.5-1.2,0.4c-0.4,0-0.8-0.2-1.1-0.4
			c-0.2,0.3-0.4,0.6-0.5,1.1l-0.8,0c0.2-0.7,1-1.9,2-2.4c0.7-0.3,0.9-0.5,1-0.8c-0.4-0.1-1.3-0.5-0.9-1.1c0,0,0.7,0.7,1.3,0.7
			c-0.7-0.5-1-1.4-0.6-2C37.7,36.8,38.7,36.7,39.5,37.2z M30.2,12.1c0.7,0,1.3,0.7,1.3,1.6c0.3-0.5,0.1-1.1,0-1.4c0,0,0.9,0,0.6,1.2
			c0.7,0,1.2,0.5,1.9,0.7c-0.1-0.1-0.2-0.2-0.3-0.4c-0.2-0.4-0.3-0.8-0.2-1.3c0.4,0.1,0.8,0.3,1,0.7c0.2,0.4,0.3,0.8,0.2,1.1
			c0.3,0,0.8,0,1.2-0.2l0.5,0.7c-0.7,0.2-2.2,0.2-3.2-0.3c-0.6-0.3-0.9-0.4-1.2-0.4c0.1,0.4,0.2,1.3-0.5,1.3c0,0,0.2-1-0.1-1.4
			c0,0.9-0.7,1.6-1.4,1.6c-0.8,0-1.4-0.8-1.3-1.7C28.8,12.9,29.4,12.1,30.2,12.1z M28,13.5c-0.2-0.3,0.1-0.7,0.1-0.7l0.1,0
			c-0.2,0.3,0.2,0.7,0.4,0.7c0.1,0,0.1,0.5,0,0.5c-0.2,0-0.6,0.3-0.5,0.7H28c0,0-0.3-0.4,0-0.7c0,0-0.6-0.1-0.6-0.2
			C27.3,13.7,28,13.5,28,13.5z M24.7,13.5c0.2,0,0.6-0.3,0.4-0.7l0.1,0c0,0,0.3,0.4,0.1,0.7c0,0,0.7,0.1,0.7,0.2
			c0,0.1-0.6,0.2-0.6,0.2c0.2,0.3,0,0.7,0,0.7h-0.1c0.1-0.4-0.2-0.7-0.5-0.7C24.5,14,24.5,13.5,24.7,13.5z M17.2,14.1
			c0.5,0.2,0.9,0.2,1.2,0.2c-0.1-0.4,0-0.7,0.2-1.1c0.2-0.4,0.6-0.6,1-0.7c0.1,0.4,0.1,0.9-0.2,1.3c-0.1,0.2-0.2,0.3-0.3,0.4
			c0.7-0.2,1.2-0.7,1.9-0.7c-0.4-1.3,0.6-1.2,0.6-1.2c0,0.3-0.2,0.9,0,1.4c0-0.9,0.6-1.6,1.3-1.6c0.8,0,1.4,0.7,1.4,1.7
			c0,0.9-0.6,1.7-1.3,1.7c-0.8,0-1.4-0.7-1.4-1.6c-0.3,0.4-0.1,1.4-0.1,1.4c-0.7,0-0.6-0.9-0.5-1.3c-0.3,0-0.5,0.1-1.2,0.4
			c-1,0.6-2.5,0.6-3.2,0.3L17.2,14.1z M26.6,15.1c2.4,1.3,7.9,2.1,10.5,0.8l0,18.9c0,2.2-2,4.1-4.4,4.1c-2.3,0-4.2,0.3-6.2,1.5
			c-2-1.3-3.9-1.5-6.2-1.5c-2.4,0-4.1-1.8-4.1-4.1l0-18.9C18.7,17.2,24.2,16.3,26.6,15.1z M15.4,39.4c0.5,0.1,1.3-0.7,1.3-0.7
			c0.4,0.6-0.5,1-0.9,1.1c0.1,0.2,0.4,0.4,1,0.8c1,0.5,1.8,1.7,2,2.4l-0.8,0c-0.1-0.5-0.3-0.8-0.5-1.1c-0.3,0.2-0.7,0.4-1.1,0.4
			c-0.5,0-0.9-0.2-1.2-0.4c0.3-0.3,0.7-0.5,1.2-0.5c0.2,0,0.4,0,0.5,0c-0.6-0.4-1.3-0.6-1.7-1.2c-0.9,1-1.4,0.2-1.4,0.2
			c0.3-0.1,0.9-0.3,1.3-0.8c-0.8,0.5-1.7,0.4-2.1-0.2c-0.4-0.6-0.1-1.5,0.7-2c0.8-0.5,1.8-0.4,2.2,0.2C16.4,38,16.2,38.9,15.4,39.4z
			 M13.6,13.9c0,0,0.2-0.6,0.3-0.6c0.1,0,0.2,0.6,0.2,0.6c0.3-0.2,0.7,0.1,0.7,0.1l0,0.1c-0.4-0.2-0.7,0.2-0.7,0.4
			c0,0.1-0.5,0.1-0.5,0c0-0.2-0.3-0.6-0.6-0.4l0-0.1C12.9,14,13.4,13.7,13.6,13.9z M13.8,14.8c1,0,1.7,0.7,1.6,1.4
			c-0.1,0.7-0.8,1.2-1.7,1.2c0.5,0.3,1.4,0.2,1.4,0.2c-0.1,0.7-1,0.5-1.4,0.4c0,0.3,0,0.5,0.4,1.2c0.5,1,0.4,2.4,0.1,3l-0.6-0.5
			c0.2-0.5,0.3-0.8,0.3-1.2c-0.4,0-0.8-0.1-1.1-0.3c-0.4-0.2-0.6-0.6-0.6-1c0.4-0.1,0.9,0,1.3,0.2c0.1,0.1,0.3,0.2,0.4,0.3
			c-0.2-0.7-0.6-1.2-0.5-1.9c-1.4,0.3-1.2-0.6-1.2-0.6c0.3,0.1,0.9,0.3,1.4,0.1c-0.9-0.1-1.5-0.8-1.5-1.4
			C12,15.2,12.8,14.7,13.8,14.8z M14.7,25.3l0,0.1c-0.4-0.2-0.7,0.2-0.6,0.4c0,0.1-0.5,0.2-0.5,0c0-0.2-0.4-0.5-0.7-0.4l0-0.1
			c0,0,0.4-0.3,0.7-0.1c0,0,0.1-0.6,0.2-0.6c0.1,0,0.3,0.6,0.3,0.6C14.2,25,14.7,25.3,14.7,25.3z M11.7,29.8c0.4,0,0.9,0.1,1.2,0.4
			c0.2,0.2,0.4,0.4,0.4,0.7c0-0.1,0.1-0.2,0.2-0.4c0.3-0.7,0.4-0.9,0.3-1.2c-0.4,0.2-1.3,0.4-1.4-0.4c0,0,1,0.2,1.5-0.2
			c-0.9,0-1.7-0.5-1.8-1.2c0-0.7,0.7-1.4,1.6-1.5c1,0,1.8,0.5,1.9,1.2c0,0.7-0.6,1.3-1.5,1.4c0.6,0.2,1.2,0,1.5-0.1
			c0,0,0.1,0.9-1.3,0.6c0.1,1.2-1.2,1.9-0.3,3.8l-0.6,0.5c-0.2-0.5-0.4-1.4-0.2-2.3c-0.4,0-0.9-0.1-1.1-0.4
			C11.8,30.5,11.6,30.1,11.7,29.8z M12.6,37.1c0,0,0.2-0.5,0.6-0.4c0,0-0.3-0.6-0.2-0.7c0.1-0.1,0.6,0.4,0.6,0.4
			c0.1-0.3,0.6-0.3,0.6-0.3l0,0.1c-0.4,0.1-0.5,0.5-0.4,0.7c0.1,0.1-0.4,0.3-0.4,0.3C13.4,37,12.9,36.8,12.6,37.1L12.6,37.1z"/>
		<path class="st0" d="M193.5,34.7c0-2.9-2.4-5.2-5.3-5.2h-6.3v16.7h6.9c2.9,0,5.3-2.3,5.3-5.2c0-1.3-0.5-2.5-1.4-3.5
			C193.2,36.7,193.5,35.7,193.5,34.7z M186.1,33.2h2.1c0.9,0,1.6,0.7,1.6,1.6s-0.7,1.6-1.6,1.6h-2.1V33.2z M188.8,42.6h-2.6v-3.2
			h2.1h0.6c0.9,0,1.6,0.7,1.6,1.6C190.4,41.9,189.7,42.6,188.8,42.6z"/>
		<path class="st0" d="M203.1,29.2c-4.6,0-8.4,3.9-8.4,8.7c0,4.8,3.8,8.7,8.4,8.7c4.7,0,8.4-3.9,8.4-8.7
			C211.6,33.1,207.8,29.2,203.1,29.2z M203.1,42.1c-2.1,0-3.9-1.9-3.9-4.2c0-2.3,1.7-4.2,3.9-4.2c2.1,0,3.9,1.9,3.9,4.2
			C207,40.3,205.3,42.1,203.1,42.1z"/>
		<path class="st0" d="M221.9,40.5h2v0.9c-0.7,0.5-1.6,0.7-2.5,0.7c-2.5,0-4.5-1.9-4.5-4.2c0-2.3,2-4.2,4.5-4.2
			c1.2,0,2.3,0.4,3.1,1.2l0.4,0.4L228,32l-0.4-0.4c-1.7-1.5-3.9-2.4-6.2-2.4c-5,0-9,3.9-9,8.7c0,4.8,4,8.7,9,8.7
			c0.8,0,1.7-0.1,2.5-0.3v0h4.5V36h-6.5V40.5z"/>
		<polygon class="st0" points="262.2,29.3 246.6,29.3 246.6,34.4 251.7,34.4 251.7,46.4 257.1,46.4 257.1,34.4 262.2,34.4 		"/>
		<polygon class="st0" points="275.7,26.1 266.5,26.1 258.9,46.3 264.5,46.3 271.1,29.7 280.4,53.5 286,53.5 		"/>
		<path class="st0" d="M245.3,33.8c-1.4-2.7-4.2-4.6-7.4-4.6c-4.6,0-8.4,3.9-8.4,8.7c0,4.8,3.8,8.7,8.4,8.7c4.6,0,8.4-3.9,8.4-8.7
			C246.3,36.5,246,35.1,245.3,33.8L245.3,33.8z M237.9,42.1c-2.1,0-3.9-1.9-3.9-4.2c0-2.3,1.7-4.2,3.9-4.2c2.1,0,3.9,1.9,3.9,4.2
			C241.8,40.3,240,42.1,237.9,42.1z"/>
		<polygon class="st0" points="261.8,23.3 273.1,19.2 281.4,26.1 278.1,17.3 283.1,15.2 276.4,12.8 272.1,1.3 267.6,9.8 258.5,7.9 
			264.9,14.9 		"/>
		<polygon class="st0" points="255.4,20.2 258.1,18.5 260.1,20.1 259.2,17.7 261.3,16.4 258.8,15.9 258.1,13.4 257.1,15.5 
			253.4,14.7 256.3,17.7 		"/>
		<polygon class="st0" points="277.6,7.8 280.3,6 282.5,7.7 281.6,5.2 283.7,3.8 281.2,3.3 280.4,0.7 279.2,2.9 275.5,2.1 
			278.5,5.2 		"/>
		<rect x="165.3" y="9.4" class="st0" width="1" height="53.1"/>
		<rect x="68.4" y="9.4" class="st0" width="1" height="53.1"/>
		<path class="st0" d="M100.5,40.2c-0.4-0.3-0.7-0.6-0.9-0.8c-0.3-0.2-0.6-0.4-1.1-0.6c-1.1-0.6-1.7-1.3-1.7-2.1
			c0-0.5,0.1-0.9,0.5-1.2s0.7-0.5,1.3-0.5c0.3,0,0.7,0.1,1.1,0.2s0.7,0.3,1,0.5l0.8-2c-0.9-0.6-1.8-0.9-2.9-0.9
			c-1.2,0-2.2,0.4-2.9,1.1c-0.7,0.7-1.1,1.6-1.1,2.7c0,0.5,0.1,1,0.3,1.4c0.2,0.4,0.4,0.8,0.7,1.1c0.3,0.3,0.6,0.6,0.9,0.8
			c0.3,0.2,0.7,0.5,1,0.7c0.3,0.2,0.6,0.4,0.9,0.6s0.5,0.4,0.7,0.7c0.2,0.3,0.3,0.6,0.3,0.9c0,0.5-0.2,0.9-0.5,1.2
			c-0.3,0.3-0.7,0.5-1.2,0.5c-0.9,0-1.6-0.4-2.3-1.1l-1.1,2c1,0.9,2.1,1.3,3.5,1.3c1.2,0,2.2-0.4,2.9-1.1c0.7-0.7,1-1.7,1-2.8
			c0-0.5-0.1-1-0.3-1.5C101.1,41,100.9,40.6,100.5,40.2z"/>
		<path class="st0" d="M105.6,33.2l-3.5,13.3h2.3l0.8-3.4h3.3l0.8,3.4h2.3l-3.5-13.3H105.6z M105.6,41.1l0.9-3.6
			c0.1-0.6,0.3-1.3,0.4-2.1h0.1l0.4,2.1l0.8,3.6H105.6z"/>
		<polygon class="st0" points="115.2,33.2 112.9,33.2 112.9,46.5 119.5,46.5 119.5,44.5 115.2,44.5 		"/>
		<path class="st0" d="M126.6,42.2c0,1.6-0.7,2.4-2,2.4c-1.3,0-2-0.8-2-2.4v-9h-2.3v9c0,1.4,0.4,2.5,1.1,3.3
			c0.8,0.8,1.8,1.2,3.1,1.2c1.3,0,2.3-0.4,3.1-1.2c0.8-0.8,1.2-1.9,1.2-3.3v-9h-2.3V42.2z"/>
		<path class="st0" d="M134.9,33.2h-3.7v13.3h3.7c1.7,0,3-0.6,3.9-1.8c1-1.2,1.4-2.8,1.4-4.9c0-2.1-0.5-3.7-1.4-4.9
			C137.9,33.8,136.5,33.2,134.9,33.2z M137.1,43.2c-0.5,0.8-1.3,1.2-2.3,1.2h-1.3v-9.2h1.3c1,0,1.7,0.4,2.3,1.2s0.8,1.9,0.8,3.4
			C137.9,41.3,137.6,42.4,137.1,43.2z"/>
		<path class="st0" d="M90.9,24.4c-0.2-0.2-0.4-0.3-0.5-0.4c-0.2-0.1-0.4-0.2-0.6-0.4c-0.6-0.4-0.9-0.7-0.9-1.2
			c0-0.3,0.1-0.5,0.3-0.7s0.4-0.3,0.7-0.3c0.2,0,0.4,0,0.6,0.1c0.2,0.1,0.4,0.2,0.5,0.3l0.5-1.1c-0.5-0.3-1-0.5-1.6-0.5
			c-0.7,0-1.2,0.2-1.6,0.6s-0.6,0.9-0.6,1.5c0,0.3,0,0.6,0.1,0.8c0.1,0.2,0.2,0.4,0.4,0.6c0.2,0.2,0.3,0.3,0.5,0.4
			c0.2,0.1,0.4,0.3,0.6,0.4c0.2,0.1,0.4,0.2,0.5,0.3c0.2,0.1,0.3,0.2,0.4,0.4c0.1,0.2,0.1,0.3,0.1,0.5c0,0.3-0.1,0.5-0.2,0.7
			s-0.4,0.3-0.7,0.3c-0.5,0-0.9-0.2-1.3-0.6l-0.6,1.1c0.5,0.5,1.2,0.7,1.9,0.7c0.7,0,1.2-0.2,1.6-0.6c0.4-0.4,0.6-0.9,0.6-1.5
			c0-0.3,0-0.6-0.1-0.8C91.2,24.8,91.1,24.6,90.9,24.4z"/>
		<polygon class="st0" points="96.1,26.7 93.7,26.7 93.7,24.7 95.5,24.7 95.5,23.6 93.7,23.6 93.7,21.6 95.9,21.6 95.9,20.5 
			92.4,20.5 92.4,27.9 96.1,27.9 		"/>
		<path class="st0" d="M99.9,26.8c-0.6,0-1.1-0.3-1.4-0.8c-0.4-0.5-0.5-1.2-0.5-1.9c0-0.7,0.2-1.3,0.5-1.8c0.4-0.5,0.8-0.7,1.5-0.7
			c0.2,0,0.5,0,0.7,0.1s0.4,0.2,0.5,0.4l0.5-1.1c-0.5-0.4-1.1-0.6-1.8-0.6c-1,0-1.8,0.4-2.4,1.1c-0.6,0.7-0.9,1.6-0.9,2.7
			c0,1.1,0.3,2,0.8,2.8c0.6,0.7,1.3,1.1,2.3,1.1c0.8,0,1.5-0.2,2-0.7l-0.5-1.1C100.8,26.6,100.3,26.8,99.9,26.8z"/>
		<path class="st0" d="M103.8,25.1h0.8l1.1,2.8h1.4l-1.2-2.7c-0.1-0.2-0.1-0.3-0.2-0.4v0c0.3-0.2,0.6-0.5,0.8-0.8
			c0.2-0.4,0.3-0.8,0.3-1.2c0-0.5-0.1-0.9-0.3-1.2c-0.2-0.3-0.5-0.6-0.8-0.8c-0.3-0.2-0.6-0.2-1-0.2h-2.1v7.4h1.3V25.1z M103.8,21.6
			h0.7c0.2,0,0.4,0.1,0.6,0.2c0.3,0.2,0.4,0.5,0.4,1c0,0.4-0.1,0.7-0.3,0.9c-0.2,0.2-0.4,0.3-0.7,0.3h-0.7V21.6z"/>
		<polygon class="st0" points="111.6,26.7 109.2,26.7 109.2,24.7 111,24.7 111,23.6 109.2,23.6 109.2,21.6 111.5,21.6 111.5,20.5 
			108,20.5 108,27.9 111.6,27.9 		"/>
		<polygon class="st0" points="113.8,27.9 115.1,27.9 115.1,21.6 116.8,21.6 116.8,20.5 112,20.5 112,21.6 113.8,21.6 		"/>
		<path class="st0" d="M121.7,27.9l-1.9-7.4h-1.4l-1.9,7.4h1.3l0.4-1.9h1.8l0.5,1.9H121.7z M118.4,24.9l0.5-2
			c0.1-0.3,0.1-0.7,0.2-1.1h0l0.2,1.1l0.5,2H118.4z"/>
		<path class="st0" d="M123.7,25.1h0.8l1.1,2.8h1.4l-1.2-2.7c-0.1-0.2-0.1-0.3-0.2-0.4v0c0.3-0.2,0.6-0.5,0.8-0.8
			c0.2-0.4,0.3-0.8,0.3-1.2c0-0.5-0.1-0.9-0.3-1.2c-0.2-0.3-0.5-0.6-0.8-0.8c-0.3-0.2-0.6-0.2-1-0.2h-2.1v7.4h1.3V25.1z M123.7,21.6
			h0.7c0.2,0,0.4,0.1,0.6,0.2c0.3,0.2,0.4,0.5,0.4,1c0,0.4-0.1,0.7-0.3,0.9c-0.2,0.2-0.4,0.3-0.7,0.3h-0.7V21.6z"/>
		<polygon class="st0" points="129.8,18.6 128.6,18.6 127.9,20 128.9,20 		"/>
		<rect x="127.8" y="20.5" class="st0" width="1.3" height="7.4"/>
		<path class="st0" d="M133.3,26l0.5,1.9h1.3l-1.9-7.4h-1.4l-1.9,7.4h1.3l0.4-1.9H133.3z M132.2,22.9c0.1-0.3,0.1-0.7,0.2-1.1h0
			l0.2,1.1l0.5,2h-1.4L132.2,22.9z"/>
		<path class="st0" d="M139.7,20.5h-2.1v7.4h2.1c0.9,0,1.6-0.3,2.2-1c0.5-0.7,0.8-1.6,0.8-2.7c0-1.2-0.3-2.1-0.8-2.7
			C141.3,20.8,140.6,20.5,139.7,20.5z M140.9,26.1c-0.3,0.4-0.7,0.7-1.3,0.7h-0.7v-5.1h0.7c0.5,0,1,0.2,1.3,0.7
			c0.3,0.4,0.5,1.1,0.5,1.9C141.3,25,141.2,25.6,140.9,26.1z"/>
		<polygon class="st0" points="144.9,24.7 146.8,24.7 146.8,23.6 144.9,23.6 144.9,21.6 147.2,21.6 147.2,20.5 143.7,20.5 
			143.7,27.9 147.3,27.9 147.3,26.7 144.9,26.7 		"/>
	</g>
</g>
</svg>
