<?xml version="1.0" encoding="utf-8"?>
<!-- Generator: Adobe Illustrator 23.0.0, SVG Export Plug-In . SVG Version: 6.00 Build 0)  -->
<svg version="1.1" id="Capa_1" xmlns="http://www.w3.org/2000/svg" xmlns:xlink="http://www.w3.org/1999/xlink" x="0px" y="0px"
	 viewBox="0 0 250 110.4" style="enable-background:new 0 0 250 110.4;" xml:space="preserve">
<style type="text/css">
	.st0{fill:#2ABDE2;}
	.st1{fill:#2194D2;}
	.st2{fill:#5DBB48;}
	.st3{fill:#E5B72F;}
	.st4{fill:#C4212E;}
	.st5{fill:#49A046;}
	.st6{fill:#3D8045;}
	.st7{fill:#F9C21A;}
	.st8{fill:#EF4427;}
	.st9{fill:#F89D27;}
	.st10{fill:#A11C44;}
	.st11{fill:#F26B2D;}
	.st12{fill:#E7223D;}
	.st13{fill:#DB1869;}
	.st14{fill:#1C597C;}
	.st15{fill:#C4982E;}
	.st16{fill:#157DAE;}
</style>
<g transform="matrix(.44396299 0 0 .44396299 -125.99226 63.736165)">
	<path class="st0" d="M292.7-38h20.2c16.3,0,25.9,9.6,25.9,26.9s-11.9,26.9-25.6,26.9h-20.5V-38z M312.5,6.6
		c11,0,15.1-9.4,15.1-17.8c0-9-3.9-17.6-16-17.6h-8.2V6.6H312.5z"/>
	<path class="st0" d="M344.2-38h34.3v9.6h-23.6v12.2h22.9v9.6h-22.9V6.1h23.6v9.6h-34.3V-38z"/>
	<path class="st0" d="M399.5-38h20.2c16.3,0,25.9,9.6,25.9,26.9S433.7,15.7,420,15.7h-20.5L399.5-38z M419.3,6.6
		c11,0,15.1-9.4,15.1-17.8c0-9-3.9-17.6-16-17.6h-8.2V6.6H419.3z"/>
	<path class="st0" d="M451-38h34.3v9.6h-23.5v12.2h22.9v9.6h-22.9V6.1h23.6v9.6H451L451-38z"/>
	<path class="st0" d="M516.6-23.9c0-3.7-3.6-6-7.9-6c-5.4,0-8.6,2.4-8.6,5.9s3.6,5.5,6.2,6.4l9.9,3.1c7.2,2.3,12.2,6.4,12.2,14.7
		c0,6.6-4.7,16.4-19.6,16.4c-18.6,0-20.4-12.1-20.4-16.9l10.7-0.2c0,5.7,4.5,7.9,9.7,7.9c3.6,0,8.8-1.8,8.8-5.9
		c0-2.9-1.2-4.4-6.5-6.3l-11.7-4.2c-5.9-2.1-10.1-7.4-10.1-13.4c0-6.8,4.7-16.7,18.6-16.7c16.6,0,19.2,11,19.2,14.9L516.6-23.9z"/>
	<path class="st0" d="M563.7,4.5H544l-3.5,11.2h-11.6L548.5-38h11.3l19.3,53.7h-11.8L563.7,4.5z M553.9-25.1h-0.1L547-4.2h13.8
		L553.9-25.1z"/>
	<path class="st0" d="M598.7-5.5h-6.3v21.2h-10.7V-38h20.1c11.3,0,17.7,7.1,17.7,16c0,5.6-3.1,13-10,15.1l12.5,22.6h-12.8L598.7-5.5
		z M599.5-14.2c7.3,0,9.2-3.9,9.2-7.3c0-3.9-1.9-7.3-9.6-7.3h-6.8v14.6H599.5z"/>
	<path class="st0" d="M642.2-5.5h-6.3v21.2h-10.7V-38h20.1c11.3,0,17.7,7.1,17.7,16c0,5.6-3.1,13-10,15.1l12.5,22.6h-12.8L642.2-5.5
		z M643.1-14.2c7.4,0,9.2-3.9,9.2-7.3c0-3.9-1.9-7.3-9.6-7.3h-6.8v14.6H643.1z"/>
	<path class="st0" d="M692.6-39c16.7,0,26.1,13.4,26.1,27.9s-9.4,27.9-26.1,27.9s-26.2-13.4-26.2-27.9S675.8-39,692.6-39z
		 M692.6-29.4c-10,0-15,8.6-15,18.3s5,18.3,15,18.3s15-8.6,15-18.3S702.6-29.4,692.6-29.4z"/>
	<path class="st0" d="M724.1-38h10.7V5.7h20.7v10h-31.4L724.1-38z"/>
	<path class="st0" d="M759.8-38h10.7V5.7h20.7v10h-31.4L759.8-38z"/>
	<path class="st0" d="M819.2-39c16.7,0,26.2,13.4,26.2,27.9s-9.4,27.9-26.2,27.9S793,3.3,793-11.2S802.5-39,819.2-39z M819.2-29.4
		c-10,0-15,8.6-15,18.3s5,18.3,15,18.3s15-8.6,15-18.3S829.2-29.4,819.2-29.4z"/>
</g>
<g transform="matrix(.44396299 0 0 .44396299 -125.99226 63.736165)">
	<path class="st0" d="M328.8,49.9c0-5.1-4.9-8.1-10.7-8.1c-7.3,0-11.6,3.2-11.6,8c0,5.1,4.9,7.5,8.4,8.6l13.4,4.3
		c9.7,3.1,16.6,8.7,16.6,20c0,8.9-6.4,22.3-26.6,22.3c-25.3,0-27.7-16.4-27.7-22.9l14.5-0.3c0,7.8,6.1,10.8,13.2,10.8
		c5,0,11.9-2.4,11.9-8.1c0-3.9-1.6-5.9-8.8-8.5l-15.9-5.7c-8-2.9-13.7-10-13.7-18.2c0-9.3,6.4-22.7,25.3-22.7
		c22.5,0,26.1,15,26.1,20.3L328.8,49.9z"/>
	<path class="st0" d="M385,29.3c22.7,0,35.5,18.3,35.5,37.9S407.7,105,385,105s-35.5-18.3-35.5-37.9S362.2,29.3,385,29.3z M385,42.3
		c-13.6,0-20.4,11.7-20.4,24.9S371.4,92,385,92s20.4-11.7,20.4-24.8S398.5,42.3,385,42.3L385,42.3z"/>
	<path class="st0" d="M463.2,49.9c0-5.1-4.9-8.1-10.7-8.1c-7.3,0-11.6,3.2-11.6,8c0,5.1,4.9,7.5,8.4,8.6l13.4,4.3
		c9.7,3.1,16.6,8.7,16.6,20c0,8.9-6.4,22.3-26.6,22.3c-25.3,0-27.7-16.4-27.7-22.9l14.6-0.3c0,7.8,6.1,10.8,13.2,10.8
		c5,0,11.9-2.4,11.9-8.1c0-3.9-1.6-5.9-8.8-8.5L440,70.3c-8-2.9-13.7-10-13.7-18.2c0-9.3,6.4-22.7,25.3-22.7
		c22.5,0,26.1,15,26.1,20.3L463.2,49.9z"/>
	<path class="st0" d="M501.3,43.7h-19.2v-13h53v13h-19.2v60h-14.6V43.7z"/>
	<path class="st0" d="M540.7,30.7h46.6v13h-32v16.6h31.2v13h-31.2v17.4h32v13h-46.6V30.7z"/>
	<path class="st0" d="M608.6,53.9h-0.2v49.8h-14v-73h15.6l29.6,49h0.2v-49h14v73h-15L608.6,53.9z"/>
	<path class="st0" d="M665.2,30.7h14.6v73h-14.6V30.7z"/>
	<path class="st0" d="M691.1,30.7H717c15.5,0,23.6,8,23.6,19.8c0,8.1-4.6,12.6-9.8,15v0.2c6.5,1.6,12.1,7.5,12.1,16.6
		c0,13.4-10.3,21.4-25.3,21.4h-26.5L691.1,30.7z M714.5,60.7c6.9,0,11.5-3.1,11.5-8.9c0-6-4.5-8.6-10.3-8.6h-10.1v17.6L714.5,60.7z
		 M715.3,91.3c9.2,0,12.5-4.1,12.5-9.2c0-4.7-2.9-9.5-11.3-9.5h-10.8v18.7H715.3z"/>
	<path class="st0" d="M750.3,30.7h14.6v59.4h28v13.6h-42.6V30.7z"/>
	<path class="st0" d="M798.8,30.7h46.6v13h-32v16.6h31.2v13h-31.2v17.4h32v13h-46.6L798.8,30.7z"/>
</g>
<g>
	<path class="st1" d="M39.1,0.7h13.2c7.9,0,12,4,12,10.1c0,4.1-2.3,6.4-5,7.6v0.1c3.3,0.8,6.2,3.8,6.2,8.4c0,6.8-5.2,10.9-12.9,10.9
		H39.1L39.1,0.7z M51,15.9c3.5,0,5.9-1.6,5.9-4.5c0-3.1-2.3-4.4-5.2-4.4h-5.1v8.9H51z M51.4,31.5c4.7,0,6.4-2.1,6.4-4.7
		c0-2.4-1.5-4.8-5.8-4.8h-5.5v9.5L51.4,31.5z"/>
	<path class="st1" d="M66.2,0.7h17v24.5c0,11.7-7,12.9-14.5,12.9h-2.4v-6.3h3.8c3.6,0,5.7-1.1,5.7-4.9V7.3h-9.6L66.2,0.7z"/>
	<path class="st1" d="M88,0.7h23.7v6.6H95.4v8.4h15.8v6.6H95.4v8.8h16.3v6.6H88V0.7z"/>
	<path class="st1" d="M122.5,7.3h-9.8V0.7h26.9v6.6h-9.8v30.5h-7.4V7.3z"/>
	<path class="st1" d="M142.8,0.7h7.4v37.1h-7.4V0.7z"/>
	<path class="st1" d="M176.1,0.7h8l-12,37.1h-7.8L152.2,0.7h8.1l7.9,27.3h0.1L176.1,0.7z"/>
	<path class="st1" d="M18.1,0c11.5,0,18.1,9.3,18.1,19.3s-6.5,19.3-18.1,19.3S0,29.2,0,19.2S6.5,0,18.1,0L18.1,0z M18.1,6.6
		c-6.9,0-10.4,6-10.4,12.6s3.5,12.6,10.4,12.6s10.4-6,10.4-12.6S25,6.6,18.1,6.6z"/>
	<path class="st1" d="M241.8,10.5c0-2.6-2.5-4.1-5.4-4.1c-3.7,0-5.9,1.6-5.9,4.1c0,2.6,2.5,3.8,4.3,4.4l6.8,2.2
		c4.9,1.6,8.4,4.4,8.4,10.2c0,4.5-3.3,11.4-13.5,11.4c-12.9,0-14.1-8.3-14.1-11.6l7.4-0.1c0,3.9,3.1,5.5,6.7,5.5
		c2.5,0,6.1-1.2,6.1-4.1c0-2-0.8-3-4.5-4.3l-8.1-2.9c-4.1-1.5-7-5.1-7-9.3C223,6.8,226.3,0,235.9,0c11.4,0,13.3,7.6,13.3,10.3
		L241.8,10.5z"/>
</g>
<g transform="matrix(.44396186 0 0 .44396186 -125.99143 63.736216)">
	<path class="st2" d="M716.6-110.6c1.1-1.9,2.4-3.6,3.9-5.1l-12.9-14.2c-3.3,3.1-6,6.7-8.2,10.7L716.6-110.6z"/>
	<path class="st3" d="M748.3-120.6c1.9,0.9,3.8,2,5.4,3.4l13-14.2c-3.4-3-7.3-5.4-11.5-7.2L748.3-120.6z"/>
	<path class="st4" d="M778-116.4l-17.2,8.6c0.8,1.9,1.4,4,1.7,6.1l19.1-1.8C781.1-108,779.8-112.3,778-116.4"/>
	<path class="st5" d="M759.5-110.3l17.2-8.6c-2.1-3.9-4.8-7.5-8-10.7l-13,14.1C757.2-113.8,758.5-112.1,759.5-110.3"/>
	<path class="st6" d="M713.2-98.1c0-0.4,0-0.8,0-1.2l-19.1-1.7c-0.1,1-0.1,1.9-0.1,2.9c0,3.6,0.4,7.2,1.3,10.6l18.5-5.3
		C713.3-94.5,713.1-96.3,713.2-98.1"/>
	<path class="st7" d="M757.1-82.3c-1.4,1.7-2.9,3.1-4.7,4.4l10.1,16.4c3.7-2.5,7.1-5.6,9.9-9.2L757.1-82.3z"/>
	<path class="st8" d="M762.8-98.1c0,1.8-0.2,3.5-0.6,5.3l18.5,5.3c0.9-3.5,1.3-7,1.3-10.6c0-0.9,0-1.8-0.1-2.7L762.8-99L762.8-98.1"
		/>
	<path class="st9" d="M719.1-82l-15.3,11.6c2.9,3.5,6.2,6.5,10,9l10.1-16.3C722.1-78.9,720.5-80.4,719.1-82"/>
	<path class="st1" d="M713.5-102c0.3-2.1,1-4.2,1.8-6.2l-17.2-8.5c-1.9,4.1-3.2,8.5-3.8,13L713.5-102z"/>
	<path class="st10" d="M760.2-60.1l-10.1-16.3c-1.9,1-3.8,1.8-5.9,2.4l3.6,18.9C752.2-56.2,756.4-57.9,760.2-60.1"/>
	<path class="st0" d="M761.5-90.1c-0.7,1.9-1.6,3.8-2.7,5.5L774.1-73c2.5-3.6,4.5-7.6,5.8-11.8L761.5-90.1z"/>
	<path class="st11" d="M741.5-73.5c-2.1,0.3-4.3,0.3-6.5,0.1l-3.5,18.8c4.5,0.7,9.1,0.6,13.6-0.1L741.5-73.5z"/>
	<path class="st12" d="M739.5-122.8c2.1,0.1,4.2,0.6,6.1,1.2l6.9-18c-4.2-1.5-8.6-2.3-13-2.5L739.5-122.8z"/>
	<path class="st13" d="M732.3-73.9c-2.1-0.5-4.2-1.3-6.1-2.3l-10.1,16.3c3.9,2.3,8.2,3.9,12.6,4.8L732.3-73.9z"/>
	<path class="st14" d="M730.5-121.7c2-0.6,4.1-1,6.3-1.1V-142c-4.5,0.1-9,1-13.2,2.4L730.5-121.7z"/>
	<path class="st15" d="M717.4-84.2c-1.2-1.8-2.2-3.8-2.9-5.9L696-84.8c1.4,4.4,3.5,8.5,6.1,12.2L717.4-84.2z"/>
	<path class="st16" d="M722.6-117.5c1.6-1.3,3.4-2.4,5.3-3.2l-6.9-17.9c-4.1,1.7-7.9,4.1-11.3,6.9L722.6-117.5z"/>
</g>
</svg>
