<?xml version="1.0" encoding="utf-8"?>
<!-- Generator: Adobe Illustrator 23.0.0, SVG Export Plug-In . SVG Version: 6.00 Build 0)  -->
<svg version="1.1" id="Capa_1" xmlns="http://www.w3.org/2000/svg" xmlns:xlink="http://www.w3.org/1999/xlink" x="0px" y="0px"
	 viewBox="0 0 1920 260" style="enable-background:new 0 0 1920 260;" xml:space="preserve">
<style type="text/css">
	.st0{fill:url(#SVGID_1_);}
	.st1{fill:url(#SVGID_2_);}
</style>
<g>
	<linearGradient id="SVGID_1_" gradientUnits="userSpaceOnUse" x1="4.0413" y1="2.0602" x2="2034.3392" y2="10.2304">
		<stop  offset="0" style="stop-color:#FFFAF0"/>
		<stop  offset="6.913787e-02" style="stop-color:#FFF5E6"/>
		<stop  offset="0.3375" style="stop-color:#FFE5C2"/>
		<stop  offset="0.5899" style="stop-color:#FFD9A9"/>
		<stop  offset="0.8179" style="stop-color:#FFD299"/>
		<stop  offset="1" style="stop-color:#FFCF94"/>
	</linearGradient>
	<path class="st0" d="M1886.6,0h-2.5c11.9,6.5,23.9,13,35.9,19.4v-1.3C1908.8,12.1,1897.7,6.1,1886.6,0z"/>
	<linearGradient id="SVGID_2_" gradientUnits="userSpaceOnUse" x1="3.5421" y1="126.1086" x2="2033.84" y2="134.2789">
		<stop  offset="0" style="stop-color:#FFFAF0"/>
		<stop  offset="6.913787e-02" style="stop-color:#FFF5E6"/>
		<stop  offset="0.3375" style="stop-color:#FFE5C2"/>
		<stop  offset="0.5899" style="stop-color:#FFD9A9"/>
		<stop  offset="0.8179" style="stop-color:#FFD299"/>
		<stop  offset="1" style="stop-color:#FFCF94"/>
	</linearGradient>
	<path class="st1" d="M1871.4,0h-1.4c6.7,10.9,13.4,21.7,20.1,32.6c-23.1,3.5-46.2,6.9-69.3,10c11.3-14.1,22.5-28.3,33.6-42.5h-1.5
		c-11,14.1-22,28.1-33.2,42c-0.7-1.6-2.5-2.7-4.5-2.6c-2,0.1-3.6,1.3-4.3,3c-31.1-6.1-62-12.6-92.9-19.6c0-0.1,0-0.2,0-0.3
		c0-0.2,0-0.4-0.1-0.5c32.7-6.9,65.3-14.2,97.8-22h-4.9c-31,7.4-62,14.3-93.2,20.9c-0.7-1.7-2.3-2.9-4.2-2.9c-2.5,0-4.5,2-4.5,4.5
		c0,1,0.3,1.9,0.9,2.7c-18.6,20.3-37.5,40.4-56.6,60.2c-0.7-0.5-1.6-0.7-2.6-0.7c-2,0-3.7,1.2-4.5,2.8c-22.4-5.2-44.7-10.6-67-16.2
		c0-0.2,0-0.3,0.1-0.5c0.1-2.4-1.9-4.4-4.5-4.5c-2.3,0-4.4,1.5-4.8,3.7c-35.9-22.6-71.4-46-106.4-70h-2
		c34.8,23.9,70.1,47.2,105.9,69.8c-37.6-4.3-75.2-9.1-112.6-14.6c-8.2-18.4-16.4-36.7-24.4-55.2h-1.3c8,18.3,16.1,36.7,24.3,55
		c-15-2.2-30.1-4.6-45.1-7c0.1-2.1-1.3-3.9-3.3-4.4c2.2-14.5,4.3-29,6.3-43.5h-1.2c-2.1,14.5-4.2,28.9-6.3,43.3
		c-2.4,0-4.4,1.8-4.6,4.1c0,0.1,0,0.2,0,0.3c-36.3,4.2-72.6,8-109,11.1c-0.1-0.4-0.2-0.8-0.4-1.1c27.6-18.8,54.9-38.1,82-57.7h-1.9
		c-26.6,19.3-53.5,38.3-80.7,56.8c-0.7-0.7-1.7-1.3-2.8-1.4c-1-0.1-2,0.1-2.9,0.6c-13.1-16.3-26.1-32.7-39-49.1
		c0.7-0.7,1.2-1.5,1.3-2.6c0.2-1.8-0.6-3.4-2.1-4.3h-4.7c-0.5,0.3-1,0.7-1.3,1.2c-0.8-0.4-1.6-0.8-2.4-1.2h-2.5
		c1.4,0.7,2.9,1.5,4.3,2.2c-0.1,0.3-0.2,0.6-0.2,0.9c0,0.3,0,0.6,0,0.8c-8.2,1.5-12.3,2.3-20.4,3.7c-2.5-2.6-4.9-5.1-7.4-7.7h-1.6
		c2.5,2.7,5.1,5.3,7.6,8c-35.3,6.2-70.7,11.9-106.1,17.1c-0.1-0.3-0.2-0.5-0.3-0.8c12.1-8,24.1-16.1,36.1-24.3h-2
		c-11.5,7.8-23.1,15.6-34.7,23.3c-0.7-0.7-1.6-1.2-2.6-1.4c-1.1-0.2-2.1,0-3,0.5c-3.1-4-4.6-5.9-7.7-9.9c9.7-4.1,19.4-8.3,29.1-12.5
		h-2.8c-9,3.9-17.9,7.8-27,11.6c-3-3.9-5.9-7.7-8.9-11.6h-1.4c3.1,4,6.1,8.1,9.2,12.1c-19.1,8-38.2,15.9-57.4,23.6
		c-0.2-0.5-0.5-0.9-0.9-1.3c8.4-11.4,16.6-22.9,24.9-34.3h-1.4c-8.1,11.3-16.2,22.5-24.4,33.6c-0.4-0.3-0.9-0.4-1.4-0.5
		c-2.3-0.4-4.5,0.8-5.2,2.9c-20.1-5.8-40.2-11.7-60.2-17.8c0-0.1,0.1-0.2,0.1-0.3c0.6-2.3-1-4.7-3.4-5.2c-1.6-0.3-3.2,0.2-4.2,1.2
		c-0.8,0.7-1.3,1.8-1.5,2.8c-25.5,0.8-51.1,1.3-76.6,1.6c-0.1-0.4-0.2-0.9-0.4-1.3c-1.1-2.2-3.8-3.1-6-2.1c-1.7,0.8-2.6,2.4-2.6,4.1
		c-5,1.2-7.5,1.8-12.6,3.1c-23.3,5.6-46.7,10.9-70.2,16.1c-1.1-2.2-3.7-3.1-6-2.1c-2.3,1-3.3,3.6-2.3,5.8c0.3,0.6,0.7,1.2,1.3,1.6
		c-13.3,19.6-26.7,39.2-40.3,58.6c-1.2-0.5-2.6-0.6-3.8-0.1c0,0,0,0,0,0c-6.5-10.2-12.9-20.5-19.2-30.8c0.6-0.8,1-1.7,1-2.7
		c0-2.5-2-4.5-4.5-4.5s-4.5,2-4.5,4.5c0,0.5,0.1,0.9,0.2,1.4c-27.9,15.4-56,30.4-84.3,45c-1.2-1.6-3.5-2.3-5.5-1.5
		c-1.1,0.4-1.9,1.1-2.4,2c-18.4-7-36.7-14.1-55-21.4c0.2-0.9,0.2-1.8-0.1-2.7c-0.9-2.3-3.6-3.5-6-2.7c-1.1,0.4-2,1.1-2.5,2.1
		c-30.1-10.9-60-22.1-89.8-33.7c0.2-0.8,0.2-1.7-0.1-2.5c-0.8-2.3-3.5-3.6-5.9-2.8c-2.4,0.8-3.7,3.3-2.9,5.6
		c0.3,0.9,0.9,1.7,1.7,2.2c-10,17.6-20.2,35.2-30.4,52.8c-1-0.4-2.1-0.4-3.2-0.1c-2.2,0.6-3.5,2.6-3.2,4.7
		c-50.4,11-101,20.8-151.8,29.5c0.1,0.2,0.1,0.3,0.1,0.6c-0.5-1.5-1.7-2.6-3.2-3.1c3.6-18.6,7.1-37.2,10.7-55.8c0.5,0,1,0,1.5-0.1
		c2.5-0.6,3.9-3,3.2-5.4c-0.7-2.4-3.3-3.8-5.8-3.2c-1.5,0.4-2.6,1.4-3.1,2.6c-42.5-10.9-84.9-22.5-127-35c0.1-0.5,0-1.1-0.1-1.6
		c-0.5-1.8-2-3.1-3.8-3.4c1-13.9,2-27.8,3.1-41.7h-1.2c-1,13.9-2.1,27.8-3.1,41.7c-0.2,0-0.5,0-0.7,0.1c-0.9,0.2-1.6,0.6-2.2,1.1
		c-16.4-12-32.6-24-48.8-36.2C95.8,4.4,101.9,2.2,108,0h-3.4c-5.3,1.9-10.7,3.9-16,5.8C86,3.9,83.5,1.9,81,0h-1.9
		c2.7,2.1,5.4,4.2,8.1,6.2c-28.9,10.2-58,20-87.2,29.4v1.2c29.6-9.5,59-19.5,88.3-29.8c16.4,12.4,32.8,24.6,49.4,36.7
		c-0.3,0.5-0.5,1-0.6,1.5C91.4,44.3,45.7,42.5,0,39.8V41c44.9,2.6,89.9,4.4,134.9,5.4c-19.7,2.9-39.4,5.7-59.1,8.3
		c-0.7-2.2-3.2-3.6-5.6-3.2c-1.7,0.3-3,1.5-3.5,3c-22.3-4.1-44.5-8.5-66.7-13v1.1c22.1,4.5,44.3,8.8,66.5,12.9c0,0.4,0,0.7,0.1,1.1
		c0.2,0.7,0.5,1.3,1,1.9c-9.7,9.3-19.5,18.6-29.3,27.9C25.5,74.2,12.7,61.9,0,49.5v1.6c12.4,12.1,24.9,24.1,37.5,36
		C25.1,98.8,12.6,110.4,0,121.9v1.7C12.9,111.8,25.7,99.9,38.4,88c6.4,6,12.7,12,19.1,17.9c-0.8,1-1.1,2.3-0.8,3.6
		c0.1,0.2,0.2,0.5,0.3,0.7c-18.9,9.3-37.9,18.4-57,27.4v1.3c19.3-9.1,38.5-18.3,57.6-27.7c0.6,0.7,1.3,1.2,2.1,1.5
		c-4.7,18.4-9.3,36.7-14,55.1c-15.3-2.5-30.5-5-45.7-7.7v1.2c15.1,2.6,30.3,5.2,45.5,7.7c-3.9,15.3-7.8,30.7-11.6,46
		c-0.5-0.1-1.1-0.1-1.6,0c-0.7,0.1-1.4,0.4-1.9,0.7C20.1,206.3,10,196.9,0,187.4v1.6c9.7,9.2,19.5,18.4,29.4,27.5
		c-0.9,1-1.2,2.3-0.8,3.7c0.6,2.4,3.3,4,6,3.6c0.6-0.1,1.1-0.3,1.5-0.5c11.1,12.3,22.4,24.5,33.7,36.7h1.6
		c-11.5-12.4-22.9-24.9-34.3-37.4c0.6-0.5,1-1.2,1.2-2c14.6,1.9,29.3,3.8,44,5.5c-1,11.3-2,22.6-3,33.9h1.3c1-11.3,2-22.5,3-33.7
		c10.7,1.2,21.3,2.4,32,3.6c0,0.3,0.1,0.6,0.2,0.9c0.2,0.7,0.6,1.3,1.1,1.8c-9.6,9.2-19.3,18.3-28.9,27.4h1.8
		c8.7-8.2,17.4-16.4,26-24.7c-6.1,8.3-12.2,16.5-18.3,24.7H99c6.5-8.7,13-17.5,19.4-26.2c0.9,0.4,1.8,0.6,2.8,0.5
		c2.7,8.6,5.4,17.2,8.1,25.7h1.3c-2.7-8.7-5.5-17.3-8.1-26c0.4-0.1,0.8-0.3,1.1-0.5c9.7,8.9,19.5,17.7,29.3,26.5h1.8
		c-10.1-9.1-20.1-18.1-30.1-27.3c0.3-0.4,0.6-0.8,0.8-1.3c31.1,6.4,62.3,12.3,93.5,18c0,0.4,0.1,0.9,0.2,1.3
		c0.4,1.2,1.3,2.2,2.4,2.8c-0.9,2.2-1.9,4.4-2.9,6.5h1.4c0.9-2,1.8-4,2.7-6.1c0.2,0,0.3,0.1,0.5,0.1c0,2,0,4,0,6h1.3
		c0-2,0-3.9,0-5.9c0.3,0,0.5-0.1,0.8-0.1c1.2-0.3,2.2-0.9,2.8-1.8c5.2,2.6,10.4,5.2,15.6,7.8h2.6c-5.9-2.9-11.8-5.9-17.6-8.9
		c0.3-0.8,0.3-1.7,0-2.5c-0.2-0.5-0.4-0.9-0.7-1.3c19.3-15.1,38.6-30.3,57.6-45.8c0.2,0.1,0.3,0.2,0.5,0.4
		c-10,19.4-20.2,38.8-30.4,58.1h1.4c10.1-19.2,20.2-38.4,30.1-57.6c0.7,0.2,1.5,0.3,2.3,0.2c6.4,19.2,13,38.3,19.7,57.4h1.3
		c-6.7-19.2-13.3-38.4-19.8-57.7c0.4-0.2,0.8-0.4,1.2-0.6c21.6,18.4,43.4,36.5,65.5,54.4c-1.1,1.3-2.2,2.6-3.2,3.9h1.6
		c0.9-1,1.7-2.1,2.6-3.1c1.3,1,2.6,2.1,3.9,3.1h1.9c-1.7-1.3-3.4-2.7-5-4c16.5-20.1,32.8-40.3,48.9-60.6c0.4,0.2,0.9,0.3,1.3,0.4
		c-0.2,6.9-0.4,10.4-0.6,17.3c-0.5,15.7-1,31.3-1.5,47h1.3c0.5-15.4,0.9-30.8,1.4-46.2c0.2-7.2,0.4-10.9,0.6-18.1
		c0.3,0,0.6-0.1,0.9-0.2c0.9-0.2,1.6-0.7,2.2-1.3c12.4,6.6,24.9,13.1,37.4,19.5c-8.4,15.5-16.9,30.9-25.4,46.2h1.4
		c8.4-15.2,16.8-30.4,25.1-45.7c10.8,5.5,21.6,11,32.4,16.4c-0.4,1-0.5,2.1,0,3.1c0.1,0.3,0.3,0.6,0.5,0.9
		c-10.9,8.5-21.8,16.9-32.8,25.3h2c10.6-8.1,21.2-16.2,31.7-24.4c1.3,1.1,3.2,1.5,4.9,1c0.6-0.2,1-0.4,1.5-0.7
		c9.5,8.1,19.1,16.1,28.6,24.1h1.8c-9.9-8.3-19.8-16.6-29.6-25c0.2-0.3,0.4-0.6,0.6-0.9c28.6,7.5,57.3,14.6,86,21.4
		c0,0.4,0,0.8,0,1.1c-4.6,1.1-9.3,2.2-13.9,3.3h5c3.1-0.7,6.2-1.5,9.3-2.2c0.5,1,1.3,1.7,2.3,2.2h4.6c2.1-1,3.1-3.3,2.2-5.4
		c0-0.1-0.1-0.2-0.1-0.3c32.2-18.6,64.1-37.6,95.8-57.2c0.3,0.3,0.6,0.6,1,0.8c-10.7,20.8-21.5,41.5-32.4,62.1h1.4
		c10.8-20.5,21.5-41,32.1-61.6c1.1,0.3,2.2,0.3,3.3-0.1c1-0.4,1.8-1,2.3-1.9c21,8.1,42,16,63.1,23.7c-0.2,0.9-0.2,1.9,0.3,2.9
		c1.1,2.2,3.9,3.3,6.4,2.3c1.7-0.7,2.7-2.2,2.8-3.7c20.6-1.2,41.2-2.5,61.7-4.1c0.1,0.3,0.2,0.6,0.3,0.9c1.1,2.2,4,3.2,6.4,2.2
		c2.4-1,3.4-3.7,2.3-5.9c-0.1-0.2-0.2-0.3-0.3-0.5c28.3-21.6,56.2-43.6,83.9-66c1.4,1.2,3.5,1.5,5.2,0.6c2.3-1.1,3.3-3.7,2.1-5.9
		c-0.8-1.4-2.2-2.3-3.8-2.4c-0.8-19.5-1.6-39.1-2.5-58.6c0.5-0.1,1-0.2,1.5-0.4c2.1-1,3-3.3,2.3-5.4c11.6-4.4,23.1-8.8,34.7-13.4
		c1.4,0.2,2.8-0.3,3.8-1.2c20.5,15.2,41.1,30.3,61.9,45.1c-0.2,0.4-0.4,0.8-0.5,1.3c-0.5,2.4,1.1,4.7,3.6,5.2
		c1.9,0.4,3.7-0.4,4.7-1.8c4.9,1.9,7.3,2.9,12.2,4.8c22.8,8.9,45.6,17.6,68.6,26c-0.4,2.3,1.3,4.6,3.8,5c2.5,0.4,5-1.2,5.4-3.6
		c0.1-0.7,0.1-1.4-0.1-2c22.8-9.2,45.6-18.7,68.2-28.3c0.7,1,2.3,1.6,3.2,2c0,0,0,0,0,0c-0.3,11.7-0.5,23.3-0.8,35
		c-2,0.4-3.5,2.2-3.5,4.4c0,2.5,2,4.5,4.5,4.5c2.1,0,3.8-1.4,4.3-3.3c33.1,0.4,66.1,0.4,99.2,0c0.3,1.9,1.9,3.5,4.1,3.7
		c1.1,0.1,2.2-0.2,3.1-0.7c12.9,14.1,25.8,28,38.9,41.9c-0.6,0.7-1.1,1.5-1.2,2.5c-0.3,2.4,1.6,4.6,4.2,4.8c1.2,0.1,2.4-0.2,3.3-0.9
		c18.4,17.8,37,35.5,55.8,52.9h1.8c-19.1-17.7-37.9-35.6-56.6-53.7c0.6-0.6,1-1.4,1.1-2.3c0.1-0.5,0-0.9-0.1-1.4
		c14.2-4.7,28.5-9.4,42.6-14.2c7.4,23.9,15,47.8,22.6,71.6h1.3c-7.6-24-15.2-48-22.7-72c22.6-7.8,45.1-15.7,67.6-23.9
		c0.5,0.8,1.2,1.4,2,1.8c-12.1,31.5-24.7,62.9-37.5,94.1h1.3c12.8-31.1,25.3-62.4,37.4-93.8c0.2,0,0.4,0.1,0.6,0.1
		c0.3,0,0.5,0,0.7,0c3.9,17.2,7.8,34.4,11.7,51.7c-14.1,14.1-28.4,28.1-42.8,42.1h1.7c13.9-13.5,27.7-27,41.4-40.7
		c0.7,2.9,1,4.4,1.7,7.3c-1.8,0.6-3.1,2.1-3.3,3.9c-0.1,1,0.2,1.9,0.7,2.6c-12.3,9-24.6,18-37,26.9h2c12-8.6,23.9-17.3,35.8-26
		c0.8,0.7,1.8,1.1,3,1.2c2.3,0.1,4.4-1.3,5.1-3.3c52.8,5.8,105.7,10.5,158.7,14c0-0.2,0-0.3,0.1-0.6c-0.1,1.5,0.7,2.9,2,3.7
		c-2.2,3.7-4.5,7.4-6.7,11h1.4c2.1-3.5,4.3-7,6.4-10.5c0.5,0.2,1,0.2,1.6,0.2c2.7,0,5-2,5.1-4.4c0-0.6-0.1-1.1-0.3-1.6
		c15.3-8.2,30.6-16.5,45.8-24.8c0,0,0,0,0.1,0.1c-13.7,13.8-27.5,27.5-41.5,41.1h1.7c13.7-13.3,27.2-26.8,40.7-40.3
		c0.8,0.5,1.7,0.7,2.7,0.7c0.2,0,0.4,0,0.5,0c3.2,13.2,6.4,26.4,9.6,39.6h1.3c-3.2-13.3-6.4-26.6-9.7-39.9c0.7-0.3,1.4-0.7,1.9-1.2
		c16.5,10.3,33.1,20.4,49.8,30.5c-0.4,0.6-0.6,1.3-0.6,2.1c0,0.4,0,0.7,0.1,1.1c-6.7,2.5-13.3,5-20,7.5h3.2
		c5.8-2.2,11.5-4.3,17.2-6.5c0.6,1,1.7,1.8,3,2c-0.2,1.5-0.5,3-0.8,4.4h1.3c0.2-1.4,0.5-2.9,0.7-4.3c0.5,0,0.9-0.1,1.4-0.2
		c0.7,1.5,1.5,3,2.2,4.6h1.4c-0.8-1.7-1.6-3.4-2.4-5.1c0.2-0.1,0.4-0.2,0.6-0.4c2.2,1.8,4.4,3.6,6.5,5.4h1.9
		c-2.5-2.1-5.1-4.2-7.6-6.3c0.6-0.8,1-1.7,1-2.7c0-1.1-0.4-2.1-1.2-2.9c16.6-17.4,33.1-35,49.5-52.7c0.8,0.4,1.7,0.7,2.7,0.6
		c0.1,0,0.2,0,0.3,0c4.4,21.3,8.8,42.6,13.1,63.9h1.3c-0.5-2.5-1-5-1.5-7.6c0.9,1,2.2,1.6,3.7,1.6c0.3,2,0.5,4,0.8,6h1.3
		c-0.3-2-0.5-4.1-0.8-6.1c1.5-0.4,2.7-1.3,3.4-2.5c10.8,2.9,21.5,5.8,32.3,8.6h4.7c-0.3-0.1-0.5-0.1-0.8-0.2
		c7.8-14.8,15.5-29.5,23.2-44.4c0.5,0.1,1,0.2,1.6,0.1c0.7-0.1,1.4-0.3,2.1-0.6c5.5,7.1,11,14.2,16.5,21.3v-2.1
		c-5.2-6.6-10.3-13.3-15.5-19.9c1.1-0.9,1.8-2.2,1.7-3.6c-0.1-2.4-2.3-4.3-5.1-4c-0.6,0-1.1,0.2-1.6,0.4
		c-9.2-15.2-18.3-30.3-27.3-45.6c1.3-0.9,2.1-2.3,2.1-3.8c0-1.1-0.5-2.1-1.3-2.8c15.8-18,31.5-36.1,47-54.4v-3.3
		c-18,17.3-36.1,34.5-54.4,51.4c-16.1-33.6-32.1-67.3-47.9-101c0.6-0.3,1.1-0.8,1.5-1.4c33.4,14.6,67,28.7,100.8,42.2v-1.3
		c-33.6-13.5-67.1-27.4-100.3-41.9c0.2-0.4,0.3-0.9,0.3-1.4c23.6-3.2,47.2-6.6,70.7-10.2c9.7,15.5,19.5,31,29.3,46.5v-2.3
		c-9.4-14.8-18.7-29.6-28-44.4c9.3-1.4,18.6-2.9,28-4.5v-1.2c-9.5,1.6-19.1,3.1-28.6,4.6C1884.7,21.6,1878,10.8,1871.4,0z
		 M1812,47.1c-15.9,20.8-31.9,41.4-48.2,61.8c-4.8-7.3-7.2-10.9-11.9-18.2c1.1-0.8,1.8-2.1,1.8-3.5c0-0.7-0.2-1.3-0.5-1.9
		c6.6-4.2,9.9-6.4,16.5-10.6c14.1-9.2,28.1-18.4,42.1-27.8C1811.8,46.9,1811.9,47,1812,47.1z M1813.9,192.2
		c-22.5,5.1-45,10.1-67.6,14.8c-6.1-15.7-12.1-31.4-18.2-47.1c0.8-0.4,1.4-0.9,1.9-1.6c27.9,11.1,55.9,21.9,84.1,32.3
		c-0.1,0.4-0.2,0.9-0.2,1.3C1813.9,192,1813.9,192.1,1813.9,192.2z M1728.1,152c6.8-20,13.5-40.1,20-60.3c0.3,0,0.5,0,0.8,0
		c0.7,0,1.3-0.2,1.9-0.4c4.9,7.4,7.3,11.1,12.2,18.5c-11.4,14.2-22.9,28.3-34.5,42.3C1728.3,152.1,1728.2,152,1728.1,152z
		 M1744.2,88.1c0.1,0.9,0.5,1.7,1.1,2.3c-14.1,15-28.3,30-42.7,44.8c-16.2-14.4-32.3-28.8-48.3-43.4c0.5-0.6,0.8-1.3,0.9-2.1
		C1684.9,89.5,1714.6,88.9,1744.2,88.1z M1655.3,88.5c26.3-6.6,52.6-13.5,78.8-20.7c3.6,7.6,5.5,11.5,9.1,19.1
		C1713.9,87.8,1684.6,88.3,1655.3,88.5z M1702.6,136.8c7.7,6.8,11.6,10.2,19.4,17c-0.5,0.7-0.8,1.5-0.8,2.4c0,0.5,0.1,1,0.2,1.4
		c-23.4,10.8-46.8,21.5-70.4,31.9c-0.1-0.2-0.2-0.3-0.4-0.5C1668.2,171.7,1685.5,154.3,1702.6,136.8z M1651.6,190.5
		c23.6-10.3,47.1-20.9,70.5-31.7c0.2,0.2,0.3,0.4,0.5,0.6c-12.9,15.9-26,31.8-39.2,47.5c-10.7-4.5-21.3-9-32-13.6
		c0.2-0.4,0.3-0.9,0.3-1.3C1651.8,191.4,1651.7,190.9,1651.6,190.5z M1703.5,135.9c14.4-14.8,28.6-29.8,42.7-44.8
		c0.2,0.1,0.5,0.3,0.7,0.4c-6.6,20.1-13.2,40.2-20.1,60.3c-0.3,0-0.5-0.1-0.8,0c-1.2,0-2.4,0.5-3.3,1.2
		C1715.1,146.1,1711.2,142.7,1703.5,135.9z M1811,45.7c0,0.1,0.1,0.1,0.1,0.2c-19.4,13-38.9,25.8-58.6,38.4
		c-0.9-0.9-2.2-1.5-3.6-1.4c-2.2,0.1-4.1,1.5-4.6,3.5c-3.6-7.5-5.4-11.3-9-18.9C1760.6,60.5,1785.8,53.2,1811,45.7z M1810.6,43.5
		c0,0.2,0,0.4,0,0.6c0,0.2,0,0.4,0.1,0.6c-25.2,7.5-50.5,14.8-75.8,21.9c-6.4-13.4-12.7-26.8-19-40.2c0.9-0.5,1.6-1.4,1.9-2.4
		C1748.6,30.9,1779.6,37.4,1810.6,43.5z M1710.7,26c0.8,0.6,1.7,1,2.8,1c0.4,0,0.8-0.1,1.2-0.2c6.3,13.3,12.6,26.7,18.9,40
		c-26.1,7.1-52.3,14-78.6,20.6c-0.2-0.5-0.5-0.9-0.8-1.2C1673.3,66.3,1692.1,46.3,1710.7,26z M1651.1,93.5c0.9-0.1,1.7-0.4,2.4-0.9
		c16,14.6,32.1,29.1,48.3,43.5c-17.2,17.6-34.5,35-52,52.2c-0.6-0.4-1.3-0.6-2.1-0.7C1649,156.2,1650.1,124.8,1651.1,93.5z
		 M1647.1,92.1c0.7,0.7,1.7,1.2,2.8,1.3c-1,31.3-2.1,62.7-3.4,94c-0.5,0.1-0.9,0.2-1.3,0.3c-13.8-22.5-27.4-45-40.8-67.7
		C1618.6,110.9,1632.9,101.6,1647.1,92.1z M1534.5,163.9c23.1-14.1,46-28.5,68.8-43.1c13.4,22.6,27,45.1,40.8,67.6
		c-0.7,0.5-1.3,1.2-1.6,2c-19.8-4.1-39.5-8.4-59.2-12.8c-6.9-1.6-10.4-2.3-17.3-3.9c-10.3-2.4-20.6-4.8-30.9-7.3c0,0,0,0,0,0
		C1535.1,165.5,1534.9,164.6,1534.5,163.9z M1578.9,72.4c22.3,5.6,44.7,11,67.1,16.2c0,0.2,0,0.3,0,0.5c0,0.8,0.2,1.5,0.5,2.1
		c-14.2,9.4-28.4,18.7-42.7,28c-8.9-15-17.7-30-26.4-45C1578,73.7,1578.5,73.1,1578.9,72.4z M1574.4,75.1c0.7,0,1.3-0.1,1.9-0.3
		c8.8,15.1,17.6,30.1,26.4,45.1c-22.8,14.6-45.8,29-69,43.2c-0.3-0.3-0.7-0.5-1.1-0.8c3.1-6.4,4.6-9.6,7.6-15.9
		c11.2-23.7,22.3-47.5,33-71.4C1573.7,75,1574,75.1,1574.4,75.1z M1571.6,74.1c0.2,0.2,0.4,0.3,0.7,0.4
		c-10.7,23.7-21.6,47.2-32.7,70.7c-3.2,6.7-4.8,10-8,16.7c-0.3-0.1-0.6-0.1-0.9-0.1c-0.9,0-1.8,0.2-2.5,0.6
		c-8.7-9.8-17.4-19.7-26-29.6C1525.5,113.4,1548.6,93.9,1571.6,74.1z M1527,163c-0.6,0.5-1.1,1.2-1.3,2c-18-1-36-2-54-3.2
		c0-1.3-0.6-2.5-1.7-3.3c10.4-8.3,20.7-16.7,31-25.1C1509.7,143.3,1518.4,153.2,1527,163z M1570.8,73.3
		c-22.9,19.8-46.1,39.3-69.5,58.5c-7.4-8.5-14.7-17-22-25.6c0.8-0.7,1.3-1.7,1.4-2.8c0-0.3,0-0.7,0-1c30.1-9.5,60-19.4,89.8-29.6
		C1570.5,72.9,1570.6,73.1,1570.8,73.3z M1570,71.2c0,0.2,0,0.3,0.1,0.5c-29.8,10.2-59.7,20.1-89.7,29.6c-0.7-1.4-2.2-2.4-3.9-2.5
		c-0.6,0-1.1,0-1.6,0.2c-6.5-14.2-12.9-28.3-19.3-42.5C1493.5,61.9,1531.7,66.9,1570,71.2z M1408.2,49c15.3,2.5,30.5,4.9,45.8,7.1
		c6.5,14.4,13,28.8,19.6,43.2c-0.3,0.2-0.6,0.4-0.9,0.7c-21.9-16.4-43.5-33.1-65-50C1407.9,49.8,1408.1,49.4,1408.2,49z
		 M1406.9,50.9c21.5,16.9,43.2,33.6,65.1,50c-0.4,0.6-0.6,1.2-0.7,1.9c0,0.3,0,0.6,0,0.9c-11,2.7-22,5.4-33,8.1
		c-10.8-20.1-21.5-40.3-32-60.5C1406.5,51.2,1406.7,51.1,1406.9,50.9z M1403.4,52.1c0.7,0.1,1.3,0,1.9-0.2
		c10.5,20.2,21.1,40.3,31.9,60.3c-19,4.5-38,8.9-57,13.1c-0.4-1.1-1.2-1.9-2.3-2.4c3.6-9.8,7.1-19.6,10.6-29.4
		c4.9-13.8,9.7-27.5,14.5-41.3C1403.1,52.1,1403.2,52.1,1403.4,52.1z M1401.2,51.4c0.2,0.1,0.4,0.2,0.6,0.3
		c-4.8,14-9.7,28-14.7,41.9c-3.5,9.6-6.9,19.3-10.4,28.9c-0.2,0-0.3,0-0.5-0.1c-1.4-0.1-2.8,0.4-3.8,1.3
		c-7.7-5.6-15.5-11.2-23.2-16.8C1366.8,88.6,1384.1,70.1,1401.2,51.4z M1371.2,128c-21.7,8.5-43.5,16.7-65.4,24.8
		c-0.2-0.3-0.4-0.5-0.6-0.8c14.6-14.6,29-29.4,43.3-44.2c7.7,5.7,15.5,11.3,23.2,16.9c-0.3,0.5-0.6,1.1-0.6,1.8
		C1371,127,1371.1,127.5,1371.2,128z M1290.3,60.3c0-0.1,0-0.2,0-0.3c36.4-3.2,72.7-6.9,109-11.1c0.2,0.7,0.5,1.3,1,1.8
		c-17.1,18.7-34.5,37.2-52,55.6c-19.7-14.5-39.3-29.3-58.7-44.2C1290,61.5,1290.2,60.9,1290.3,60.3z M1239.3,7.7
		c0.4,0.2,0.8,0.3,1.3,0.4c1,0.1,2-0.1,2.8-0.6c12.9,16.5,25.9,32.9,39,49.2c-0.1,0.1-0.1,0.1-0.2,0.2
		c-16.4-10.8-32.8-21.8-49.1-32.9c0.2-0.4,0.4-0.9,0.5-1.5c0.2-1.5-0.4-3-1.6-4C1235.1,14.2,1236.5,12.1,1239.3,7.7z M1281.5,61.6
		c-7.8,4.5-15.7,9-23.5,13.4c-8.8-16.4-17.6-32.9-26.2-49.4c0.3-0.2,0.5-0.4,0.8-0.6c16.3,11.1,32.6,22.1,49.1,32.9
		c-0.2,0.4-0.4,0.9-0.5,1.5C1281.1,60.1,1281.2,60.9,1281.5,61.6z M1257,75.6c-19.6,11.1-39.3,21.9-59.2,32.6
		c-0.4-0.5-0.9-1-1.5-1.3c7.2-17.6,14.3-35.3,21.2-53c3.6-9.2,7.2-18.4,10.7-27.6c0.1,0,0.3,0.1,0.4,0.1c0.7,0.1,1.5,0,2.1-0.2
		C1239.4,42.6,1248.2,59.1,1257,75.6z M1237,5.1c0.3,0.8,0.7,1.5,1.4,2c-2.8,4.3-4.3,6.5-7.1,10.8c-0.4-0.2-0.8-0.3-1.3-0.4
		c-1.2-0.2-2.4,0.2-3.3,0.8c-3.8-3.9-5.6-5.8-9.4-9.7C1225.1,7.3,1229.1,6.6,1237,5.1z M1215.9,8.9c3.9,4.1,5.9,6.1,9.9,10.2
		c-0.5,0.6-0.9,1.4-1,2.2c0,0.1,0,0.2,0,0.3c-37.1,1.9-74.2,3.2-111.4,3.9C1147.7,20.5,1181.8,15,1215.9,8.9z M1108.9,27
		c0-0.1,0-0.2,0-0.3c13.4-0.2,26.8-0.5,40.3-0.9c25.2-0.8,50.4-1.8,75.6-3.1c0.1,0.8,0.5,1.6,1.1,2.1c-18.7,21-37.6,41.8-56.7,62.4
		c-20.6-19.2-41-38.7-61.2-58.4C1108.5,28.4,1108.8,27.7,1108.9,27z M1093.5,13c3.1,4,4.7,6.1,7.8,10.1c-0.6,0.6-1.1,1.4-1.3,2.4
		c-0.1,0.3-0.1,0.6-0.1,1c-21.3,3.6-42.7,7-64.1,10.2C1055.1,28.9,1074.3,21,1093.5,13z M1035.7,38.3c0-0.2,0.1-0.3,0.1-0.5
		c21.5-3.2,43-6.7,64.4-10.3c0.2,0.6,0.5,1.1,0.9,1.6c-13.5,15-27.1,29.8-40.8,44.6c-8.8-10.9-17.5-21.9-26.2-32.9
		C1034.9,40.2,1035.4,39.3,1035.7,38.3z M965.9,19.8c0.1-0.2,0.3-0.3,0.4-0.5c20.1,6.1,40.1,12,60.3,17.8c0.1-0.2,0.1-0.3,0.2-0.5
		c-0.1,0.6-0.1,1.1,0,1.6c-11.9,3.6-23.9,7.1-35.8,10.6c-1.3-1.8-3.8-2.5-5.9-1.5c-0.1,0.1-0.3,0.1-0.4,0.2c-2.7-3.7-4-5.5-6.6-9.2
		c-5-7.2-7.6-10.8-12.6-18C965.6,20.2,965.8,20,965.9,19.8z M963.1,21.6c0.4-0.1,0.9-0.2,1.3-0.4c5.2,7.3,7.8,10.9,13,18.2
		c2.5,3.6,3.8,5.4,6.3,9c-0.3,0.3-0.5,0.7-0.7,1.1c-8.8-2.4-13.2-3.6-21.9-6.1C961.8,34.7,962.2,30.3,963.1,21.6z M881.2,19.5
		c25.5-0.3,51.1-0.8,76.6-1.6c0.1,0.4,0.2,0.9,0.4,1.3c0.3,0.5,0.6,0.9,1,1.3c-5.2,7.5-7.8,11.2-13.1,18.6
		c-21.7-6.3-43.4-12.7-65.1-19.4C881.2,19.7,881.2,19.6,881.2,19.5z M877.1,23.4c0.5,0,1.1-0.2,1.6-0.4c0.2-0.1,0.4-0.2,0.5-0.3
		c12.3,17.3,24.7,34.5,37.2,51.6c-0.4,0.4-0.8,0.8-1,1.3c-14.1-3.6-28.1-7.4-42.2-11.2C874.5,50.7,875.8,37,877.1,23.4z
		 M870.4,127.2c-0.2-0.3-0.3-0.6-0.5-0.8c15.6-15,31-30.2,46.3-45.5c-10.7,17.6-21.5,35.2-32.4,52.7c-5.2-1.5-7.8-2.2-12.9-3.7
		C871,129,870.9,128.1,870.4,127.2z M915.3,79.5c0.1,0.1,0.2,0.3,0.2,0.4c-15.4,15.4-30.9,30.6-46.5,45.7c-0.5-0.4-1.1-0.6-1.8-0.8
		c2-19.8,3.9-39.6,5.8-59.4c13.9,3.8,27.9,7.5,41.9,11.2C914.7,77.5,914.8,78.6,915.3,79.5z M809.3,35c21.1-4.8,42.1-9.7,63.1-14.8
		c0.1,0.2,0.2,0.4,0.3,0.7c0.7,1.3,1.9,2.2,3.3,2.4c-1.3,13.5-2.6,27.1-3.9,40.6c-27.5-7.6-54.8-15.5-82.1-23.7c0-0.3,0-0.6-0.1-0.9
		C797.6,37.6,801.5,36.7,809.3,35z M789.7,41.4c27.3,8.2,54.7,16.1,82.2,23.7c-1.9,19.9-3.9,39.7-5.9,59.6c-0.6,0-1.3,0.2-1.9,0.4
		c-0.2,0.1-0.4,0.2-0.6,0.3c-25.3-27.2-50.1-54.9-74.5-82.9C789.4,42.2,789.6,41.8,789.7,41.4z M785.6,44.5c0.5,0,1.1-0.1,1.6-0.4
		c0.4-0.2,0.8-0.4,1.2-0.7c24.3,28,49.1,55.6,74.3,82.8c-0.4,0.5-0.8,1-0.9,1.6c-29-4.8-57.9-10-86.8-15.5
		C778.5,89.7,782.1,67.1,785.6,44.5z M764.5,197.8c0-0.1-0.1-0.2-0.1-0.2c31.9-20.4,63.5-41.4,94.8-62.8
		c-26.1,23.4-52.6,46.5-79.4,69.1c-5.9-1.5-8.9-2.2-14.9-3.7C764.9,199.4,764.8,198.6,764.5,197.8z M828.3,154.3
		c-21.4,14.3-43,28.5-64.7,42.3c-0.6-0.6-1.4-1.1-2.2-1.3c4.5-27.3,8.9-54.6,13.3-81.9c28.9,5.5,57.8,10.7,86.8,15.5
		c0,0.7,0.1,1.4,0.5,2.1c0,0.1,0.1,0.2,0.1,0.2C850.9,139,839.6,146.7,828.3,154.3z M783.4,44.1c0.3,0.1,0.7,0.2,1,0.3
		c-3.5,22.6-7.1,45.1-10.7,67.7c-9.7-1.9-19.3-3.8-29-5.7c0-0.7-0.1-1.4-0.4-2c-0.3-0.6-0.7-1.2-1.3-1.6
		C756.7,83.3,770.2,63.8,783.4,44.1z M738.4,110.2c0.6,0.3,1.3,0.4,2,0.3c3.9,18.6,7.8,37.3,11.8,55.9c2.1,9.7,4.2,19.4,6.3,29
		c-0.1,0-0.3,0.1-0.4,0.1c-0.7,0.3-1.3,0.7-1.8,1.3c-17.2-9.8-34.3-19.8-51.3-29.9C716.3,148.1,727.4,129.2,738.4,110.2z
		 M711.7,70.9c0.8,1.3,2.2,2.1,3.8,2.1c1,0,1.9-0.3,2.7-0.9c6.3,10.2,12.7,20.4,19.1,30.5c-1.1,0.8-1.7,2-1.8,3.3
		c-35.9,4-71.8,7.5-107.7,10.5c0-0.2-0.1-0.4-0.2-0.6C655.8,101.3,683.9,86.3,711.7,70.9z M627.9,117.6c36-3,71.9-6.5,107.7-10.5
		c0.1,0.2,0.1,0.5,0.3,0.7c0.3,0.7,0.8,1.3,1.5,1.8c-11,19-22.1,37.9-33.3,56.7c-25.7-15.4-51.2-31.1-76.5-47.1
		C627.8,118.7,627.9,118.2,627.9,117.6z M621.7,121.6c-5.3,19.2-10.7,38.5-16.1,57.7c-9.9-1.9-19.8-3.7-29.6-5.7
		c0-0.6,0-1.3-0.3-1.9c-0.2-0.5-0.5-1-0.9-1.3c15.5-16.3,30.8-32.7,46-49.2C621.1,121.4,621.4,121.5,621.7,121.6z M561.3,96.9
		c1.1-0.4,1.9-1.1,2.4-1.9c18.3,7.3,36.6,14.4,55,21.4c-0.2,0.9-0.2,1.8,0.2,2.7c0.2,0.6,0.6,1,1,1.4c-15.2,16.5-30.5,32.9-46,49.2
		c-0.8-0.5-1.7-0.8-2.7-0.8c-3.5-23.9-7-47.9-10.3-71.9C561,97,561.1,97,561.3,96.9z M556.8,96.2c0.8,0.6,1.8,0.9,2.8,0.9
		c3.3,24,6.8,47.9,10.3,71.9c-0.2,0-0.3,0.1-0.5,0.1c-0.4,0.1-0.7,0.3-1,0.5c-14.3-14.6-28.5-29.3-42.6-44.2
		C536.2,115.8,546.6,106.1,556.8,96.2z M566.4,172.9c-20.1,0.4-40.3,0.7-60.4,0.8c-10.2,0-20.5,0-30.7,0c0-0.1,0-0.1,0-0.2
		c-0.2-0.4-0.4-0.8-0.7-1.2c17-15.2,33.8-30.5,50.4-46c14.1,14.8,28.2,29.5,42.5,44.1C566.9,171.1,566.5,172,566.4,172.9z
		 M567.1,175.6c-15.5,11.4-31.1,22.7-46.8,33.8c-15.1-11.1-30-22.4-44.9-33.7c0-0.3,0.1-0.6,0-0.8c30.3,0.1,60.6-0.2,90.9-0.8
		c0.1,0.3,0.1,0.6,0.2,0.8C566.8,175.1,567,175.4,567.1,175.6z M465.3,58c29.8,11.6,59.7,22.9,89.8,33.7c-0.2,0.8-0.1,1.7,0.2,2.5
		c0.2,0.4,0.4,0.8,0.7,1.2c-10.3,9.8-20.6,19.5-30.9,29.2c-20.4-21.7-40.5-43.6-60.4-65.8C464.9,58.6,465.1,58.3,465.3,58z
		 M462.7,60c0.4-0.1,0.7-0.3,1-0.5c19.9,22.2,40,44.2,60.4,65.9c-16.7,15.5-33.5,30.9-50.5,46.1c-0.8-0.6-1.7-0.9-2.7-1
		c-3.2-36.8-6.1-73.6-8.8-110.4C462.3,60.1,462.5,60.1,462.7,60z M460.2,60.1c0.2,0,0.5,0.1,0.7,0.1c2.7,36.8,5.6,73.6,8.8,110.4
		c-0.2,0-0.4,0.1-0.6,0.1c-0.2,0.1-0.5,0.2-0.7,0.3c-11.2-14.6-22.4-29.3-33.3-44C443.6,104.7,452,82.4,460.2,60.1z M458.1,62.5
		c-7.9,21.1-15.8,42.2-23.8,63.3c-1.9-2.5-2.8-3.7-4.6-6.2c1.3-1.1,1.9-2.9,1.3-4.7c-0.3-0.9-0.9-1.7-1.7-2.2
		C438.9,96,448.5,79.3,458.1,62.5z M426.1,120.6c0.6,0.1,1.2,0,1.9-0.2c0.2-0.1,0.5-0.2,0.7-0.3c2,2.8,3.1,4.2,5.1,6.9
		c-7.2,18.8-14.4,37.6-21.7,56.3C416.8,162.5,421.4,141.6,426.1,120.6z M276.5,87.6c-3.6,18.6-7.2,37.2-10.7,55.8
		c-0.5,0-1.1,0-1.6,0.1c-2.5,0.6-4,3-3.3,5.4c0.2,0.5,0.4,1,0.8,1.5c-11.6,11.2-23.3,22.4-35,33.5c0,0-0.1,0-0.1-0.1
		C243.4,151.9,260.1,119.8,276.5,87.6C276.5,87.6,276.5,87.6,276.5,87.6z M263,151.5c-5.2,13-10.5,26.1-15.8,39.1
		c-7.4-1.3-11.1-2-18.4-3.3c0-0.3-0.1-0.6-0.2-0.9c-0.2-0.6-0.6-1.2-1-1.7c11.7-11.1,23.4-22.2,35-33.4
		C262.7,151.3,262.8,151.4,263,151.5z M274.5,86.4c0.2,0.2,0.5,0.4,0.8,0.6c-16.4,32.2-33,64.3-49.9,96.2c-0.9-0.3-1.9-0.4-2.8-0.1
		c-0.2,0-0.3,0.1-0.5,0.1c-8.9-14.6-17.7-29.2-26.4-43.8C222.2,122.1,248.5,104.5,274.5,86.4z M219.2,188.5c0,0.1,0.1,0.2,0.1,0.3
		c-10.6,4.5-21.2,9-31.9,13.5c-9-11.8-17.9-23.6-26.8-35.5c0.4-0.3,0.8-0.7,1-1.2c19.1,7.1,38.3,14,57.5,20.9
		C219,187.1,219,187.8,219.2,188.5z M162.1,164.5c0.2-0.7,0.2-1.4,0-2.1c-0.1-0.4-0.3-0.7-0.5-1c11.1-7,22.1-14.1,33.1-21.2
		c8.7,14.6,17.4,29.2,26.3,43.7c-0.6,0.4-1.1,0.9-1.4,1.5C200.4,178.5,181.2,171.6,162.1,164.5z M146.2,47.8
		c42.1,12.4,84.5,24.1,127,35c-0.1,0.6,0,1.1,0.2,1.7c0.1,0.4,0.3,0.7,0.5,1c-26,18-52.3,35.6-78.7,52.9
		c-17.3-29.3-34.1-58.9-50.6-88.7C145.3,49.3,145.9,48.6,146.2,47.8z M142.9,50.4c0.2,0,0.3-0.1,0.5-0.1
		c16.5,29.8,33.4,59.4,50.6,88.8c-11,7.1-22.1,14.2-33.2,21.3c-0.9-0.9-2.2-1.5-3.5-1.5C152.2,122.8,147.3,86.6,142.9,50.4
		C142.9,50.4,142.9,50.4,142.9,50.4z M138.6,49.2c0.8,0.8,1.9,1.2,3.1,1.3c4.5,36.2,9.3,72.4,14.5,108.5c-0.4,0.1-0.9,0.2-1.2,0.4
		c-20.6-24.8-40.8-49.8-60.8-75.1C109,72.7,123.8,61,138.6,49.2z M66.1,107.9c-0.1-0.5-0.4-1-0.7-1.5c9.3-7.1,18.6-14.2,27.8-21.4
		c19.9,25.3,40.1,50.3,60.7,75c-0.2,0.1-0.3,0.3-0.4,0.5c-29.5-16.2-58.7-32.8-87.7-49.7C66.2,109.9,66.4,108.9,66.1,107.9z
		 M76,55.8c20.4-2.7,40.9-5.6,61.3-8.6c0.1,0.4,0.3,0.8,0.5,1.1c-14.7,11.8-29.5,23.5-44.4,35.1c-6.3-8.1-12.6-16.2-18.8-24.3
		C75.5,58.3,76.1,57.1,76,55.8z M71,60.2c0.4,0,0.9,0,1.3-0.1c0.4-0.1,0.9-0.2,1.2-0.4c6.3,8.1,12.6,16.2,18.9,24.3
		c-9.3,7.2-18.6,14.3-27.9,21.4c-0.5-0.5-1.2-0.8-1.9-1C65.5,89.7,68.2,75,71,60.2z M58.4,105.1C52,99.2,45.6,93.2,39.2,87.2
		c9.8-9.3,19.6-18.6,29.3-27.9c0.4,0.3,0.9,0.5,1.3,0.7c-2.8,14.8-5.6,29.5-8.4,44.3c-0.4,0-0.8,0-1.2,0.1
		C59.6,104.5,58.9,104.7,58.4,105.1z M60.9,113.1c0.4,0.1,0.9,0.1,1.3,0c7.6,19.3,15.3,38.5,23.1,57.7c-1.3,0.5-2.3,1.6-2.6,2.8
		c-11.9-1.8-23.8-3.6-35.7-5.5C51.6,149.8,56.3,131.4,60.9,113.1z M86.6,170.5c-6.1-14.8-12-29.7-17.9-44.6
		c7.2,15.3,14.6,30.5,22,45.7C89.5,170.8,88,170.3,86.6,170.5z M92.4,175.3c6.6,13.3,13.2,26.6,19.9,39.9
		c-7.3-12.2-14.6-24.4-21.7-36.6C91.6,177.8,92.3,176.6,92.4,175.3z M36.5,216.1c-0.4-0.3-0.9-0.6-1.4-0.8
		c3.9-15.4,7.8-30.7,11.7-46.1c11.9,1.9,23.9,3.8,35.9,5.6c0,0.3,0,0.7,0.1,1c0.2,0.6,0.5,1.2,0.8,1.6
		C67.9,190.4,52.3,203.3,36.5,216.1z M82.3,225c-14.7-1.7-29.3-3.6-44-5.5c0-0.3-0.1-0.6-0.1-0.9c-0.2-0.6-0.5-1.2-0.8-1.6
		c15.8-12.8,31.5-25.7,47.1-38.7c0.6,0.5,1.3,0.8,2.1,1C85.1,194.5,83.7,209.7,82.3,225z M115.6,228.7c-10.7-1.2-21.3-2.4-32-3.6
		c1.4-15.3,2.8-30.5,4.3-45.8c0.3,0,0.6,0,0.8-0.1c0.3,0,0.5-0.1,0.8-0.2c9.2,15.8,18.6,31.4,28,47
		C116.5,226.7,115.8,227.7,115.6,228.7z M122,225.7c-0.9-0.3-1.9-0.4-2.9-0.2c-0.1,0-0.2,0-0.2,0.1c-19-37.3-37.4-74.9-55.2-112.8
		c0.5-0.2,1-0.6,1.4-1c29,17,58.3,33.6,87.8,49.8c-0.4,0.8-0.5,1.8-0.2,2.8c0.3,1.1,1.1,2,2,2.6C143.9,186.5,133,206.1,122,225.7z
		 M123.2,226.3c11-19.6,21.8-39.2,32.6-58.8c0.9,0.3,1.9,0.4,2.8,0.2c0.3-0.1,0.7-0.2,1-0.3c8.8,11.9,17.7,23.7,26.7,35.4
		c-20.5,8.5-41.1,16.8-61.7,24.9C124.2,227.1,123.7,226.6,123.2,226.3z M218.9,248.2c-31.2-5.6-62.4-11.6-93.5-18
		c0-0.4,0-0.9-0.2-1.4c0-0.1-0.1-0.2-0.1-0.3c20.7-8.1,41.4-16.4,61.9-24.9c11,14.3,22,28.5,33.2,42.6
		C219.6,246.8,219.2,247.5,218.9,248.2z M222.5,245.3c-0.1,0-0.1,0-0.2,0c-0.4,0.1-0.7,0.2-1,0.3c-11.1-14.1-22.1-28.2-33.1-42.5
		c10.6-4.4,21.2-8.9,31.7-13.4c0.8,1.1,2.1,1.9,3.6,2C223.1,209.7,222.8,227.5,222.5,245.3z M224.8,245.4c-0.3-0.1-0.7-0.1-1-0.2
		c0.3-17.8,0.6-35.6,1-53.4c0.2,0,0.4,0,0.5-0.1c1.8-0.4,3.1-1.8,3.4-3.3c7.2,1.3,10.8,2,18.1,3.2
		C239.5,209.6,232.1,227.5,224.8,245.4z M226.7,246.3c-0.2-0.2-0.5-0.3-0.7-0.4c7.4-18,14.8-35.9,22.1-53.9
		c11.8,2.1,23.7,4.1,35.5,6.1c0,0.4,0.1,0.9,0.2,1.4c0.2,0.5,0.4,0.9,0.7,1.3C265.4,216,246.1,231.2,226.7,246.3z M283.8,196.9
		c-11.8-2-23.5-4-35.3-6c5.2-12.9,10.5-25.9,15.7-38.8c0.7,0.2,1.5,0.3,2.3,0.2c6.4,14.1,12.9,28.1,19.6,42.1
		C284.9,194.9,284.1,195.8,283.8,196.9z M287.1,193.9c-6.6-14-13.1-28-19.5-42c0.9-0.4,1.7-1,2.2-1.9
		c44.8,14.5,89.8,28.1,135.1,40.9c0,0.2,0,0.4,0,0.6c-27.3,1.9-54.5,3.5-81.8,4.8c-9.9,0.5-19.9,0.9-29.8,1.2c0-0.1-0.1-0.3-0.1-0.4
		C292.3,194.7,289.7,193.3,287.1,193.9z M357.8,255.2c-22-17.9-43.8-36-65.4-54.3c0.5-0.7,0.8-1.4,0.9-2.3c20.5-0.8,41-1.7,61.5-2.8
		c7.2-0.4,10.8-0.6,18-1c10.8-0.7,21.5-1.4,32.3-2.1c0,0,0,0,0,0c0.3,0.8,0.9,1.5,1.6,2.1C390.5,215,374.3,235.2,357.8,255.2z
		 M410,186.9c-0.6-0.1-1.3,0-1.9,0.2c-1.5,0.4-2.6,1.4-3,2.7c-45.2-12.8-90.2-26.4-134.9-40.8c0.1-0.5,0.2-1.1,0.1-1.7
		c50.8-8.7,101.4-18.5,151.8-29.5c0.5,1.2,1.6,2.2,2.8,2.6C420,142.6,415,164.8,410,186.9z M411.8,187.5
		c7.7-19.7,15.3-39.4,22.8-59.2c10.8,14.5,21.8,29,32.8,43.4c-1.1,1-1.7,2.4-1.4,3.9c-17.2,4.9-34.5,9.7-51.8,14.4
		C413.7,188.8,412.9,188,411.8,187.5z M451.3,212.7c-12.4-6.4-24.9-12.9-37.3-19.4c0.3-0.7,0.5-1.5,0.4-2.3
		c17.3-4.7,34.6-9.5,51.9-14.4c0.6,1.2,1.7,2.1,3,2.5C463.4,190.4,457.4,201.6,451.3,212.7z M484.8,229.7
		c-10.8-5.4-21.6-10.9-32.4-16.4c6.1-11.3,12.2-22.6,18.3-34c0.6,0,1.1-0.1,1.7-0.2c0.3-0.1,0.6-0.2,0.9-0.4
		c4.5,16.5,9.1,33,13.7,49.5C486.1,228.6,485.3,229.1,484.8,229.7z M492.1,229.3c-1-0.9-2.5-1.4-3.9-1.3c-4.7-16.7-9.3-33.3-13.9-50
		c0.3-0.3,0.6-0.7,0.8-1.1c14.6,11.2,29.4,22.3,44.2,33.3C510.3,216.6,501.2,222.9,492.1,229.3z M579.6,254.5
		c-28.8-6.8-57.4-14-86-21.4c0.1-0.7,0-1.3-0.3-2c-0.1-0.3-0.3-0.6-0.4-0.8c9.2-6.4,18.3-12.8,27.5-19.3
		c19.7,14.5,39.6,28.8,59.6,43C579.8,254,579.7,254.2,579.6,254.5z M582.4,252c-0.7,0.2-1.2,0.6-1.7,1
		c-19.9-14.1-39.7-28.3-59.3-42.8c15.6-11.1,31.1-22.3,46.5-33.7c0.9,0.8,2.1,1.3,3.3,1.3c1.6,10.3,3.1,20.6,4.7,30.8
		c2.3,14.4,4.5,28.8,6.9,43.2C582.7,251.9,582.5,251.9,582.4,252z M584.1,251.7c-2.4-14.6-4.7-29.2-7-43.8
		c-1.6-10.1-3.1-20.2-4.7-30.3c0.2,0,0.3-0.1,0.5-0.1c1.4-0.5,2.4-1.5,2.8-2.7c9.8,1.9,19.7,3.8,29.6,5.6
		c-6.7,23.8-13.6,47.6-20.5,71.3C584.6,251.7,584.3,251.7,584.1,251.7z M587.9,253.3c-0.5-0.6-1.2-1-1.9-1.3
		c6.9-23.8,13.7-47.6,20.5-71.4c25.5,4.7,51,9.1,76.6,13.3c0,0.6,0.1,1.3,0.4,1.9c0,0.1,0.1,0.2,0.2,0.3
		C652,215.7,620.1,234.8,587.9,253.3z M683.3,192.9c-25.6-4.2-51.1-8.6-76.5-13.3c5.4-19.2,10.8-38.4,16.1-57.7
		c0.7,0.1,1.4,0,2.1-0.3c0.3-0.1,0.6-0.3,0.9-0.4c19.2,23.6,38.8,46.9,58.6,69.9C683.9,191.6,683.5,192.2,683.3,192.9z M689.7,190.1
		c-1.1-0.4-2.4-0.5-3.6,0c-0.2,0.1-0.4,0.2-0.6,0.3c-19.8-23.1-39.4-46.4-58.6-70c0.1-0.1,0.1-0.1,0.2-0.2
		c25.3,16,50.8,31.7,76.5,47.1C698.9,174.9,694.3,182.5,689.7,190.1z M690.7,190.7c4.6-7.6,9.2-15.2,13.7-22.8
		c17,10.1,34.1,20,51.3,29.9c-0.1,0.3-0.3,0.6-0.3,0.9c-20.9-1.4-41.8-3-62.7-4.7c0-0.5-0.1-1-0.4-1.5
		C691.9,191.8,691.4,191.1,690.7,190.7z M759.2,216.9c-0.5,0-1,0.2-1.4,0.3c-1,0.4-1.8,1.1-2.3,1.9c-21.1-7.7-42.1-15.6-63-23.7
		c0-0.1,0-0.1,0.1-0.2c20.9,1.7,41.8,3.3,62.8,4.7c0,0.5,0.2,1,0.4,1.5c0.7,1.4,2.1,2.4,3.7,2.6
		C759.3,209.1,759.3,211.7,759.2,216.9z M759.8,195.2c-2.2-9.8-4.3-19.6-6.4-29.4c-4-18.5-7.9-37-11.7-55.5c0.1,0,0.3-0.1,0.4-0.1
		c1.3-0.5,2.2-1.5,2.6-2.7c9.7,2,19.3,3.9,29,5.7c-4.4,27.3-8.8,54.7-13.4,82C760.1,195.2,759.9,195.2,759.8,195.2z M762.9,217.9
		c-0.7-0.5-1.5-0.9-2.4-1c0.1-5.2,0.1-7.7,0.2-12.9c0.5,0,0.9-0.2,1.4-0.3c1.2-0.5,2-1.3,2.5-2.3c5.6,1.4,8.4,2.1,14.1,3.5
		C772.3,210.1,769.2,212.7,762.9,217.9z M826.2,216.4c-20.6,1.5-41.1,2.9-61.7,4.1c-0.1-0.3-0.2-0.6-0.3-0.9
		c-0.1-0.3-0.3-0.5-0.4-0.7c6.5-5.4,9.8-8.2,16.3-13.6c15.4,3.8,30.8,7.4,46.2,10.9C826.2,216.2,826.2,216.3,826.2,216.4z
		 M832.1,212.3c-1-0.2-2.1-0.2-3.1,0.3c-1.2,0.5-2,1.4-2.4,2.4c-15.2-3.5-30.3-7.1-45.4-10.7c27.8-23.5,55.2-47.3,82.2-71.6
		c0.2,0.2,0.5,0.3,0.8,0.5C853.6,159.5,842.9,186,832.1,212.3z M865.2,133.4c1,0.2,2.1,0.1,3.1-0.3c1-0.5,1.8-1.2,2.2-2.1
		c5.1,1.5,7.6,2.2,12.7,3.7C867,160.3,850.6,185.7,834,211C844.5,185.2,855,159.4,865.2,133.4z M834.3,213.4
		c-0.1-0.1-0.2-0.1-0.3-0.2c17.1-25.9,33.8-51.9,50.3-78.2c11,3.1,22,6.2,33,9.3c-0.1,0.9,0,1.8,0.4,2.6c0.1,0.2,0.2,0.3,0.3,0.5
		C890.5,169.8,862.5,191.8,834.3,213.4z M921.2,140.6c-0.4,0.1-0.9,0.2-1.3,0.4c-1,0.5-1.8,1.3-2.2,2.2c-10.9-3-21.8-6.1-32.7-9.2
		c10.9-17.4,21.6-34.9,32.3-52.5c0.5,0.2,1,0.4,1.5,0.5C919.6,101.5,920.4,121,921.2,140.6z M917.4,73.6
		C917.4,73.6,917.4,73.6,917.4,73.6c-12.6-17.1-25-34.4-37.3-51.7c0.3-0.3,0.5-0.7,0.7-1.1c21.5,6.6,43.1,13.1,64.7,19.3
		c-7.9,11.2-15.9,22.4-24,33.5C920.3,73,918.5,73.4,917.4,73.6z M958.8,54c-2,0.1-3.8,1.4-4.3,3.4c-0.4,1.9,0.5,3.8,2.2,4.8
		c-11.1,4.4-22.2,8.6-33.4,12.9c0.1,0.2,0.1,0.3,0.2,0.5c-0.3-0.5-0.6-0.9-1-1.3c8.1-11.2,16.2-22.5,24.2-33.8
		c5.2,1.5,7.8,2.2,13.1,3.7C959.4,48.1,959.2,50.1,958.8,54z M947.4,39.5c5.2-7.3,7.7-11,12.8-18.3c0.5,0.3,1.1,0.4,1.6,0.4
		c-0.8,8.6-1.2,12.9-2,21.4C954.9,41.7,952.4,40.9,947.4,39.5z M960,54.1c0.4-3.8,0.5-5.8,0.9-9.6c8.7,2.4,13,3.6,21.7,6
		c0,0.2,0,0.4,0,0.6c-7.7,2.2-11.6,3.3-19.4,5.5C962.6,55.4,961.5,54.4,960,54.1z M963.5,57.7c6.2-1.7,9.3-2.6,15.5-4.4
		c-6.2,2.5-9.4,3.7-15.6,6.2c0-0.1,0.1-0.1,0.1-0.2C963.6,58.8,963.6,58.3,963.5,57.7z M1024.9,105.7C1004.2,91,983.6,76,963.3,60.9
		c7.9-3.1,11.8-4.7,19.7-7.9c0,0.1,0.1,0.2,0.1,0.3c1,2,3.5,2.8,5.6,2.1c12,16.8,24.2,33.5,36.4,50.1
		C1025,105.6,1025,105.6,1024.9,105.7z M1027.3,104.4c-0.4,0.1-0.9,0.2-1.3,0.4c-12.2-16.6-24.4-33.2-36.3-50c1.7-1.1,2.4-3.2,1.7-5
		c11.9-3.4,23.8-7,35.7-10.5c0.6,1.2,1.9,2.4,3.2,2.5c0,0,0,0,0,0C1029.4,62.6,1028.4,83.5,1027.3,104.4z M1030.7,105
		c-0.5-0.3-1-0.5-1.5-0.6c-0.2,0-0.4-0.1-0.6-0.1c1-20.8,2-41.7,3-62.5c0.6,0,1.1-0.2,1.6-0.4c8.7,11.1,17.5,22.2,26.4,33.2
		C1049.9,84.8,1040.3,94.9,1030.7,105z M1113.1,141c-7.6-2.8-11.5-4.2-19.1-7.1c-20.6-7.7-41.1-15.6-61.5-23.7
		c0.1-0.2,0.2-0.4,0.2-0.7c0.3-1.4-0.2-2.9-1.2-3.9c9.6-10,19.1-20.1,28.6-30.2c17.6,21.8,35.4,43.3,53.4,64.7
		C1113.4,140.5,1113.3,140.7,1113.1,141z M1114.4,139.4c-18.1-21.4-35.9-42.9-53.5-64.7c13.8-14.8,27.4-29.7,41-44.8
		c0.5,0.3,1.1,0.6,1.7,0.7c0.2,0,0.4,0.1,0.7,0.1c3.7,36,7.5,72.1,11.3,108.1C1115.2,138.9,1114.8,139.1,1114.4,139.4z
		 M1118.2,138.4c-0.5-0.1-0.9-0.1-1.4,0c-3.8-36-7.6-71.9-11.3-107.9c0.6-0.1,1.2-0.4,1.7-0.8c20.2,19.7,40.6,39.2,61.2,58.4
		c-16,17.1-32.3,34-48.6,50.8C1119.3,138.7,1118.8,138.5,1118.2,138.4z M1189.5,110.1c-0.1,0.7,0,1.4,0.2,2
		c-22.7,9.7-45.4,19.1-68.2,28.3c-0.2-0.3-0.4-0.6-0.7-0.8c16.3-16.8,32.5-33.7,48.5-50.7c7,6.5,14,12.9,21,19.3
		C1189.9,108.8,1189.6,109.4,1189.5,110.1z M1191.1,107.4c-7-6.4-14.1-12.9-21-19.3c19.2-20.6,38.1-41.4,56.7-62.4
		c0.1,0.1,0.2,0.1,0.4,0.2c-3.6,9.3-7.2,18.7-10.9,28c-6.9,17.6-14,35.2-21.1,52.7c-0.1,0-0.3-0.1-0.4-0.1
		C1193.4,106.2,1192.1,106.6,1191.1,107.4z M1297,154.5c-33,0.4-66,0.4-99,0c0,0,0,0,0-0.1c0-2.4-1.9-4.3-4.3-4.5
		c0.3-11.6,0.6-23.3,0.8-34.9c1.4-0.2,2.6-0.9,3.4-2c32.9,14.1,65.9,27.7,99.2,40.8C1297.1,154.2,1297,154.3,1297,154.5z
		 M1297.6,152.9c-33.3-13.1-66.3-26.7-99.1-40.8c0.1-0.2,0.2-0.5,0.2-0.7c0.1-0.8,0-1.5-0.3-2.2c19.8-10.7,39.5-21.5,59.1-32.6
		c13.6,25.1,27.3,50.1,41.3,75C1298.3,152,1297.9,152.4,1297.6,152.9z M1299.8,151c-14-24.9-27.7-49.9-41.3-75
		c7.9-4.5,15.7-9,23.6-13.5c0.7,0.9,1.8,1.5,3,1.6c0.2,0,0.5,0,0.7,0c4.7,28.9,9.4,57.8,14.2,86.8C1300,151,1299.9,151,1299.8,151z
		 M1302.3,150.7c-0.3,0-0.7,0-1,0c-4.8-28.9-9.5-57.8-14.2-86.7c0.7-0.2,1.3-0.6,1.9-1c19.4,14.9,38.9,29.6,58.6,44.1
		c-14.3,14.9-28.7,29.6-43.3,44.2C1303.7,151,1303,150.7,1302.3,150.7z M1347.2,199.2c-1.1-0.1-2.3,0.2-3.2,0.7
		c-13.1-13.9-26-27.9-38.9-41.9c0.6-0.7,1.1-1.5,1.2-2.5c0.1-0.6,0-1.2-0.1-1.7c21.9-8.1,43.7-16.3,65.4-24.8c0.5,0.8,1.2,1.4,2,1.8
		c-8.5,22.9-17.1,45.7-25.9,68.4C1347.6,199.2,1347.4,199.2,1347.2,199.2z M1351,201.5c-0.5-0.8-1.2-1.5-2.1-1.9
		c8.8-22.7,17.5-45.6,25.9-68.4c0.2,0,0.3,0,0.5,0.1c0.4,0,0.8,0,1.2,0c5.7,18.7,11.5,37.4,17.2,56.1
		C1379.5,192.1,1365.3,196.9,1351,201.5z M1394.9,186.9c-5.8-18.7-11.5-37.3-17.2-56c0.9-0.4,1.6-1,2.1-1.8
		c18.1,7.4,36.3,14.6,54.6,21.7c9.3,3.6,18.6,7.2,27.9,10.7c0,0.1,0,0.1,0,0.2c0,0.5,0,0.9,0.1,1.4
		C1439.9,171.2,1417.4,179.1,1394.9,186.9z M1462.5,160.4c-27.6-10.4-55-21.2-82.3-32.3c0.1-0.3,0.2-0.6,0.2-0.8c0-0.3,0-0.6,0-0.8
		c19.1-4.3,38.2-8.6,57.3-13.2c8.4,15.5,16.8,31,25.2,46.4C1462.8,159.8,1462.6,160.1,1462.5,160.4z M1465.1,157.9
		c-0.4,0.2-0.9,0.4-1.2,0.7c-8.4-15.2-16.7-30.5-24.9-45.7c10.9-2.6,21.8-5.3,32.7-8c0.5,1.2,1.6,2.1,3,2.5
		C1471.5,124.2,1468.3,141.1,1465.1,157.9z M1466.4,157.5c3.2-16.7,6.4-33.3,9.4-50c0.9,0,1.8-0.2,2.5-0.6
		c7.3,8.6,14.6,17.1,22,25.7c-10.4,8.5-20.9,16.9-31.4,25.3c-0.5-0.2-1.1-0.3-1.6-0.4C1467,157.5,1466.7,157.5,1466.4,157.5z
		 M1468.5,166c1.5-0.5,2.6-1.7,3.1-3.1c18,1.2,35.9,2.3,53.9,3.2c-0.1,1.2,0.4,2.2,1.1,3c-15.4,16.1-30.9,32-46.6,47.8
		C1476.2,199.9,1472.3,183,1468.5,166z M1482.9,226.3c-0.3,0-0.5,0-0.8,0c-0.7-3.2-1.1-4.9-1.8-8.1c14.9-15,29.7-30.2,44.4-45.5
		c-13.2,18.1-26.5,36.1-40,54C1484.2,226.5,1483.6,226.4,1482.9,226.3z M1646.1,244.7c-53-3.5-105.9-8.2-158.7-14
		c0-1.3-0.6-2.5-1.6-3.3c14.3-18.9,28.4-38,42.3-57.2c0.6,0.2,1.2,0.4,1.8,0.4c1.5,0.1,3-0.6,3.9-1.6
		c37.2,25.4,74.8,50.2,112.9,74.2C1646.4,243.6,1646.2,244.2,1646.1,244.7z M1647.6,242.2c-38.1-24-75.8-48.7-113-74.2
		c0.1-0.2,0.2-0.4,0.2-0.5c26.1,6.3,52.3,12.3,78.6,18c9.6,2.1,19.2,4.1,28.7,6.1c0,0.1,0,0.3,0,0.4c-0.1,2.4,1.9,4.4,4.6,4.4
		c1.3,14.9,2.5,29.8,3.7,44.6C1649.3,241.1,1648.3,241.5,1647.6,242.2z M1653.8,241.6c-0.6-0.4-1.4-0.6-2.2-0.7
		c-1.2-14.9-2.5-29.8-3.7-44.7c1.2-0.3,2.3-1,3-1.9c10.6,4.6,21.1,9.1,31.7,13.5C1673.1,219.1,1663.5,230.4,1653.8,241.6z
		 M1655,242.7c-0.1-0.1-0.2-0.3-0.3-0.4c9.8-11.3,19.5-22.6,29.1-34.1c6.7,2.8,10,4.2,16.7,6.9c-0.1,0.3-0.1,0.6-0.1,0.9
		c0,0.7,0.1,1.3,0.4,1.9C1685.6,226.3,1670.3,234.5,1655,242.7z M1705.9,211.6c-0.2,0-0.4,0-0.5,0c-1.9,0-3.6,1.1-4.5,2.5
		c-6.6-2.7-9.8-4.1-16.4-6.8c13.1-15.7,26.1-31.4,39-47.3c0.3,0.1,0.6,0.3,0.9,0.3C1718.4,177.4,1712.3,194.5,1705.9,211.6z
		 M1707.2,211.8c6.3-17.1,12.5-34.2,18.6-51.3c0.1,0,0.1,0,0.2,0c0.4,0,0.7-0.1,1.1-0.1c6,15.7,12,31.3,18.1,47
		c-11.7,2.4-23.4,4.8-35.1,7.1C1709.5,213.2,1708.5,212.3,1707.2,211.8z M1759.3,248.4c-16.7-10-33.2-20.2-49.8-30.4
		c0.4-0.6,0.6-1.3,0.6-2.1c0-0.1,0-0.2,0-0.3c11.8-2.3,23.6-4.7,35.3-7.2c5,13,10.1,26,15.2,39
		C1760.2,247.6,1759.7,248,1759.3,248.4z M1765.7,247.4c-0.8-0.4-1.7-0.7-2.7-0.6c-0.4,0-0.7,0.1-1.1,0.1
		c-5.1-12.9-10.1-25.9-15.1-38.8c22.5-4.7,45-9.7,67.4-14.8c0.2,0.6,0.6,1.1,1,1.5C1798.8,212.5,1782.4,230,1765.7,247.4z
		 M1814.7,189.5c-28.2-10.4-56.2-21.2-84.1-32.3c0.2-0.4,0.2-0.9,0.2-1.3c0-1.2-0.5-2.3-1.4-3.1c11.5-13.9,22.9-27.9,34.2-41.9
		c17.2,26,34.6,51.8,52.1,77.5C1815.4,188.7,1815,189.1,1814.7,189.5z M1816.9,187.7c-17.7-25.8-35.1-51.7-52.4-77.8
		c16.4-20.5,32.6-41.3,48.5-62.1c0.5,0.3,1.1,0.4,1.8,0.5c1.5,46.4,2.6,92.7,3.4,139.1C1817.7,187.4,1817.3,187.5,1816.9,187.7z
		 M1831.2,248.6c-2.8-13.8-5.7-27.7-8.5-41.5c3.8,12.9,7.5,25.7,11.3,38.6C1832.6,246.3,1831.6,247.3,1831.2,248.6z M1836.8,245.2
		c-0.3,0-0.6,0-0.9,0c-0.3,0-0.6,0.1-0.8,0.1c-4.8-16.5-9.7-33-14.5-49.6c1.1-0.5,2.1-1.3,2.6-2.3c10.1,2.5,20.1,4.9,30.2,7.3
		C1848,215.6,1842.5,230.4,1836.8,245.2z M1823.2,189.5c14.3-9.4,28.5-18.8,42.6-28.3c0.4,0.4,0.9,0.7,1.5,1
		c-4.5,12.5-8.9,25-13.5,37.5c-10.1-2.4-20.1-4.9-30.2-7.3c0.1-0.3,0.1-0.6,0.1-0.9C1823.7,190.7,1823.5,190.1,1823.2,189.5z
		 M1839.9,246.6c-0.5-0.5-1.1-1-1.9-1.2c5.6-14.8,11.2-29.6,16.6-44.4c13.9,3.3,27.8,6.5,41.8,9.6c-0.1,0.3-0.1,0.6-0.1,0.9
		c0,0.6,0.2,1.2,0.4,1.7C1877.9,224.5,1859,235.6,1839.9,246.6z M1875.4,259.5c-11.5-3-23-6.1-34.5-9.2c0.1-0.3,0.1-0.7,0.1-1
		c0-0.6-0.1-1.2-0.4-1.7c19-11,38-22.2,56.8-33.5c0.3,0.4,0.7,0.7,1.2,0.9C1891,229.9,1883.2,244.7,1875.4,259.5z M1898.5,207.6
		c-0.7,0.5-1.3,1.1-1.7,1.9c-13.9-3.1-27.8-6.3-41.7-9.6c4.5-12.5,9-25,13.5-37.5c0.3,0,0.7,0,1,0c0.6,0,1.1-0.2,1.6-0.4
		C1880.2,177.3,1889.3,192.5,1898.5,207.6z M1919.7,99.1c-15.7,18.5-31.5,36.9-47.6,55.1c-0.8-0.4-1.7-0.6-2.7-0.6
		c-0.4,0-0.8,0.1-1.2,0.2c-0.8-1.7-1.2-2.5-2-4.2C1884.1,132.9,1902,116.1,1919.7,99.1z M1867,154.3c-1.5,0.9-2.4,2.4-2.4,4
		c0,0.7,0.2,1.4,0.5,1.9c-13.3,9-26.7,17.9-40.1,26.7c13.5-12.1,26.8-24.2,40.1-36.4C1865.9,152,1866.2,152.8,1867,154.3z
		 M1864.6,149.4c-14.1,13-28.3,25.9-42.7,38.7c-0.7-0.5-1.6-0.8-2.6-0.9c-0.8-46.3-1.9-92.5-3.4-138.8c0.1-0.1,0.2-0.2,0.3-0.3
		c0.1,0,0.2-0.1,0.3-0.1C1832.4,81.9,1848.4,115.7,1864.6,149.4z"/>
</g>
</svg>
