<?xml version="1.0" encoding="utf-8"?>
<!-- Generator: Adobe Illustrator 23.0.0, SVG Export Plug-In . SVG Version: 6.00 Build 0)  -->
<svg version="1.1" id="Capa_1" xmlns="http://www.w3.org/2000/svg" xmlns:xlink="http://www.w3.org/1999/xlink" x="0px" y="0px"
	 viewBox="0 0 142.1 48.9" style="enable-background:new 0 0 142.1 48.9;" xml:space="preserve">
<style type="text/css">
	.st0{fill:#FFFFFF;}
</style>
<g>
	<path class="st0" d="M11,48.9c8,0,11.5-4.3,11.5-10.8v-7c0-4.3-1.9-7.1-5.9-8c3.3-1,5.5-3.7,5.5-7.7v-4.1c0-6.7-3.2-10.8-10.6-10.8
		C3.3,0.3,0.4,5.2,0.4,12.2v4.2h7.3v-4.8C7.7,8.6,8.6,7,11.1,7c2.5,0,3.4,1.7,3.4,4.3v5.1c0,2.5-1.7,3.8-4.3,3.8h-3v6.1h3.4
		c2.8,0,3.9,1.3,3.9,3.8v7.8c0,2.5-1.1,4.3-3.6,4.3c-2.7,0-3.7-1.8-3.7-4.6v-6.8H0V37C0,44.2,2.9,48.9,11,48.9"/>
	<g>
		<path class="st0" d="M38.4,15.8v-2.7h3.1v2.7c0,1.1,0.5,1.8,1.6,1.8c1,0,1.5-0.7,1.5-1.8v-0.8c0-1.1-0.5-1.8-1.5-2.8l-2-2
			c-1.9-1.9-2.8-3-2.8-5.3V4.4c0-2.5,1.4-4.4,4.7-4.4c3.3,0,4.7,1.6,4.7,4.5v1.6h-3V4.4c0-1.1-0.5-1.7-1.6-1.7
			c-0.9,0-1.6,0.5-1.6,1.6v0.4c0,1.1,0.6,1.8,1.6,2.7l2.1,2.1c1.8,1.8,2.7,3,2.7,5.1v1c0,2.7-1.5,4.6-4.9,4.6
			C39.7,20.3,38.4,18.4,38.4,15.8"/>
		<path class="st0" d="M53.1,13.8h2.7l-1.3-8h0L53.1,13.8z M48.9,20.1l3.7-19.8h3.8l3.8,19.8h-3.4l-0.6-3.6h-3.5L52,20.1H48.9z"/>
		<polygon class="st0" points="61.6,0.2 64.9,0.2 64.9,17.3 68.9,17.3 68.9,20.1 61.6,20.1 		"/>
		<path class="st0" d="M79.8,0.2v15c0,3.1-1.3,5.1-4.7,5.1c-3.5,0-5-2-5-5.1v-15h3.3v15.3c0,1.2,0.5,2,1.6,2c1.2,0,1.6-0.8,1.6-2
			V0.2H79.8z"/>
		<path class="st0" d="M86.4,17.3c1.4,0,1.9-0.8,1.9-2V4.9c0-1.2-0.5-2-1.9-2H85v14.4H86.4z M91.7,5.6v9.2c0,3-1.3,5.3-4.8,5.3h-5.2
			V0.2h5.2C90.4,0.2,91.7,2.5,91.7,5.6"/>
	</g>
	<polygon class="st0" points="45.1,40.3 45.1,47.8 41.7,47.8 41.7,40.3 38,28 41.5,28 43.5,35.5 43.5,35.5 45.6,28 48.7,28 	"/>
	<path class="st0" d="M56.5,38.9v6.2h1.5c1.1,0,1.6-0.6,1.6-1.6v-3c0-1.1-0.5-1.6-1.7-1.6H56.5z M56.5,36.4h1.2
		c1.1,0,1.6-0.6,1.6-1.6v-2.4c0-1.1-0.5-1.6-1.6-1.6h-1.1V36.4z M53.2,28H58c3.3,0,4.4,1.5,4.4,4.4v2c0,1.7-0.6,2.7-2,3.2
		c1.7,0.4,2.5,1.5,2.5,3.3v2.6c0,2.8-1.3,4.4-4.6,4.4h-5.2V28z"/>
	<rect x="64.6" y="28" class="st0" width="3.3" height="19.8"/>
	<polygon class="st0" points="69.8,28 77.8,28 77.8,30.7 73.2,30.7 73.2,36.4 76.5,36.4 76.5,39.1 73.2,39.1 73.2,45.1 77.8,45.1 
		77.8,47.8 69.8,47.8 	"/>
	<polygon class="st0" points="82.4,35.4 82.4,47.8 79.6,47.8 79.6,28 82.8,28 86.4,39.4 86.4,28 89.2,28 89.2,47.8 86.3,47.8 	"/>
	<polygon class="st0" points="91.1,28 99.1,28 99.1,30.7 94.5,30.7 94.5,36.4 97.8,36.4 97.8,39.1 94.5,39.1 94.5,45.1 99.1,45.1 
		99.1,47.8 91.1,47.8 	"/>
	<path class="st0" d="M100.5,43.6v-2.7h3.1v2.7c0,1.1,0.5,1.7,1.6,1.7c1,0,1.5-0.7,1.5-1.7v-0.8c0-1.1-0.5-1.8-1.5-2.8l-2-2
		c-1.9-1.9-2.8-3-2.8-5.3v-0.7c0-2.5,1.4-4.4,4.7-4.4c3.3,0,4.7,1.6,4.7,4.5v1.6h-3v-1.7c0-1.1-0.5-1.7-1.6-1.7
		c-0.9,0-1.6,0.5-1.6,1.6v0.4c0,1.1,0.6,1.8,1.6,2.7l2.1,2.1c1.8,1.8,2.7,3,2.7,5.1v1c0,2.7-1.5,4.6-4.9,4.6
		C101.8,48.1,100.5,46.2,100.5,43.6"/>
	<polygon class="st0" points="111,28 119.9,28 119.9,30.7 117.1,30.7 117.1,47.8 113.8,47.8 113.8,30.7 111,30.7 	"/>
	<path class="st0" d="M123.6,41.5h2.7l-1.3-8h0L123.6,41.5z M119.4,47.8l3.7-19.8h3.8l3.8,19.8h-3.4l-0.6-3.6h-3.5l-0.6,3.6H119.4z"
		/>
	<path class="st0" d="M135.5,30.7v6.2h1.1c1.1,0,1.6-0.6,1.6-1.6v-2.9c0-1.1-0.5-1.6-1.6-1.6H135.5z M135.5,38.7v9.1h-3.3V28h4.9
		c3.4,0,4.6,1.7,4.6,4.4V35c0,2.1-0.8,3.4-2.7,3.8l3.2,9h-3.5L135.5,38.7z"/>
</g>
</svg>
