<?xml version="1.0" encoding="utf-8"?>
<!-- Generator: Adobe Illustrator 23.0.0, SVG Export Plug-In . SVG Version: 6.00 Build 0)  -->
<svg version="1.1" id="Capa_1" xmlns="http://www.w3.org/2000/svg" xmlns:xlink="http://www.w3.org/1999/xlink" x="0px" y="0px"
	 viewBox="0 0 1920 697.6" style="enable-background:new 0 0 1920 697.6;" xml:space="preserve">
<style type="text/css">
	.st0{fill:#234165;}
	.st1{fill:#325074;}
</style>
<path class="st0" d="M0,0h1920v319.5c-1041.3,0-891.8,549.9-1920,323.4V0z"/>
<g>
	<path class="st1" d="M1913,232.5c0.7-2.7-0.9-5.4-3.5-6.2s-5.3,0.9-6,3.6c0,0.1,0,0.2-0.1,0.3l-152.4-9.6c-0.2-2.7-2.3-4.7-5-4.7
		c-2.8,0-5,2.3-5,5.1c0,0.8,0.2,1.5,0.5,2.3l-73.4,51.1c-0.6-0.7-1.5-1.3-2.5-1.5c-2-0.5-4.1,0.3-5.3,2l-64.6-35.7
		c0.1-0.2,0.1-0.3,0.2-0.5c0.7-2.7-0.9-5.4-3.5-6.2c-2.4-0.6-4.9,0.6-5.8,3L1449.2,87c0.4-0.5,0.8-1.2,0.9-2
		c0.7-2.7-0.9-5.4-3.5-6.2s-5.3,0.9-6,3.6c-0.3,1-0.2,2.1,0.1,3l-146.6,78.4c-0.6-0.9-1.6-1.7-2.8-2c-1.1-0.3-2.2-0.2-3.2,0.2
		l-35.1-61.9c0.8-0.6,1.5-1.6,1.8-2.8c0.7-2.7-0.9-5.4-3.5-6.2c-1.8-0.5-3.7,0.2-4.9,1.6L1194,55.6c0.2-0.3,0.3-0.7,0.4-1
		c0.7-2.7-0.9-5.4-3.5-6.2s-5.3,0.9-6,3.6c-0.1,0.2-0.1,0.4-0.1,0.6l-114.5,0.1c-0.3-2-1.6-3.7-3.7-4.3c-2.6-0.7-5.3,0.9-6,3.6
		c-0.4,1.7,0.1,3.6,1.2,4.8l-41.2,52.6c-0.5-0.3-1-0.6-1.5-0.7c-2.4-0.6-4.9,0.7-5.8,3l-64.8-23.6c0-0.1,0.1-0.2,0.1-0.3
		c0.7-2.7-0.9-5.4-3.5-6.2c-1.7-0.5-3.5,0.1-4.7,1.2c-1,0.8-1.5,2-1.7,3.2l-84.1,0.1c-0.1-0.5-0.2-1-0.4-1.5
		c-1.2-2.6-4.1-3.7-6.6-2.5c-1.8,0.9-2.9,2.8-2.9,4.7l-13.8,3.5l-76.6,19.4c-1.2-2.5-4.1-3.5-6.5-2.4c-2.5,1.2-3.5,4.2-2.4,6.8
		c0.3,0.7,0.8,1.3,1.4,1.8l-41.9,69c-1.3-0.6-2.7-0.6-4.1,0.1l0,0L679,150.4c1.1-0.9,1.8-2.4,1.8-3.9c0-2.9-2.2-5.1-5-5.1
		s-5,2.3-5,5.1c0,0.8,0.2,1.6,0.5,2.3l-88.3,58c-1.4-1.7-3.8-2.4-5.9-1.3c-1.1,0.5-1.9,1.4-2.4,2.5l-59.9-19.6
		c0.2-1,0.1-2.1-0.4-3.1c-1.2-2.6-4.1-3.6-6.6-2.5c-1.2,0.5-2,1.5-2.5,2.7l-98.9-27.9c0.1-0.9,0-2-0.4-2.9c-1.2-2.6-4.1-3.7-6.6-2.5
		s-3.5,4.2-2.4,6.8c0.5,1,1.2,1.7,2.1,2.3l-25.3,64.9c-1.1-0.3-2.3-0.2-3.4,0.3c-2.2,1-3.3,3.5-2.7,5.9L216,292.6l0.2,0.6
		c-0.7-1.6-2.2-2.7-3.7-2.9l1.3-65.7c0.5-0.1,1.1-0.2,1.6-0.4c2.5-1.2,3.5-4.2,2.4-6.8c-1.2-2.6-4.1-3.7-6.6-2.5
		c-1.5,0.7-2.4,2.1-2.7,3.6L70.7,207.2c0-0.6-0.2-1.2-0.5-1.7c-0.9-1.8-2.7-3-4.6-3L58,142.9c0.2-0.1,0.4-0.1,0.6-0.2
		c2.5-1.2,3.5-4.2,2.4-6.8c-1.2-2.6-4.1-3.6-6.6-2.5c-1.3,0.6-2.2,1.9-2.6,3.2L0,131v1.3l51.6,5.7c0,0.8,0.1,1.5,0.5,2.4v0.1
		L1.9,176L0,175.1v1.4l0.6,0.3L0,177.3v1.5l2-1.4L61.1,206c-0.2,0.6-0.3,1.2-0.3,1.9L0,221.4v1.3l58.7-13.1L0.4,234.4
		c-0.1-0.2-0.3-0.4-0.4-0.6v7.6l24.1,21.8L1,294.6c-0.3-0.2-0.7-0.3-1-0.4v9.8c0.2,0,0.3-0.1,0.5-0.2l35.7,58.8
		c-1.2,0.9-1.9,2.4-2,3.9L0,369.4v1.3l34.3-3c0.1,0.4,0.2,0.7,0.4,1.1c0.3,0.6,0.7,1.2,1.2,1.6L0,424v2.4l36.9-55.2
		c0.7,0.4,1.5,0.6,2.3,0.5l5.5,52.6L1,429.6c-0.1-0.3-0.2-0.6-0.3-0.9c-0.2-0.4-0.4-0.7-0.6-1v7.2l46.3,37.5c-0.8,1.4-1,3.2-0.2,4.8
		c0.5,1.1,1.5,2.1,2.5,2.5l-23,82.7c-0.9-0.1-1.9,0-2.8,0.4c-2.5,1.2-3.5,4.2-2.4,6.8c1,2.2,3.2,3.3,5.4,2.9l18.7,61.4l0,0
		c-2.5,1.2-3.5,4.2-2.4,6.8c1.2,2.6,4.1,3.6,6.6,2.5c1.3-0.6,2.3-1.9,2.6-3.2l76.8,12.6c0,0.8,0.1,1.5,0.5,2.4
		c1.2,2.6,4.1,3.6,6.6,2.5c2.5-1.2,3.5-4.2,2.4-6.8c0-0.1-0.1-0.2-0.1-0.3L261.3,557c0.9,0.8,2,1.3,3.3,1.3c2.8,0,5-2.3,5-5.1
		c0-0.1,0-0.3,0-0.4l70.2-16.1c0.7,2,2.5,3.4,4.7,3.4c2.8,0,5-2.3,5-5.1c0-2.1-1.2-3.8-2.9-4.6l8.6-27.5c0.2,0,0.4,0.1,0.6,0.1
		c2,0,3.7-1.2,4.6-3l117,29.9c-0.3,0.6-0.5,1.4-0.5,2.2c0,2.9,2.2,5.1,5,5.1c2.8,0,5-2.3,5-5.1c0-1.1-0.4-2.3-1-3.1l94.5-63.8
		c1.4,0.9,3.2,1.1,4.8,0.4c2.5-1.2,3.6-4.2,2.4-6.8c-0.4-0.9-1.2-1.7-2-2.3l64.3-157.2c1.1,0.3,2.3,0.2,3.4-0.3
		c1-0.5,1.8-1.3,2.3-2.3l65.9,24.6c-0.2,1-0.1,2.3,0.3,3.3c1.2,2.6,4.1,3.6,6.6,2.5c1.7-0.8,2.8-2.6,2.8-4.4l63.6-5.9
		c0.1,0.4,0.2,0.7,0.4,1c1.2,2.6,4.1,3.7,6.6,2.5c1.6-0.8,2.6-2.4,2.8-4l88.6-3.6c0.4,2.5,2.5,4.3,5,4.3c2.8,0,5.1-2.4,5.1-5.3
		c0-2.7-2-4.9-4.6-5.1l-2.8-67.9c0.7,0,1.4-0.2,2-0.5c2.5-1.2,3.6-4.2,2.4-6.8c-0.8-1.6-2.3-2.7-3.9-2.9l-1-67.7
		c0.5-0.1,1.1-0.2,1.6-0.4c2.3-1.1,3.4-3.8,2.6-6.2l37.9-14.4c1.5,0.3,3.1-0.2,4.2-1.2l64.3,55.1c-0.3,0.4-0.5,0.9-0.6,1.4
		c-0.7,2.7,0.9,5.4,3.5,6.2c1.9,0.5,3.9-0.2,5.1-1.8l12.7,6.3l70.5,35.3c-0.6,2.7,1,5.3,3.6,6.1c2.6,0.7,5.3-0.9,6-3.6
		c0.2-0.8,0.2-1.5,0-2.4l74.8-25.4c0.6,1.2,1.7,2.3,3.2,2.7l0,0l-4.8,40.3c-2.5,0.3-4.4,2.5-4.4,5.1c0,2.9,2.2,5.1,5,5.1
		c2.1,0,4-1.4,4.7-3.4L1288,279c0,2.3,1.5,4.3,3.7,4.9c1.2,0.3,2.3,0.2,3.3-0.3l33.6,54.2c-0.8,0.6-1.3,1.5-1.6,2.6
		c-0.7,2.7,0.9,5.4,3.5,6.2c1.2,0.3,2.5,0.1,3.5-0.4l28,41.3c0.4-0.1,0.9-0.2,1.3-0.3l-28.2-41.7c0.7-0.6,1.2-1.5,1.5-2.5
		c0.1-0.5,0.2-1,0.2-1.5l45.7-8.8l5.9,48.1c0.3-0.1,0.7-0.2,1-0.2c0.1,0,0.2,0,0.3-0.1l-5.9-48l73.1-14.1c0.3,1,0.9,1.8,1.7,2.5
		l-27.3,49.6l0,0c0.6-0.1,1.1-0.2,1.7-0.4l26.7-48.6c0.2,0.1,0.4,0.2,0.6,0.2c0.3,0.1,0.5,0.1,0.8,0.1l1.3,41.7
		c0.3-0.1,0.6-0.1,0.9-0.2c0.1,0,0.3-0.1,0.4-0.1l-1.2-41.5c1.6-0.3,3-1.3,3.7-2.9l54,15.4c-0.3,1.3-0.1,2.6,0.5,3.7l-23.9,18.6
		c0.9-0.2,1.9-0.3,2.8-0.5l18.5-14.4l-13,13.4c0.6-0.1,1.1-0.2,1.7-0.3c0.2,0,0.3-0.1,0.5-0.1l14.7-15.1c0.5,0.4,1.1,0.7,1.8,0.9
		c1.5,0.4,3.1,0,4.3-0.9l8.5,10c0.2,0,0.4-0.1,0.6-0.1c0.3,0,0.6-0.1,0.8-0.1l-9.1-10.7c0.1-0.2,0.2-0.4,0.3-0.5l18.2,9.6
		c0.7-0.1,1.4-0.2,2.1-0.3l0,0l-19.9-10.4l0,0c0.2-0.9,0.2-2-0.1-2.9l79.2-32l10,35.2c0.4-0.1,0.9-0.1,1.3-0.2l-10.1-35.5l50.2-20.2
		c0.5,1,1.4,1.8,2.5,2.3l-12.6,49.9c0.4,0,0.8-0.1,1.1-0.1c0.1,0,0.1,0,0.2,0l12.5-49.4c0.9,0.1,1.8,0,2.6-0.4l27.2,45.4
		c0.5,0,0.9-0.1,1.4-0.1l-27.5-46c0.6-0.5,1.2-1.2,1.5-2.1l89.9,23.9c-0.1,1,0.1,2.1,0.5,2.9l-26.2,18c0.2,0,0.4,0,0.7,0
		c0.6,0,1.3-0.1,1.9-0.1l24.4-16.7c0.2,0.2,0.4,0.4,0.6,0.6L1752,324c0.4,0,0.8-0.1,1.3-0.1c0.1,0,0.2,0,0.3,0l8.4-14.2
		c0.2,0.1,0.5,0.2,0.8,0.3c0.7,0.2,1.4,0.2,2,0.1l3.6,12.8c0.4,0,0.9-0.1,1.3-0.1l-3.7-13.1c1.3-0.6,2.4-1.9,2.8-3.4
		c0.2-0.7,0.2-1.5,0.1-2.3l19.5-6.7l50.2-17.4c0.1,0.1,0.1,0.2,0.2,0.3l-51.4,41.5c0.7,0,1.5-0.1,2.2-0.1l49.9-40.4
		c0.5,0.5,1,0.8,1.6,1.1l-9,37.3c0.4,0,0.7,0,1.1,0c0.1,0,0.2,0,0.2,0l8.8-36.7l0.4-0.3c0.1,0,0.2,0,0.4,0l4.7,36.5
		c0.4,0,0.9,0,1.3,0l-4.7-36.6c0.7-0.2,1.3-0.5,1.9-1l38.9,36.8c0.6,0,1.2,0,1.9,0l-39.9-37.7c0.3-0.4,0.5-0.9,0.7-1.4l72.6,12.9
		v-1.3l-71.5-12.7l56.1-42.6c0.6,0.6,1.4,1.1,2.3,1.4c0.6,0.2,1.1,0.2,1.7,0.1l11.4,51.8v-6l-10.1-46.1c0.4-0.1,0.7-0.3,1-0.5
		l9.1,10.7v-2l-8.1-9.5C1912.4,234,1912.8,233.3,1913,232.5z M1586.6,239.3l-84.1,50l-17.4-33.9c1-0.7,1.7-1.6,2-2.9
		c0.1-0.4,0.1-0.7,0.2-1.1l99.1-12.7C1586.4,238.8,1586.5,239,1586.6,239.3z M1586.2,237.2l-99.1,12.7c-0.4-1.7-1.7-3.3-3.6-3.7
		c-0.6-0.2-1.2-0.2-1.7-0.1l-11.6-52.4l116,42.9C1586.2,236.8,1586.2,237,1586.2,237.2z M1369.2,258.9l-71.7,17.5
		c-0.1-0.3-0.3-0.6-0.5-0.9l51.9-43.6l21.4,23.3c-0.4,0.5-0.8,1.2-1,2C1369.2,257.8,1369.2,258.4,1369.2,258.9z M1349.9,231
		l64.2-53.9c0.2,0.2,0.4,0.3,0.6,0.5l-23,45l-15.9,31.1c-0.2-0.1-0.3-0.1-0.5-0.1c-1.5-0.4-3-0.1-4.1,0.8L1349.9,231z M1393.2,222.6
		l22.7-44.4c0.2,0.1,0.3,0.1,0.5,0.1c0.7,0.2,1.4,0.2,2.1,0.1l22.1,75l-61.4,4c-0.2-1.2-1-2.5-2-3.2L1393.2,222.6z M1419.6,178
		c0.2-0.1,0.5-0.2,0.7-0.4l58.4,70.2c-0.5,0.6-0.9,1.2-1.1,2.1c-0.1,0.3-0.1,0.7-0.2,1l-35.7,2.3L1419.6,178z M1421.2,176.8
		c0.3-0.3,0.5-0.7,0.7-1l46.9,17.4l11.8,53.2c-0.4,0.1-0.7,0.3-1.1,0.5L1421.2,176.8z M1448.3,87.9l135.8,146.6L1470,192.1
		l-23-103.5C1447.5,88.4,1447.9,88.2,1448.3,87.9z M1445.8,88.9l22.7,102.8l-46.2-17.1c0.5-2.4-0.7-4.7-2.7-5.6l24.8-80
		C1444.9,88.9,1445.4,88.9,1445.8,88.9z M1441.3,86.7c0.5,0.7,1.2,1.3,2,1.7l-24.8,80c-2.5-0.5-5,1.1-5.7,3.7c0,0.1-0.1,0.2-0.1,0.4
		l-117.7-6.1c0-0.5-0.1-0.9-0.3-1.3L1441.3,86.7z M1294.8,168.1c0-0.1,0.1-0.2,0.1-0.4l117.7,6.1c0.1,0.8,0.3,1.6,0.7,2.3l-64.3,54
		l-55.1-60C1294.3,169.5,1294.7,168.8,1294.8,168.1z M1248.7,101c1.1,0.3,2.2,0.2,3.2-0.2l35.1,62c-0.1,0.1-0.1,0.1-0.2,0.2
		l-48.2-44.7c0.3-0.5,0.6-1,0.7-1.6c0.4-1.7-0.1-3.5-1.2-4.7l9.2-11.4C1247.8,100.7,1248.2,100.9,1248.7,101z M1285.3,168.2
		l-26.9,12l-21.5-60.3c0.3-0.2,0.6-0.4,0.9-0.6l48.2,44.6c-0.3,0.5-0.6,1-0.7,1.6C1285,166.5,1285.1,167.4,1285.3,168.2z
		 M1257.2,180.7l-66.9,29.7c-0.4-0.6-0.9-1.2-1.5-1.6l29-58.3l15.1-30.3c0.1,0,0.3,0.1,0.4,0.1c0.8,0.2,1.6,0.2,2.3,0L1257.2,180.7z
		 M1246.4,99.6l-9.2,11.4c-0.4-0.3-0.9-0.5-1.4-0.6c-1.3-0.3-2.6-0.1-3.7,0.5l-9-12.4L1245,97C1245.3,98,1245.8,98.9,1246.4,99.6z
		 M1088.8,89.7l94.5-33.5l-80.9,47.1c-0.6-0.9-1.6-1.5-2.7-1.8c-1.2-0.3-2.3-0.2-3.4,0.3L1088.8,89.7z M1095.3,102.5
		c-0.8,0.6-1.3,1.5-1.6,2.6c-0.1,0.4-0.1,0.7-0.2,1.1l-70.6,6.9l64.7-22.9L1095.3,102.5z M1103.2,107.7c0-0.1,0-0.2,0.1-0.3
		l43.9,2.9l82.4,5.4c0.1,0.9,0.4,1.8,0.9,2.6l-68.3,64.8l-60.1-73.2C1102.6,109.2,1103,108.5,1103.2,107.7z M1229.8,114.1
		c0,0.1,0,0.2-0.1,0.3l-121.5-8l113.5-7.7l9.5,13C1230.5,112.3,1230,113.2,1229.8,114.1z M1193.3,56.7l52.3,37.1
		c-0.2,0.3-0.3,0.7-0.4,1c-0.1,0.3-0.1,0.6-0.1,0.9l-22.7,1.6l-29.3-40.4C1193.1,56.8,1193.2,56.8,1193.3,56.7z M1185.7,56.3
		c0.6,0.9,1.6,1.5,2.7,1.8c1.3,0.3,2.6,0.1,3.7-0.5l28.8,39.7l-117.5,7.9c-0.1-0.3-0.2-0.6-0.3-0.9L1185.7,56.3z M1070.1,54.7
		c0.1-0.2,0.1-0.4,0.1-0.6l114.5-0.1c0,0.1,0,0.2,0.1,0.4l-96.7,34.3l-19.6-31.4C1069.3,56.6,1069.8,55.7,1070.1,54.7z M1062.7,57.7
		c0.4,0.2,0.9,0.4,1.3,0.6c1.2,0.3,2.3,0.2,3.4-0.3l19.4,31.1l-64.4,22.8c-0.2-0.5-0.5-1.1-0.9-1.5L1062.7,57.7z M1022.6,115
		c0-0.2,0.1-0.3,0.1-0.5l71-6.9c0.2,0.7,0.5,1.3,0.9,2l-47.8,48.1l-26-39.8C1021.6,117.2,1022.3,116.1,1022.6,115z M947.4,90.1
		c0.2-0.2,0.3-0.4,0.5-0.6l65,23.6l0.2-0.6c-0.2,0.6-0.2,1.2-0.1,1.8l-39.6,10.3c-1.3-2.2-4-3.1-6.3-1.9c-0.2,0.1-0.3,0.1-0.4,0.2
		l-6.8-11L947,90.6C947,90.5,947.2,90.3,947.4,90.1z M944.1,91.9c0.5-0.1,1-0.2,1.4-0.4l13.4,21.6l6.5,10.7
		c-0.3,0.4-0.6,0.8-0.8,1.2l-23.6-8L944.1,91.9z M941.1,91.4c0.6,0.3,1.2,0.5,1.8,0.6l-3,24.7l-13.5-4.5L941.1,91.4z M854.4,87.6
		l84.1-0.1c0.1,0.5,0.2,1,0.4,1.5c0.3,0.6,0.6,1.1,1.1,1.5l-15,21.1l-70.7-23.8C854.4,87.8,854.4,87.7,854.4,87.6z M849.9,92
		c0.6,0,1.2-0.2,1.7-0.5c0.2-0.1,0.4-0.2,0.6-0.3l39.5,60.2c-0.5,0.4-0.8,0.9-1.1,1.4l-45.3-13.6L849.9,92z M890.4,157.5
		c0.1,0.2,0.2,0.3,0.2,0.5l-50.5,52.2c-0.6-0.4-1.2-0.7-1.9-0.9l6.8-68.7l45,13.5C889.8,155.1,889.9,156.4,890.4,157.5z
		 M841.6,212.1c-0.2-0.3-0.3-0.6-0.6-0.9l50.3-51.9l-35.7,60.4l-13.7-4.4C842.1,214.1,842,213,841.6,212.1z M841.6,216.4l13.4,4.3
		l-6.8,11.4l-8.5-13.7C840.5,217.9,841.2,217.2,841.6,216.4z M856.2,221.1l34.7,11.2c-0.2,1-0.1,2.1,0.4,3.1
		c0.1,0.2,0.2,0.4,0.3,0.5l-26.8,23l-15.9-25.6L856.2,221.1z M891.3,231.1l-34.4-11.1l35.5-60.2c0.5,0.3,1.1,0.5,1.6,0.6l1.1,67.8
		c-0.5,0.1-0.9,0.2-1.4,0.4C892.6,229.1,891.8,230,891.3,231.1z M775.8,105.7l69-17.4c0.1,0.3,0.2,0.5,0.3,0.7
		c0.7,1.5,2.1,2.6,3.6,2.9l-4.7,47l-89.2-26.8c0-0.3,0-0.7-0.1-1.1L775.8,105.7z M754.5,113.5l89.3,26.8l-6.9,68.9
		c-0.7,0-1.3,0.2-2,0.5c-0.2,0.1-0.4,0.2-0.6,0.4l-80.4-95C754.2,114.5,754.4,114,754.5,113.5z M750.1,117.3c0.6,0,1.2-0.2,1.7-0.4
		c0.5-0.2,0.9-0.5,1.2-0.8l80.3,94.9c-0.5,0.5-0.8,1.1-1,1.9l-92.3-17L750.1,117.3z M730.7,294.9c0-0.1-0.1-0.2-0.1-0.3l98.9-74
		l-82.9,80.8l-15.5-3.8C731.2,296.7,731.1,295.8,730.7,294.9z M797,243.4l-67.1,50.2c-0.6-0.7-1.4-1.1-2.3-1.4l12.3-95.1l92.3,16.8
		c0,0.8,0.1,1.6,0.5,2.5c0,0.1,0.1,0.2,0.1,0.3L797,243.4z M747.8,116.9c0.3,0.1,0.7,0.3,1.1,0.3l-10.2,78.4l-31-5.6
		c0-0.8-0.1-1.5-0.5-2.4c-0.3-0.7-0.8-1.3-1.4-1.8L747.8,116.9z M701,194.7c0.7,0.3,1.4,0.4,2.2,0.3l14,64.1l7.3,33.4
		c-0.1,0.1-0.3,0.1-0.4,0.2c-0.7,0.4-1.4,0.9-1.8,1.5l-54.4-32.5L701,194.7z M666.8,261l-82.9-49.3c0.2-0.6,0.3-1.2,0.3-2L698,191.2
		c0.1,0.3,0.2,0.6,0.3,0.8c0.4,0.8,0.9,1.5,1.6,1.9L666.8,261z M671.8,150c0.9,1.1,2.3,1.7,3.8,1.7c0.8,0,1.5-0.2,2.2-0.5l21.8,34.8
		c-1.1,1-1.8,2.5-1.8,3.9L584,208.6c-0.1-0.2-0.1-0.4-0.2-0.6L671.8,150z M581.3,214.6c0.3-0.2,0.6-0.3,0.9-0.6l65.2,76.6
		c-0.5,0.6-0.9,1.3-1.1,2.2l-80.1-9.9l12.9-67.9C579.9,215.1,580.6,215,581.3,214.6z M369.4,438.9l-72.3,15
		c-0.1-0.2-0.1-0.3-0.2-0.5c-0.4-0.8-0.9-1.4-1.6-1.9l26-48.7l48.5,33.4C369.5,437.1,369.3,438,369.4,438.9z M55.1,472.8
		c-0.3-0.7-0.8-1.3-1.4-1.8l25.5-43.2l-21.1,53.5l-3.5-3.3C55.6,476.5,55.9,474.5,55.1,472.8z M52.6,470.3c-0.6-0.3-1.2-0.4-1.9-0.4
		l-4.6-44.4l31.9-3.9c0.1,0.3,0.2,0.6,0.3,0.9c0.3,0.7,0.8,1.3,1.4,1.8L52.6,470.3z M81.5,425.3c0.9,0.2,1.9,0.2,2.8-0.1l68,144.1
		l-0.1,0.5c-0.1,0.1-0.2,0.1-0.3,0.2l-92.8-88L81.5,425.3z M287.7,457.2l-84.4,41c-0.5-0.8-1.3-1.5-2.2-1.9l18.8-65l67.7,23.4
		C287.4,455.5,287.4,456.3,287.7,457.2z M183.5,416.5c-0.5,0.7-0.9,1.5-1,2.5l-94.8,0.7c-0.1-0.5-0.2-1-0.4-1.4
		c0-0.1-0.1-0.2-0.2-0.3l56.1-42.6L183.5,416.5z M109.9,339.5c0.4-0.5,0.6-1,0.8-1.6l61.2,10.9c0,0.8,0.1,1.6,0.5,2.4
		c0,0.1,0.1,0.2,0.2,0.3l-29.2,22.3L109.9,339.5z M87.7,421l94.8-0.7c0.1,0.5,0.2,1,0.4,1.4c0.6,1.3,1.6,2.2,2.8,2.7l-12.1,58
		l-86.5-59.7C87.4,422.1,87.6,421.6,87.7,421z M187,424.7c0.2,0,0.3,0,0.5,0l10.3,71.2c-0.3,0.1-0.5,0.2-0.8,0.3
		c-0.6,0.3-1.2,0.7-1.6,1.2l-20.6-14.2L187,424.7z M188.8,424.5c0.3-0.1,0.5-0.2,0.8-0.3c1.2-0.5,2-1.5,2.5-2.7l26.7,9.2l-18.8,65
		c-0.3,0-0.6-0.1-0.9-0.1L188.8,424.5z M219.1,429.6l-26.7-9.2c0.1-0.9,0-2-0.4-2.9c-0.2-0.5-0.5-0.9-0.9-1.3l49.7-63.6
		c0.2,0.1,0.4,0.2,0.6,0.3L219.1,429.6z M189.8,415.2c-0.2-0.1-0.5-0.2-0.8-0.3l12.7-65.9l36.6-0.1c0.1,0.5,0.2,1,0.4,1.5
		s0.5,0.9,0.9,1.3L189.8,415.2z M200.7,347.6l-19,0c-0.1-0.3-0.2-0.6-0.3-0.9c-0.3-0.7-0.8-1.3-1.3-1.7l29.4-45.3
		c0.2,0.1,0.3,0.2,0.5,0.2L200.7,347.6z M181.8,349l18.6,0l-12.7,65.6c-0.3,0-0.7,0-1,0l-8.3-60.8c0.2-0.1,0.3-0.1,0.5-0.2
		C180.7,352.7,181.8,350.8,181.8,349z M185.5,415c-0.1,0-0.1,0-0.2,0.1c-0.3,0.2-0.6,0.4-0.9,0.6l-40.2-41l29.1-22
		c1,1.1,2.5,1.6,3.9,1.5L185.5,415z M172.1,347.4l-61.2-10.9c0-0.8-0.1-1.6-0.5-2.4c-0.2-0.4-0.4-0.7-0.7-1l29-31.6l34.5,43.8
		C172.7,345.9,172.3,346.6,172.1,347.4z M142.2,374.4l-55.9,42.4c-0.5-0.5-1-0.9-1.6-1.1l20.5-74.2c0.9,0.1,1.9,0,2.8-0.4
		c0.3-0.2,0.6-0.3,0.9-0.6L142.2,374.4z M85.5,424.6c0.4-0.2,0.7-0.5,1-0.9l86.9,60.1L155.6,569c-0.6-0.1-1.3,0-2,0.2L85.5,424.6z
		 M174.5,484.7l20.2,13.9c-0.7,1.3-0.7,3-0.1,4.4c0.3,0.7,0.8,1.3,1.4,1.7l-10.8,18.1l-27.9,46.5c-0.1-0.1-0.2-0.1-0.4-0.2
		L174.5,484.7z M197.1,505.5c1.3,0.6,2.8,0.6,4.2,0c2.1-1,3.2-3.4,2.8-5.6l17.8,15.8l-63.3,54.6c-0.1-0.1-0.1-0.1-0.2-0.2
		L197.1,505.5z M204.8,498.8l83.5-40.4l-65.5,56.4L204.8,498.8z M288,453.4L220.3,430l22.2-76.7c0.8,0.1,1.5,0.1,2.3-0.2l45,98.3
		C289,451.9,288.4,452.6,288,453.4z M245.9,352.5c0.4-0.3,0.8-0.6,1.1-0.9l73.3,50.5l-26.1,48.8c-1-0.4-2.2-0.5-3.3-0.1L245.9,352.5
		z M248.2,347.7l61.5-14.2l18.1-4.1l32.5-7.5l0,0c0.4,0.9,1.1,1.6,1.8,2.2L321,400.9l-73.3-50.5
		C248.1,349.6,248.3,348.7,248.2,347.7z M322,401.6l41.3-77.2c0.4,0.1,0.9,0.2,1.4,0.2l1.6,19.9l7,88.9c-0.4,0.1-0.7,0.2-1.1,0.4
		c-0.6,0.3-1.2,0.7-1.6,1.2L322,401.6z M367.6,345.4l-1.6-20.9c0.3-0.1,0.6-0.2,0.9-0.3c0.9-0.4,1.6-1,2-1.9l40.3,17l-33.8,94.1
		c-0.3-0.1-0.6-0.1-0.9-0.1L367.6,345.4z M451.9,360.6c0.5-0.3,1-0.6,1.4-1l41.7,32.7L455.6,407l-4.7-46
		C451.3,360.9,451.6,360.8,451.9,360.6z M448.7,351l-19.4-55.8c0.3-0.4,0.5-0.9,0.7-1.3l48.7,32.9L452.8,352
		C451.7,351,450.2,350.7,448.7,351z M454.1,358.5c0.2-0.3,0.4-0.7,0.5-1.1l89,15.5c0,0.4,0,0.8,0.1,1.3l-47.2,17.6L454.1,358.5z
		 M454.8,356.2c0-0.7-0.1-1.5-0.5-2.3c-0.2-0.3-0.3-0.6-0.5-0.9l26.1-25.3l64.1,43.2c-0.1,0.2-0.2,0.5-0.3,0.7L454.8,356.2z
		 M479.7,325.9l-49.4-33.3c0-0.3,0-0.6,0-1l93.8-11.3c0.1,0.3,0.2,0.6,0.3,0.9s0.3,0.6,0.5,0.8L479.7,325.9z M524,279l-62.4,7.5
		l-31.6,3.9c0-0.1,0-0.1-0.1-0.2c-0.2-0.5-0.5-0.9-0.9-1.3l47.6-59.1l48.2,46.3C524.3,276.9,524,277.9,524,279z M447.5,351.5
		c-0.9,0.4-1.5,1.1-2,2l-34.6-14.6l14.9-41.4c0.6,0,1.2-0.2,1.7-0.5c0.3-0.1,0.6-0.3,0.9-0.5L447.5,351.5z M409.7,338.3l-40.2-17
		c0.3-0.8,0.3-1.7,0.1-2.7l51.4-23.8c0.7,1.3,2,2.2,3.3,2.5L409.7,338.3z M420.6,293.7l-51.3,23.7c-0.6-1.2-1.6-2.1-2.7-2.5
		l16.1-71.1l39,45.2C420.6,290.3,420.2,292,420.6,293.7z M410.5,340l34.5,14.6c-0.3,1.1-0.2,2.4,0.3,3.6c0.2,0.3,0.4,0.7,0.6,1
		l-68.6,75.3c-0.2-0.1-0.4-0.3-0.6-0.4L410.5,340z M446.8,360.1c0.8,0.6,1.8,1,2.8,1l4.7,46.4l-75.8,28.3c-0.1-0.2-0.2-0.3-0.3-0.5
		L446.8,360.1z M454.5,408.9l3.3,32.6c-1.9,0.1-3.5,1.3-4.3,3.1l-71.9-8.5L454.5,408.9z M455.8,408.4l40.5-15.1l33.5,26.2L518.9,448
		c-0.4-0.1-0.7-0.1-1.1-0.1c-2.3,0-4.1,1.5-4.8,3.6l-49.7-5.9c-0.4-2.2-2-3.8-4-4.2L455.8,408.4z M530.8,420.5l47.9,37.6
		c-0.2,0.4-0.4,0.8-0.5,1.3l-55.5-6.6c-0.1-1.8-1.2-3.4-2.7-4.2L530.8,420.5z M530.2,418.3l-32.5-25.5l46.4-17.3
		c0.4,0.8,1,1.5,1.8,1.9L530.2,418.3z M544.7,369.8l-63.9-43.1l44.9-43.7c1,0.8,2.3,1.2,3.5,1.1l7.3,35l10.2,49.2
		c-0.2,0.1-0.3,0.1-0.5,0.2C545.7,368.8,545.2,369.2,544.7,369.8z M537.7,318.2l-7.2-34.4c0.2-0.1,0.3-0.1,0.5-0.2
		c1.4-0.7,2.3-2,2.7-3.4l31,3.8l-16,84c-0.2,0-0.5,0-0.7,0L537.7,318.2z M566,284.2l80.2,9.9c0,0.7,0.1,1.4,0.5,2.2
		c0.1,0.1,0.1,0.2,0.2,0.3l-94.8,72.9c-0.6-0.6-1.2-1-2-1.2L566,284.2z M577.9,214.9L565,282.8l-31.1-3.8c0-0.7-0.1-1.4-0.5-2.2
		c-0.3-0.5-0.6-1-1-1.4l44.5-60.8C577.2,214.7,577.6,214.8,577.9,214.9z M512.1,192c1.1-0.5,1.9-1.4,2.4-2.5l59.9,19.6
		c-0.2,1-0.1,2.1,0.4,3.1c0.3,0.6,0.7,1.1,1.1,1.5l-44.5,60.7c-0.9-0.5-1.9-0.7-2.9-0.6l-16.9-81.7C511.8,192.1,511.9,192,512.1,192
		z M507.3,191.7c0.9,0.6,2,0.8,3,0.8l16.9,81.7c-0.2,0.1-0.3,0.1-0.5,0.2c-0.4,0.2-0.7,0.4-1,0.7l-48.3-46.4L507.3,191.7z
		 M406.1,158.9l98.9,27.9c-0.1,0.9,0,2,0.4,2.9c0.2,0.5,0.5,0.9,0.9,1.3l-29.8,37l-70.9-68C405.8,159.5,406,159.2,406.1,158.9z
		 M403.7,161.4c0.4-0.2,0.7-0.4,1-0.7l71,68.1L428,288c-0.9-0.5-1.9-0.8-2.9-0.8L403,161.6C403.3,161.6,403.5,161.5,403.7,161.4z
		 M401.1,161.9c0.2,0,0.5,0,0.7,0l22.1,125.5c-0.2,0.1-0.4,0.1-0.6,0.2s-0.5,0.2-0.7,0.4l-39.6-46L401.1,161.9z M399.1,165L382,241
		l-5.6-6.5c1.3-1.4,1.6-3.6,0.8-5.6c-0.5-1-1.2-1.7-2.1-2.3L399.1,165z M374.7,235.8c0.2-0.1,0.5-0.2,0.7-0.4l6.2,7.2l-15.3,67.8
		l6.5-74.1C373.4,236.2,374.1,236,374.7,235.8z M368.2,233.5c0.7,1.3,1.9,2.3,3.3,2.6l-6.9,78.5c-0.6,0-1.3,0.2-1.9,0.5
		c-1.5,0.7-2.4,2.1-2.7,3.5l-143.2-22.9c0-0.6,0-1.3-0.2-2L368.2,233.5z M216.5,296.9l143.4,22.9c0,0.2,0,0.4,0.1,0.6l-82.3,19.1
		l-29.8,6.8c-0.1-0.1-0.1-0.3-0.2-0.4c-1.2-2.6-4.1-3.6-6.5-2.5l-26.6-44C215.5,298.9,216.1,298,216.5,296.9z M213.5,300.1
		l26.7,44.1c-1,0.8-1.6,2.1-1.8,3.3l-36.4,0.1l9.1-47.3C211.9,300.4,212.7,300.4,213.5,300.1z M212.6,224.5l-1.3,65.7
		c-0.5,0.1-1.1,0.2-1.6,0.4c-2.5,1.2-3.5,4.2-2.4,6.8c0.3,0.6,0.6,1.1,1.1,1.5L179,344.2l-0.1,0L212.6,224.5L212.6,224.5z
		 M210.4,223.7c0.3,0.2,0.6,0.4,0.9,0.5l-33.7,119.7c-0.9-0.1-1.9,0-2.9,0.4c-0.2,0.1-0.3,0.2-0.5,0.3l-34.6-44L210.4,223.7z
		 M70.7,208.5l137.7,11.2c0,0.6,0.2,1.3,0.5,2c0.2,0.4,0.4,0.7,0.7,1L139,299.5l-69.5-88.3C70.1,210.5,70.5,209.6,70.7,208.5z
		 M67.9,212.2c0.2-0.1,0.3-0.2,0.5-0.3l69.6,88.6l-29.1,31.7c-1.1-0.8-2.5-1.1-3.8-0.9L67.9,212.2C67.9,212.3,67.9,212.2,67.9,212.2
		z M66.6,212.6l37.2,119c-0.4,0.2-0.8,0.5-1.2,0.8l-76.8-69.6l37.3-50.9C64.2,212.6,65.4,212.9,66.6,212.6z M3.2,176.6l49.6-35.1
		c1,1.2,2.5,1.8,4,1.7l7.6,59.5c-0.3,0.1-0.5,0.2-0.7,0.3c-0.9,0.4-1.5,1-2,1.8L3.2,176.6z M0.2,239.7c0.8-1.2,1.1-2.7,0.7-4.2
		l60.5-25.6c0.2,0.4,0.5,0.8,0.8,1.1l-37.3,50.8L0.2,239.7z M25,263.9l76.8,69.6c-0.1,0.2-0.2,0.4-0.3,0.6l-98.1-34
		c0.3-1.1,0.2-2.3-0.3-3.4c-0.3-0.6-0.6-1-1-1.4L25,263.9z M3,301.4l98.1,34c-0.2,1-0.1,2.2,0.4,3.2c0.5,1.1,1.5,2.1,2.5,2.5
		l-20.5,74.2c-0.9-0.1-1.9,0-2.8,0.4c-0.1,0-0.1,0.1-0.2,0.1l-78.7-113C2.3,302.4,2.7,301.9,3,301.4z M44,365.8l27.8,40l-28.9-35.9
		C43.8,368.8,44.3,367.2,44,365.8z M37.3,361.9L9.7,316.4l31.8,45.7C40.2,361.4,38.7,361.3,37.3,361.9z M40.4,371.6
		c0.3-0.1,0.5-0.2,0.8-0.3s0.5-0.3,0.7-0.4l37.2,46.1c-0.8,0.9-1.3,2.2-1.3,3.4l-31.9,3.9L40.4,371.6z M48.5,470.3
		c-0.5,0.2-1,0.6-1.4,0.9L0.4,433.5c0.4-0.7,0.7-1.6,0.7-2.6l43.7-5.3l4.6,44.4C49.1,470.1,48.8,470.2,48.5,470.3z M49.9,480
		c0.9,0.1,1.9,0,2.8-0.4c0.4-0.2,0.7-0.4,1.1-0.7l3.8,3.7l-28.8,73.1L49.9,480z M58.6,483.4L151,571c-0.4,0.6-0.7,1.3-0.8,2.1
		l-120.4-6.2c0-0.6-0.2-1.2-0.5-1.7c-0.5-1-1.2-1.7-2.1-2.3L58.6,483.4z M150.5,576l-64.8,38.4l-56.5-44.5c0.3-0.5,0.5-1,0.6-1.6
		l120.4,6.2C150.2,574.9,150.3,575.4,150.5,576z M45.7,633.3L27,572l0,0c0.5-0.3,1-0.6,1.4-1l56.1,44.2l-34,20.2
		C49.4,633.7,47.5,633,45.7,633.3z M128.3,651l-76.8-12.6c0-0.7-0.1-1.4-0.4-2.1L85.6,616l43.1,33.9
		C128.6,650.3,128.4,650.6,128.3,651z M130.9,647.8c-0.5,0.3-1,0.6-1.4,1l-42.7-33.6l63.6-37.6l-16.8,69.8
		C132.7,647.3,131.8,647.4,130.9,647.8z M136.6,649c-0.5-0.5-1.1-0.9-1.8-1.2l16.8-70c1.4,1.4,3.6,1.8,5.6,0.9
		c1.9-0.9,2.9-2.9,2.9-4.8l99.7-18.9c0.1,0.4,0.3,0.7,0.5,1L136.6,649z M259.4,553c0,0.2,0,0.4,0.1,0.5l-99.6,18.9
		c-0.1-0.2-0.1-0.4-0.2-0.6c-0.1-0.2-0.2-0.4-0.3-0.6l63.4-54.7l37.6,33.5C259.8,550.9,259.4,551.9,259.4,553z M264.4,547.9
		c-1.2,0-2.3,0.5-3.2,1.2l-37.5-33.4l65.3-56.3c0.4,0.4,0.9,0.7,1.4,0.9l-24.8,87.8C265.3,548,264.9,547.9,264.4,547.9z
		 M339.3,534.8c0,0.1,0,0.3,0,0.4l-70.2,16.1c-0.4-1.1-1.2-2.2-2.3-2.8l24.8-87.9c0.8,0.1,1.6,0,2.4-0.2l46.9,70.5
		C340,531.9,339.3,533.3,339.3,534.8z M345.2,529.6c-0.3-0.1-0.6-0.1-0.9-0.1c-0.8,0-1.6,0.2-2.3,0.6l-46.7-70.4
		c0.2-0.1,0.3-0.3,0.5-0.4l55.3,35.9c-0.3,0.6-0.5,1.4-0.5,2.2c0,2.2,1.3,4,3.2,4.8L345.2,529.6z M355.7,492.2c-1.6,0-3,0.7-3.9,2
		l-55.2-35.9c0.6-0.9,0.9-2.1,0.8-3.1l72.3-15c0.1,0.2,0.1,0.3,0.2,0.5c0.5,1.1,1.4,1.9,2.4,2.4l-15.4,49.3
		C356.5,492.3,356.1,492.2,355.7,492.2z M478,528.5l-117.3-30.1c0.1-0.3,0.1-0.6,0.1-0.9c0-2-1.1-3.7-2.7-4.5l15.4-49.4
		c1,0.2,2,0.1,3-0.4c0.2-0.1,0.4-0.2,0.6-0.3L478.4,528C478.2,528.2,478.1,528.3,478,528.5z M479.4,527.2L378,441.9
		c1.1-1.3,1.6-3.2,1.1-4.8l74.1,8.8c0,0.2-0.1,0.5-0.1,0.8c0,2.9,2.3,5.2,5.1,5.2c0.5,0,1.1-0.1,1.6-0.3l20.9,75.2
		C480.2,526.8,479.8,527,479.4,527.2z M482,526.6L460.9,451c1.3-0.8,2.2-2.3,2.3-4l49.4,5.9c0,0.1,0,0.2,0,0.3
		c0,1.8,0.9,3.4,2.3,4.3L483,526.7C482.7,526.6,482.3,526.6,482,526.6z M484.9,527.7c-0.2-0.2-0.4-0.3-0.7-0.4l31.8-69.1
		c0.5,0.2,1.1,0.3,1.6,0.3c2.5,0,4.6-1.9,5-4.3l55.4,6.6c0,0.7,0.2,1.4,0.5,2.1c0.2,0.4,0.5,0.8,0.8,1.2L484.9,527.7z M579.5,456.9
		l-48.2-37.8L547,378c0.9,0.3,1.8,0.3,2.7,0.1l30.8,78C580.2,456.3,579.8,456.6,579.5,456.9z M584.3,455.6c-0.8-0.2-1.7-0.2-2.6,0
		l-30.8-78c2.2-1.3,3.2-4.2,2-6.6c-0.1-0.1-0.1-0.2-0.2-0.3l94.8-72.9c0.3,0.3,0.7,0.6,1.1,0.8L584.3,455.6z M652.8,289.3
		c-1.2-0.4-2.5-0.4-3.8,0.2c-0.2,0.1-0.4,0.2-0.6,0.4l-65.3-76.7c0.1-0.1,0.1-0.2,0.2-0.2l82.9,49.3L652.8,289.3z M654,289.9
		l13.3-27.1l54.3,32.3c-0.1,0.3-0.3,0.7-0.3,1.1l-65.2-2.6c0-0.6-0.2-1.1-0.4-1.7C655.3,291,654.7,290.4,654,289.9z M724.2,317.5
		c-1,0.5-1.8,1.3-2.3,2.3L656,295.2c0-0.1,0-0.2,0.1-0.2l65.2,2.6c0,0.6,0.2,1.1,0.4,1.7c0.8,1.6,2.2,2.7,3.9,2.9l0.1,14.9
		C725.2,317.1,724.7,317.3,724.2,317.5z M726.2,292c-0.2,0-0.3,0-0.5,0l-7.4-33.7l-13.9-63.7c0.1-0.1,0.3-0.1,0.4-0.2
		c1.3-0.6,2.3-1.9,2.6-3.2l31,5.6L726.2,292z M729.5,318.2c-0.7-0.6-1.6-1-2.5-1.1l-0.1-14.9c0.5-0.1,1-0.2,1.4-0.4
		c1.2-0.6,2.1-1.6,2.5-2.8l14.7,3.6L729.5,318.2z M794.8,315.1l-63.6,5.9c-0.1-0.4-0.2-0.7-0.4-1c-0.1-0.3-0.3-0.6-0.5-0.8
		l16.6-16.2l47.9,11.8C794.8,314.9,794.8,315,794.8,315.1z M800.9,310.4c-1.1-0.3-2.2-0.2-3.3,0.3c-1.2,0.6-2.1,1.6-2.5,2.8
		L748,301.9l85.9-83.7c0.2,0.2,0.5,0.4,0.8,0.5L800.9,310.4z M835.9,219.2c0.8,0.2,1.7,0.2,2.6-0.1l8.9,14.4l-44.6,75.5L835.9,219.2
		z M803.2,311.6c-0.1-0.1-0.2-0.2-0.3-0.2l45.3-76.6l15.6,25.1L803.2,311.6z M893.3,310.9l-88.6,3.6c-0.1-0.5-0.2-0.9-0.4-1.4
		c-0.1-0.2-0.2-0.4-0.3-0.5l60.5-51.7l29.6,47.6C893.6,309.2,893.4,310,893.3,310.9z M897.4,306.3c-0.9,0.2-1.7,0.6-2.4,1.2
		L865.5,260l27-23.1c0.6,0.6,1.4,1,2.2,1.2L897.4,306.3z M892.8,150.7C892.8,150.7,892.7,150.7,892.8,150.7l-39.6-60.3
		c0.3-0.4,0.6-0.8,0.8-1.2l70.3,23.7l-27,38C895.9,150.1,894.3,150,892.8,150.7z M933.5,133.1c-0.6,2.2,0.4,4.4,2.2,5.5l-36.5,13.8
		l0.2,0.6c-0.3-0.6-0.6-1.1-1.1-1.5l27.3-38.3l14.1,4.7l-1.4,11.3C936.1,129.2,934.1,130.8,933.5,133.1z M939.5,129.4l1.4-11
		l23.3,7.9c0,0.2-0.1,0.5-0.1,0.7l-21.3,5.5C942.3,131,941.1,129.9,939.5,129.4z M943.2,133.8l17-4.5l-17.2,6.6
		c0-0.1,0.1-0.2,0.1-0.2C943.2,135,943.2,134.4,943.2,133.8z M1006.7,192.1l-64-54.8l21.7-8.3c0,0.1,0.1,0.2,0.1,0.3
		c1.1,2.4,3.6,3.4,5.9,2.7l36.4,59.8C1006.9,192,1006.8,192,1006.7,192.1z M1009.4,190.8c-0.5,0.1-0.9,0.2-1.4,0.4l-36.3-59.6
		c1.9-1.2,2.8-3.6,2.1-5.8l39.4-10.3c0.6,1.4,1.8,2.7,3.4,3.1l0,0L1009.4,190.8z M1012.9,191.7c-0.5-0.3-1-0.6-1.6-0.8
		c-0.2-0.1-0.4-0.1-0.7-0.1l7.1-71.9c0.6,0,1.2-0.1,1.8-0.3l26.2,40.1L1012.9,191.7z M1097.6,239.4l-19.5-9.7l-63.5-31.8
		c0.1-0.2,0.2-0.5,0.3-0.7c0.4-1.6,0-3.3-1-4.5l32.7-32.9l51.7,78.9C1098,238.8,1097.8,239.1,1097.6,239.4z M1099.1,237.7
		l-51.7-78.9l47.9-48.3c0.5,0.4,1.1,0.7,1.8,0.9c0.2,0.1,0.5,0.1,0.7,0.1l2.6,125.5C1100,237.1,1099.6,237.3,1099.1,237.7z
		 M1104.8,237.6c-0.5-0.3-1-0.6-1.6-0.7c-0.5-0.1-1-0.2-1.5-0.2l-2.6-125.3c0.7-0.1,1.3-0.4,1.9-0.7l60.2,73.4L1104.8,237.6z
		 M1181.3,211.7c-0.2,0.8-0.2,1.5,0,2.4l-74.8,25.4c-0.2-0.3-0.4-0.7-0.6-1l56.4-53.5l20.2,24.6
		C1181.8,210.3,1181.5,210.9,1181.3,211.7z M1183.3,208.7l-20.2-24.6l68.3-64.9c0.1,0.1,0.2,0.2,0.4,0.3l-15.3,30.7l-28.8,57.9
		c-0.1-0.1-0.3-0.1-0.4-0.1C1185.9,207.7,1184.4,208,1183.3,208.7z M1288.2,277.1l-102.6-13.3c0-0.2,0.1-0.3,0.1-0.5
		c0-2.7-1.9-4.7-4.4-5.1l4.8-40.2c1.5,0,2.9-0.7,3.8-1.9l98.5,60.2C1288.3,276.6,1288.2,276.9,1288.2,277.1z M1289,275.3l-98.5-60.2
		c0.1-0.3,0.2-0.5,0.3-0.8c0.2-0.9,0.2-1.7,0-2.6l66.8-29.7l32.8,92C1289.9,274.4,1289.4,274.8,1289,275.3z M1291.6,273.5l-32.8-92
		l27-12c0.6,1.1,1.7,1.9,3,2.4c0.2,0.1,0.5,0.1,0.7,0.1l2.3,101.5C1291.8,273.5,1291.7,273.5,1291.6,273.5z M1294.2,273.4
		c-0.3-0.1-0.7-0.1-1.1-0.2l-2.3-101.4c0.8-0.1,1.5-0.4,2.1-0.9l55.1,60l-51.9,43.6C1295.6,274.1,1294.9,273.7,1294.2,273.4z
		 M1333.6,336.3c-0.2-0.1-0.3-0.1-0.5-0.2c-1.2-0.3-2.3-0.2-3.3,0.3l-33.6-54.2c0.8-0.6,1.3-1.5,1.6-2.6c0.2-0.6,0.2-1.3,0.1-2
		l71.7-17.5c0.3,0.9,1,1.7,1.8,2.4L1333.6,336.3z M1336.6,339.4c-0.3-1-1-2-1.9-2.6l37.7-73.8c0.2,0.1,0.3,0.1,0.5,0.1
		c0.4,0.1,0.8,0.2,1.2,0.2l8.2,67.1L1336.6,339.4z M1456.7,314.8c-0.1,0.5-0.2,1-0.2,1.5l-73,14.1l-8.2-67.1c1-0.3,1.9-0.8,2.5-1.6
		l52.4,35l26.5,17.7C1456.8,314.6,1456.7,314.6,1456.7,314.8z M1457.3,313.3l-78.7-52.7c0.1-0.3,0.3-0.6,0.3-0.9
		c0.1-0.3,0.1-0.6,0.1-0.9l61.7-4.1l17.1,57.9C1457.7,312.8,1457.5,313.1,1457.3,313.3z M1460.3,311c-0.5,0.1-1,0.3-1.4,0.6
		l-16.8-57.1l35.4-2.3c0.3,1.4,1.2,2.8,2.6,3.5L1460.3,311z M1464.4,311.9c-0.5-0.3-1-0.6-1.6-0.8c-0.3-0.1-0.7-0.1-1-0.2l19.5-54.8
		c0.9,0.2,1.9,0.1,2.7-0.2l17.4,33.9L1464.4,311.9z M1520.4,332.3l-54-15.4c0.2-1.4-0.2-3-1-4.1l36.7-21.8l20.2,39.3
		C1521.5,330.8,1520.8,331.5,1520.4,332.3z M1527,330c-0.3-0.1-0.6-0.3-0.9-0.3c-0.9-0.2-1.8-0.2-2.7,0.1l-20.2-39.4l84.1-50
		c0.2,0.2,0.4,0.5,0.6,0.6l-49.2,72L1527,330z M1528.9,331.9c-0.3-0.4-0.6-0.8-0.9-1.1l11.1-16.3l49.7-72.8c0.3,0.2,0.7,0.3,1.1,0.4
		c0.7,0.2,1.4,0.2,2,0.1l16.4,57.5L1528.9,331.9z M1659.6,276.5c-0.2,0.8-0.2,1.7,0,2.5l-50,20.2l-16.3-57.4c0.8-0.3,1.5-0.9,2-1.6
		l64.6,35.7C1659.7,276.2,1659.6,276.3,1659.6,276.5z M1668.8,275.5l73.4-51.1c0.9,1.1,2.3,1.7,3.8,1.7c0.1,0,0.1,0,0.2,0l8,50.5
		l-84.9,0.5C1669.2,276.6,1669,276,1668.8,275.5z M1669.3,278.5l85.1-0.5l3.8,24L1669.3,278.5z M1768.2,302
		c-0.6-1.3-1.7-2.3-3.2-2.7c-2.2-0.6-4.5,0.5-5.6,2.5l-3.8-23.7l82.2-0.5c0,0.1,0,0.2,0,0.2L1768.2,302z M1837.9,275.7
		c-0.1,0.2-0.1,0.4-0.1,0.6l-82.4,0.5l-8-50.8c1.1-0.3,2-1,2.6-1.9l88.2,50.9C1838,275.3,1838,275.5,1837.9,275.7z M1847.6,276.4
		c-0.2-2.1-1.6-3.8-3.7-4.3c-2-0.5-4,0.3-5.2,1.9l-88.2-50.9c0.1-0.3,0.2-0.6,0.3-0.9l152.4,9.6c0,0.7,0.3,1.4,0.6,2.2L1847.6,276.4
		z"/>
</g>
</svg>
