<?xml version="1.0" encoding="utf-8"?>
<!-- Generator: Adobe Illustrator 23.0.0, SVG Export Plug-In . SVG Version: 6.00 Build 0)  -->
<svg version="1.1" id="Capa_1" xmlns="http://www.w3.org/2000/svg" xmlns:xlink="http://www.w3.org/1999/xlink" x="0px" y="0px"
	 viewBox="0 0 232.2 78" style="enable-background:new 0 0 232.2 78;" xml:space="preserve">
<style type="text/css">
	.st0{fill:#FAFAFA;}
</style>
<g>
	<g>
		<g>
			<path class="st0" d="M0,56.7L0,56.7c0-4,3-7.3,7.2-7.3s7.2,3.3,7.2,7.2l0,0c0,4-3,7.2-7.2,7.2C3,63.9,0,60.6,0,56.7 M11.9,56.7
				L11.9,56.7c0-2.7-1.9-5.1-4.7-5.1s-4.6,2.2-4.6,5l0,0c0,2.7,1.9,5,4.7,5C9.9,61.6,11.9,59.3,11.9,56.7"/>
			<path class="st0" d="M17,50.1c0-0.7,0.5-1.2,1.2-1.2s1.2,0.5,1.2,1.2v4.7c0.7-1.1,1.8-2,3.6-2c2.5,0,4.8,1.9,4.8,5.5l0,0
				c0,3.6-2.4,5.5-4.8,5.5c-1.7,0-2.8-0.9-3.6-1.8v0.5c0,0.7-0.5,1.2-1.2,1.2c-0.6,0-1.2-0.5-1.2-1.2C17,62.4,17,50.1,17,50.1z
				 M25.3,58.3L25.3,58.3c0-2.1-1.3-3.5-3-3.5c-1.6,0-3.1,1.3-3.1,3.4l0,0c0,2,1.4,3.4,3.1,3.4C24,61.8,25.3,60.5,25.3,58.3"/>
			<path class="st0" d="M29.8,62.6c-0.2-0.1-0.4-0.4-0.4-0.8c0-0.5,0.4-1,0.9-1c0.2,0,0.4,0.1,0.5,0.1c1,0.7,2,1,3,1
				c1,0,1.6-0.4,1.6-1.1l0,0c0-0.8-1.1-1.1-2.4-1.5c-1.5-0.4-3.3-1.1-3.3-3.2l0,0c0-2,1.6-3.3,3.7-3.3c1.1,0,2.3,0.3,3.3,0.8
				c0.3,0.2,0.6,0.5,0.6,0.9c0,0.6-0.4,1-1,1c-0.2,0-0.3,0-0.5-0.1c-0.8-0.4-1.7-0.7-2.5-0.7c-0.9,0-1.4,0.4-1.4,1l0,0
				c0,0.8,1.1,1.1,2.4,1.5c1.5,0.5,3.2,1.2,3.2,3.1l0,0c0,2.2-1.6,3.4-3.9,3.4C32.5,63.8,31,63.4,29.8,62.6"/>
			<path class="st0" d="M44.7,63.9c-3,0-5.3-2.2-5.3-5.5l0,0c0-3.1,2.2-5.5,5-5.5c3.3,0,4.9,2.7,4.9,5.2c0,0.7-0.5,1.1-1.1,1.1h-6.5
				c0.2,1.7,1.4,2.6,3,2.6c1,0,1.7-0.4,2.5-0.9c0.2-0.1,0.3-0.2,0.6-0.2c0.5,0,0.9,0.4,0.9,1c0,0.3-0.1,0.6-0.3,0.7
				C47.5,63.3,46.4,63.9,44.7,63.9 M47.1,57.6c-0.2-1.5-1-2.7-2.7-2.7c-1.4,0-2.5,1.1-2.7,2.7H47.1z"/>
			<path class="st0" d="M51.9,54.2c0-0.7,0.5-1.2,1.2-1.2s1.2,0.5,1.2,1.2v1.1c0.5-1.3,1.5-2.3,2.6-2.3c0.7,0,1.2,0.5,1.2,1.2
				c0,0.6-0.4,1-0.9,1.1c-1.6,0.3-2.9,1.6-2.9,4.2v3.2c0,0.7-0.5,1.2-1.2,1.2c-0.6,0-1.2-0.5-1.2-1.2V54.2z"/>
			<path class="st0" d="M64.3,63.8h-0.1c-0.6,0-1.1-0.4-1.3-1l-3.5-8.1c-0.1-0.2-0.1-0.4-0.1-0.6c0-0.6,0.5-1.1,1.2-1.1
				c0.6,0,1,0.4,1.2,0.9l2.7,7l2.7-7c0.2-0.4,0.5-0.8,1.1-0.8s1.1,0.5,1.1,1.1c0,0.2-0.1,0.5-0.1,0.6l-3.5,8.1
				C65.3,63.4,64.9,63.8,64.3,63.8"/>
			<path class="st0" d="M70.4,60.6L70.4,60.6c0-2.3,1.7-3.5,4.3-3.5c1.1,0,1.9,0.2,2.8,0.4v-0.3c0-1.5-0.9-2.3-2.6-2.3
				c-0.9,0-1.6,0.2-2.3,0.4c-0.1,0-0.2,0.1-0.4,0.1c-0.5,0-1-0.4-1-1c0-0.4,0.3-0.8,0.6-0.9c1-0.4,1.9-0.6,3.4-0.6
				c1.5,0,2.7,0.4,3.5,1.2c0.7,0.8,1.1,1.9,1.1,3.3v5.2c0,0.7-0.5,1.1-1.1,1.1c-0.7,0-1.1-0.5-1.1-1v-0.4c-0.7,0.8-1.7,1.5-3.4,1.5
				C72.2,63.8,70.4,62.7,70.4,60.6 M77.6,59.9v-0.7c-0.6-0.2-1.4-0.4-2.4-0.4c-1.5,0-2.5,0.7-2.5,1.7l0,0c0,1,0.9,1.6,2,1.6
				C76.4,62.1,77.6,61.2,77.6,59.9"/>
			<path class="st0" d="M83.1,60.7v-5.6h-0.4c-0.6,0-1-0.5-1-1c0-0.6,0.4-1,1-1h0.4v-1.8c0-0.7,0.5-1.2,1.2-1.2
				c0.6,0,1.2,0.5,1.2,1.2V53h1.8c0.6,0,1,0.5,1,1c0,0.6-0.5,1-1,1h-1.8v5.2c0,0.9,0.5,1.3,1.2,1.3c0.3,0,0.5-0.1,0.6-0.1
				c0.5,0,1,0.4,1,1c0,0.4-0.3,0.8-0.6,0.9c-0.5,0.2-1,0.3-1.6,0.3C84.4,63.8,83.1,63,83.1,60.7"/>
			<path class="st0" d="M89.8,58.4L89.8,58.4c0-3.1,2.4-5.6,5.5-5.6c3.2,0,5.5,2.4,5.5,5.5l0,0c0,3.1-2.4,5.5-5.5,5.5
				C92.1,63.9,89.8,61.4,89.8,58.4 M98.5,58.4L98.5,58.4c0-1.9-1.3-3.5-3.2-3.5c-1.9,0-3.1,1.5-3.1,3.4l0,0c0,1.8,1.3,3.4,3.2,3.4
				C97.3,61.8,98.5,60.3,98.5,58.4"/>
			<path class="st0" d="M103.3,54.2c0-0.7,0.5-1.2,1.2-1.2c0.7,0,1.2,0.5,1.2,1.2v1.1c0.5-1.3,1.5-2.3,2.6-2.3
				c0.7,0,1.2,0.5,1.2,1.2c0,0.6-0.4,1-0.9,1.1c-1.6,0.3-2.9,1.6-2.9,4.2v3.2c0,0.7-0.5,1.2-1.2,1.2c-0.6,0-1.2-0.5-1.2-1.2
				C103.3,62.6,103.3,54.2,103.3,54.2z"/>
			<path class="st0" d="M111.3,50.2c0-0.7,0.6-1.2,1.3-1.2c0.7,0,1.3,0.5,1.3,1.2v0.1c0,0.7-0.6,1.2-1.3,1.2s-1.3-0.5-1.3-1.2V50.2z
				 M111.5,54.2c0-0.7,0.5-1.2,1.2-1.2c0.7,0,1.2,0.5,1.2,1.2v8.3c0,0.7-0.5,1.2-1.2,1.2c-0.6,0-1.2-0.5-1.2-1.2V54.2z"/>
			<path class="st0" d="M116.4,58.4L116.4,58.4c0-3.1,2.4-5.6,5.5-5.6c3.2,0,5.5,2.4,5.5,5.5l0,0c0,3.1-2.4,5.5-5.5,5.5
				C118.8,63.9,116.4,61.4,116.4,58.4 M125.1,58.4L125.1,58.4c0-1.9-1.3-3.5-3.2-3.5c-1.9,0-3.1,1.5-3.1,3.4l0,0
				c0,1.8,1.3,3.4,3.2,3.4C123.9,61.8,125.1,60.3,125.1,58.4"/>
			<path class="st0" d="M143.9,62.5c0,0.7-0.5,1.2-1.2,1.2c-0.7,0-1.2-0.5-1.2-1.2v-0.6c-0.7,1.1-1.8,2-3.6,2c-2.5,0-4.8-2-4.8-5.5
				l0,0c0-3.6,2.4-5.5,4.8-5.5c1.7,0,2.8,0.8,3.6,1.8v-4.6c0-0.7,0.5-1.2,1.2-1.2c0.7,0,1.2,0.5,1.2,1.2V62.5z M135.6,58.3
				L135.6,58.3c0,2.1,1.3,3.5,3,3.5c1.6,0,3-1.3,3-3.4l0,0c0-2-1.4-3.4-3-3.4C136.9,55,135.6,56.2,135.6,58.3"/>
			<path class="st0" d="M151.6,63.9c-3,0-5.3-2.2-5.3-5.5l0,0c0-3.1,2.2-5.5,5-5.5c3.3,0,4.9,2.7,4.9,5.2c0,0.7-0.5,1.1-1.1,1.1
				h-6.5c0.2,1.7,1.4,2.6,3,2.6c1,0,1.7-0.4,2.5-0.9c0.2-0.1,0.3-0.2,0.6-0.2c0.5,0,0.9,0.4,0.9,1c0,0.3-0.1,0.6-0.3,0.7
				C154.4,63.3,153.3,63.9,151.6,63.9 M154,57.6c-0.2-1.5-1-2.7-2.7-2.7c-1.4,0-2.5,1.1-2.7,2.7H154z"/>
			<path class="st0" d="M162.8,50.8c0-0.7,0.5-1.2,1.2-1.2h4.9c1.5,0,2.8,0.4,3.6,1.2c0.6,0.6,0.9,1.4,0.9,2.3l0,0
				c0,1.7-0.9,2.5-1.9,3.2c1.6,0.6,2.8,1.5,2.8,3.5l0,0c0,2.5-2,3.9-5.1,3.9H164c-0.7,0-1.2-0.5-1.2-1.2V50.8z M168.5,55.5
				c1.5,0,2.6-0.6,2.6-1.9l0,0c0-1.1-0.8-1.8-2.5-1.8h-3.5v3.8H168.5z M169.2,61.5c1.6,0,2.7-0.6,2.7-1.9l0,0c0-1.2-0.9-1.9-2.9-1.9
				h-3.8v3.9C165.2,61.5,169.2,61.5,169.2,61.5z"/>
			<path class="st0" d="M176.1,58.4L176.1,58.4c0-3.1,2.4-5.6,5.5-5.6c3.2,0,5.5,2.4,5.5,5.5l0,0c0,3.1-2.4,5.5-5.5,5.5
				C178.5,63.9,176.1,61.4,176.1,58.4 M184.8,58.4L184.8,58.4c0-1.9-1.3-3.5-3.2-3.5c-1.9,0-3.1,1.5-3.1,3.4l0,0
				c0,1.8,1.3,3.4,3.2,3.4C183.6,61.8,184.8,60.3,184.8,58.4"/>
			<path class="st0" d="M190.2,66c-0.4-0.2-0.7-0.5-0.7-0.9c0-0.5,0.4-1,1-1c0.2,0,0.3,0,0.4,0.1c0.9,0.5,1.9,0.8,3.2,0.8
				c2.2,0,3.3-1.1,3.3-3.3v-0.8c-0.8,1.1-1.9,1.9-3.7,1.9c-2.5,0-4.7-1.8-4.7-5l0,0c0-3.2,2.3-5,4.7-5c1.7,0,2.9,0.8,3.6,1.8v-0.5
				c0-0.7,0.5-1.2,1.1-1.2c0.7,0,1.2,0.5,1.2,1.2v7.3c0,1.8-0.4,3.2-1.3,4c-0.9,0.9-2.4,1.4-4.3,1.4C192.8,66.9,191.5,66.6,190.2,66
				 M197.5,57.8L197.5,57.8c0-1.7-1.4-3-3.1-3s-3,1.1-3,3l0,0c0,1.7,1.3,3,3,3C196.1,60.8,197.5,59.6,197.5,57.8"/>
			<path class="st0" d="M202.2,58.4L202.2,58.4c0-3.1,2.4-5.6,5.5-5.6c3.2,0,5.5,2.4,5.5,5.5l0,0c0,3.1-2.4,5.5-5.5,5.5
				C204.6,63.9,202.2,61.4,202.2,58.4 M210.9,58.4L210.9,58.4c0-1.9-1.3-3.5-3.2-3.5c-1.9,0-3.1,1.5-3.1,3.4l0,0
				c0,1.8,1.3,3.4,3.2,3.4C209.7,61.8,210.9,60.3,210.9,58.4"/>
			<path class="st0" d="M216.1,60.7v-5.6h-0.4c-0.6,0-1-0.5-1-1c0-0.6,0.4-1,1-1h0.4v-1.8c0-0.7,0.5-1.2,1.2-1.2
				c0.6,0,1.2,0.5,1.2,1.2V53h1.8c0.6,0,1,0.5,1,1c0,0.6-0.5,1-1,1h-1.8v5.2c0,0.9,0.5,1.3,1.2,1.3c0.3,0,0.5-0.1,0.6-0.1
				c0.5,0,1,0.4,1,1c0,0.4-0.3,0.8-0.6,0.9c-0.5,0.2-1,0.3-1.6,0.3C217.4,63.8,216.1,63,216.1,60.7"/>
			<path class="st0" d="M223.1,60.6L223.1,60.6c0-2.3,1.7-3.5,4.3-3.5c1.1,0,1.9,0.2,2.8,0.4v-0.3c0-1.5-0.9-2.3-2.6-2.3
				c-0.9,0-1.6,0.2-2.3,0.4c-0.1,0-0.2,0.1-0.4,0.1c-0.5,0-1-0.4-1-1c0-0.4,0.3-0.8,0.6-0.9c1-0.4,1.9-0.6,3.4-0.6
				c1.5,0,2.7,0.4,3.5,1.2c0.7,0.7,1.1,1.9,1.1,3.3v5.2c0,0.6-0.5,1.1-1.1,1.1c-0.7,0-1.1-0.5-1.1-1v-0.4c-0.7,0.8-1.7,1.5-3.4,1.5
				C224.7,63.8,223.1,62.7,223.1,60.6 M230.2,59.9v-0.7c-0.6-0.2-1.4-0.4-2.4-0.4c-1.5,0-2.5,0.7-2.5,1.7l0,0c0,1,0.9,1.6,2,1.6
				C228.9,62.1,230.2,61.2,230.2,59.9 M227.4,51.4c0-0.1,0.1-0.3,0.2-0.4l1.1-1.7c0.2-0.4,0.5-0.6,0.9-0.6c0.6,0,1.4,0.4,1.4,0.8
				c0,0.2-0.1,0.4-0.3,0.6l-1.3,1.3c-0.5,0.4-0.8,0.5-1.4,0.5C227.6,51.8,227.4,51.6,227.4,51.4"/>
		</g>
		<g>
			<path class="st0" d="M1.4,39.5c-0.8-0.6-1.4-1.7-1.4-3c0-1.9,1.6-3.5,3.6-3.5c1,0,1.7,0.3,2.2,0.7c2.7,1.9,5.5,3.2,8.9,3.2
				c3.2,0,5-1.2,5-3.3v-0.1c0-1.9-1.2-3-7.1-4.4C5.7,27.4,1.1,25.5,1.1,18.5v-0.1C1.1,12.1,6.2,8,13.3,8c4.2,0,7.9,1.1,11.1,3.1
				c0.8,0.5,1.7,1.5,1.7,3.1c0,1.9-1.6,3.5-3.6,3.5c-0.7,0-1.3-0.2-1.9-0.5c-2.6-1.5-4.9-2.3-7.4-2.3c-3,0-4.5,1.3-4.5,3.1v0.1
				c0,2.2,1.5,3.1,7.6,4.6c7.1,1.8,11.1,4.4,11.1,10.4V33c0,6.8-5.3,10.7-12.8,10.7C9.9,43.6,5.3,42.2,1.4,39.5"/>
			<path class="st0" d="M30.4,35.5L30.4,35.5c0-5.9,4.4-8.6,10.8-8.6c2.7,0,4.6,0.4,6.6,1.1v-0.4c0-3.2-1.9-4.9-5.7-4.9
				c-2,0-3.8,0.3-5.2,0.7c-0.4,0.1-0.7,0.2-1.1,0.2c-1.7,0-3.2-1.3-3.2-3.1c0-1.3,0.8-2.4,2-3c2.4-0.9,5-1.4,8.5-1.4
				c4.1,0,7.2,1.1,9,3c2,1.9,2.9,4.9,2.9,8.4v12c0,2-1.6,3.6-3.7,3.6c-2.2,0-3.7-1.5-3.7-3.2l0,0c-1.8,2-4.4,3.4-8.1,3.4
				C34.6,43.6,30.4,40.7,30.4,35.5 M47.8,33.8v-1.3c-1.3-0.6-3-1-4.8-1c-3.3,0-5.2,1.3-5.2,3.7v0.1c0,2,1.7,3.3,4.1,3.3
				C45.5,38.4,47.8,36.4,47.8,33.8"/>
			<path class="st0" d="M60.7,10.5c0-2,1.7-3.8,3.8-3.8c2,0,3.8,1.7,3.8,3.8v29.1c0,2-1.7,3.8-3.8,3.8c-2,0-3.8-1.7-3.8-3.8
				C60.7,39.6,60.7,10.5,60.7,10.5z"/>
			<path class="st0" d="M98.5,39.6c0,2-1.7,3.8-3.8,3.8c-2,0-3.8-1.7-3.8-3.8v-0.3c-1.7,2.2-4,4.3-7.9,4.3c-5.7,0-9.1-3.8-9.1-9.9
				V20.1c0-2,1.7-3.8,3.8-3.8s3.8,1.7,3.8,3.8v11.3c0,3.6,1.7,5.4,4.6,5.4s4.7-1.8,4.7-5.4V20.1c0-2,1.7-3.8,3.8-3.8
				c2,0,3.8,1.7,3.8,3.8v19.5H98.5z"/>
			<path class="st0" d="M171.9,16.6h6.3V43H172l-0.3-3.9c-1.5,3.1-5.6,4.6-8.6,4.7c-7.9,0.1-13.7-4.8-13.7-14
				c0-9.1,6.1-13.8,13.9-13.8c3.6,0,7,1.6,8.5,4.3L171.9,16.6z M155.9,29.7c0,5,3.5,8,7.9,8c10.3,0,10.3-16,0-16
				C159.4,21.8,155.9,24.7,155.9,29.7"/>
			<path class="st0" d="M193.5,9.2v7.5h7.4v5.6h-7.4v11.4c0,2.5,1.4,3.8,3.5,3.8c1,0,2.3-0.3,3.2-0.8l1.8,5.6
				c-1.8,0.7-3.5,1.1-5.4,1.1c-5.7,0.2-9.5-3.1-9.5-9.7V22.3h-5v-5.6h5V9.9L193.5,9.2z"/>
			<path class="st0" d="M226.1,16.6h6.3V43h-6.2l-0.3-3.9c-1.5,3.1-5.6,4.6-8.6,4.7c-7.9,0.1-13.7-4.8-13.7-14
				c0-9.1,6.1-13.8,13.9-13.8c3.6,0,7,1.6,8.5,4.3L226.1,16.6z M210.1,29.7c0,5,3.5,8,7.9,8c10.3,0,10.3-16,0-16
				C213.6,21.8,210.1,24.7,210.1,29.7"/>
			<path class="st0" d="M122.9,0h1c12.3,0,22.6,10,22.4,22.2c-0.2,11.8-9.9,21.4-22,21.4h-20.1V28.8c0-0.2,0.1-0.3,0.3-0.3h4.4
				c0.2,0,0.3,0.1,0.3,0.3v8.6h14.4c8.5,0,15.8-6.5,16.1-15c0.3-8.9-6.9-16.1-15.7-16.1h-1.2c-0.2,0-0.3-0.2-0.3-0.3V0.4
				C122.5,0.2,122.7,0,122.9,0"/>
			<rect x="111.1" y="25" class="st0" width="4.6" height="10.3"/>
			<rect x="117.2" y="21.5" class="st0" width="4.6" height="13.9"/>
			<rect x="123.5" y="17.9" class="st0" width="4.6" height="17.5"/>
			<polygon class="st0" points="107.1,26.3 106.3,25.8 110.7,19.7 113.3,21.9 117.6,16.1 119.8,18 125.8,10.8 126.5,11.5 
				119.9,19.4 117.7,17.5 113.4,23.3 110.8,21.2 			"/>
			<polygon class="st0" points="124.5,10.4 127.8,9.3 127.2,12.6 			"/>
		</g>
		<g>
			<path class="st0" d="M0,71.3c0-0.4,0.3-0.8,0.7-0.8h2.5c2.7,0,4.5,1.8,4.5,4.4l0,0c0,2.4-1.8,4.4-4.5,4.4H0.7
				c-0.4,0-0.7-0.3-0.7-0.8V71.3z M3.2,77.8c1.8,0,3-1.2,3-3l0,0c0-1.7-1.1-3-3-3H1.5v5.9H3.2z"/>
			<path class="st0" d="M8.9,77.3L8.9,77.3c0-1.4,1.1-2.1,2.7-2.1c0.7,0,1.2,0.1,1.7,0.3v-0.2c0-0.9-0.6-1.4-1.6-1.4
				c-0.5,0-1,0.1-1.4,0.3c-0.1,0-0.2,0-0.2,0c-0.3,0-0.6-0.3-0.6-0.6c0-0.3,0.2-0.5,0.4-0.6c0.6-0.2,1.2-0.4,2-0.4
				c0.9,0,1.6,0.3,2.2,0.7c0.5,0.5,0.7,1.1,0.7,2v3.3c0,0.4-0.3,0.7-0.7,0.7s-0.7-0.3-0.7-0.6v-0.2c-0.4,0.5-1.1,0.9-2.2,0.9
				C10,79.3,8.9,78.6,8.9,77.3 M13.4,76.9v-0.4c-0.4-0.1-0.9-0.3-1.4-0.3c-0.9,0-1.5,0.4-1.5,1.1l0,0c0,0.6,0.5,1,1.2,1
				C12.6,78.2,13.4,77.7,13.4,76.9"/>
			<path class="st0" d="M16.8,77.4v-3.5h-0.2c-0.3,0-0.6-0.3-0.6-0.6c0-0.4,0.3-0.6,0.6-0.6h0.2v-1.1c0-0.4,0.3-0.7,0.7-0.7
				c0.4,0,0.7,0.3,0.7,0.7v1.1h1.2c0.3,0,0.6,0.3,0.6,0.6c0,0.4-0.3,0.6-0.6,0.6h-1.1v3.3c0,0.6,0.3,0.8,0.8,0.8c0.2,0,0.3,0,0.4,0
				c0.3,0,0.6,0.3,0.6,0.6c0,0.3-0.2,0.5-0.4,0.6c-0.3,0.1-0.6,0.2-1,0.2C17.6,79.3,16.8,78.8,16.8,77.4"/>
			<path class="st0" d="M21,75.9L21,75.9c0-1.9,1.4-3.5,3.5-3.5c1.9,0,3.5,1.5,3.5,3.4l0,0c0,1.8-1.4,3.5-3.5,3.5
				C22.4,79.3,21,77.8,21,75.9 M26.4,75.9L26.4,75.9c0-1.2-0.8-2.1-1.9-2.1c-1.2,0-1.9,0.9-1.9,2.1l0,0c0,1.1,0.8,2.1,1.9,2.1
				C25.6,78,26.4,77.1,26.4,75.9"/>
			<path class="st0" d="M29.1,78.5c-0.2-0.1-0.3-0.3-0.3-0.5c0-0.3,0.3-0.6,0.6-0.6c0.1,0,0.2,0,0.3,0.1c0.6,0.4,1.2,0.6,1.8,0.6
				c0.6,0,1-0.3,1-0.7l0,0c0-0.5-0.7-0.7-1.4-0.9c-0.9-0.3-2-0.7-2-1.9l0,0c0-1.2,1-2,2.3-2c0.7,0,1.4,0.2,2,0.5
				c0.2,0.1,0.3,0.3,0.3,0.6c0,0.3-0.3,0.6-0.6,0.6c-0.1,0-0.2,0-0.3-0.1c-0.5-0.3-1-0.4-1.5-0.4c-0.6,0-0.9,0.3-0.9,0.6l0,0
				c0,0.5,0.7,0.7,1.4,0.9c0.9,0.3,2,0.7,2,1.9l0,0c0,1.4-1,2-2.4,2C30.7,79.3,29.9,79,29.1,78.5"/>
			<path class="st0" d="M38.7,77.3L38.7,77.3c0-1.4,1.1-2.1,2.7-2.1c0.7,0,1.2,0.1,1.7,0.3v-0.2c0-0.9-0.5-1.4-1.6-1.4
				c-0.5,0-1,0.1-1.4,0.3c-0.1,0-0.2,0-0.2,0c-0.3,0-0.6-0.3-0.6-0.6c0-0.3,0.2-0.5,0.4-0.6c0.6-0.2,1.2-0.4,2-0.4
				c0.9,0,1.6,0.3,2.2,0.7c0.5,0.5,0.7,1.1,0.7,2v3.3c0,0.4-0.3,0.7-0.7,0.7c-0.4,0-0.7-0.3-0.7-0.6v-0.2c-0.4,0.5-1.1,0.9-2.2,0.9
				C39.8,79.3,38.7,78.6,38.7,77.3 M43.1,76.9v-0.4c-0.4-0.1-0.9-0.3-1.4-0.3c-0.9,0-1.5,0.4-1.5,1.1l0,0c0,0.6,0.5,1,1.2,1
				C42.4,78.2,43.1,77.7,43.1,76.9"/>
			<path class="st0" d="M46.3,70.8c0-0.4,0.3-0.7,0.7-0.7s0.7,0.3,0.7,0.7v3c0.5-0.7,1.1-1.2,2.2-1.2c1.5,0,3,1.2,3,3.4l0,0
				c0,2.1-1.4,3.4-3,3.4c-1,0-1.7-0.5-2.2-1.1v0.3c0,0.4-0.3,0.7-0.7,0.7s-0.7-0.3-0.7-0.7V70.8z M51.5,75.9L51.5,75.9
				c0-1.3-0.8-2.1-1.8-2.1s-1.8,0.8-1.8,2.1l0,0c0,1.2,0.9,2.1,1.8,2.1C50.7,78,51.5,77.2,51.5,75.9"/>
			<path class="st0" d="M54.5,70.9c0-0.4,0.4-0.7,0.8-0.7c0.5,0,0.8,0.3,0.8,0.7V71c0,0.4-0.4,0.7-0.8,0.7
				C54.9,71.7,54.5,71.4,54.5,70.9L54.5,70.9z M54.6,73.3c0-0.4,0.3-0.7,0.7-0.7s0.7,0.3,0.7,0.7v5.2c0,0.4-0.3,0.7-0.7,0.7
				s-0.7-0.3-0.7-0.7V73.3z"/>
			<path class="st0" d="M60.9,79.3c-1.8,0-3.3-1.4-3.3-3.4l0,0c0-1.8,1.3-3.5,3.2-3.5c2,0,3.1,1.7,3.1,3.3c0,0.4-0.3,0.7-0.7,0.7h-4
				c0.2,1.1,0.9,1.6,1.8,1.6c0.6,0,1.1-0.2,1.5-0.6c0.1-0.1,0.2-0.1,0.4-0.1c0.3,0,0.6,0.3,0.6,0.6c0,0.2-0.1,0.3-0.2,0.5
				C62.7,79,61.9,79.3,60.9,79.3 M62.5,75.4c-0.1-1-0.6-1.7-1.6-1.7c-0.9,0-1.5,0.7-1.6,1.7H62.5z"/>
			<path class="st0" d="M65.4,73.3c0-0.4,0.3-0.7,0.7-0.7c0.4,0,0.7,0.3,0.7,0.7V74c0.3-0.8,1-1.4,1.6-1.4c0.5,0,0.7,0.3,0.7,0.7
				s-0.3,0.6-0.6,0.7c-1,0.2-1.7,1-1.7,2.5v1.9c0,0.4-0.3,0.7-0.7,0.7s-0.7-0.3-0.7-0.7C65.4,78.5,65.4,73.3,65.4,73.3z"/>
			<path class="st0" d="M70.7,77.4v-3.5h-0.2c-0.3,0-0.6-0.3-0.6-0.6c0-0.4,0.3-0.6,0.6-0.6h0.2v-1.1c0-0.4,0.3-0.7,0.7-0.7
				c0.4,0,0.7,0.3,0.7,0.7v1.1h1.1c0.3,0,0.6,0.3,0.6,0.6c0,0.4-0.3,0.6-0.6,0.6h-1.1v3.3c0,0.6,0.3,0.8,0.8,0.8c0.2,0,0.3,0,0.4,0
				c0.3,0,0.6,0.3,0.6,0.6c0,0.3-0.2,0.5-0.4,0.6c-0.3,0.1-0.6,0.2-1,0.2C71.5,79.3,70.7,78.8,70.7,77.4"/>
			<path class="st0" d="M74.9,75.9L74.9,75.9c0-1.9,1.4-3.5,3.5-3.5c1.9,0,3.5,1.5,3.5,3.4l0,0c0,1.8-1.4,3.5-3.5,3.5
				C76.4,79.3,74.9,77.8,74.9,75.9 M80.3,75.9L80.3,75.9c0-1.2-0.8-2.1-1.9-2.1c-1.2,0-1.9,0.9-1.9,2.1l0,0c0,1.1,0.8,2.1,1.9,2.1
				C79.6,78,80.3,77.1,80.3,75.9"/>
			<path class="st0" d="M83,78.5c-0.2-0.1-0.3-0.3-0.3-0.5c0-0.3,0.3-0.6,0.6-0.6c0.1,0,0.2,0,0.3,0.1c0.6,0.4,1.2,0.6,1.8,0.6
				c0.6,0,1-0.3,1-0.7l0,0c0-0.5-0.7-0.7-1.4-0.9c-0.9-0.3-2-0.7-2-1.9l0,0c0-1.2,1-2,2.3-2c0.7,0,1.4,0.2,2,0.5
				c0.2,0.1,0.3,0.3,0.3,0.6c0,0.3-0.3,0.6-0.6,0.6c-0.1,0-0.2,0-0.3-0.1c-0.5-0.3-1-0.4-1.5-0.4c-0.6,0-0.9,0.3-0.9,0.6l0,0
				c0,0.5,0.7,0.7,1.4,0.9c0.9,0.3,2,0.7,2,1.9l0,0c0,1.4-1,2-2.4,2C84.7,79.3,83.8,79,83,78.5"/>
			<path class="st0" d="M89.1,80.3c0.5-0.2,0.8-0.6,0.8-1.1c-0.3-0.1-0.7-0.4-0.7-0.8v-0.1c0-0.5,0.3-0.8,0.8-0.8s0.9,0.4,0.9,1.1
				v0.1c0,0.8-0.2,1.4-0.6,1.8C90,80.8,89.5,81,89.2,81c-0.3,0-0.4-0.2-0.4-0.3C88.9,80.4,89,80.3,89.1,80.3"/>
			<path class="st0" d="M96.8,80.6c-0.3-0.1-0.4-0.3-0.4-0.6c0-0.3,0.3-0.6,0.6-0.6c0.1,0,0.2,0,0.3,0.1c0.6,0.3,1.2,0.5,1.9,0.5
				c1.3,0,2-0.7,2-2v-0.5c-0.5,0.7-1.2,1.2-2.3,1.2c-1.5,0-3-1.1-3-3.1l0,0c0-1.9,1.4-3.1,3-3.1c1.1,0,1.7,0.5,2.3,1.1v-0.3
				c0-0.4,0.3-0.7,0.7-0.7s0.7,0.3,0.7,0.7V78c0,1.1-0.3,1.9-0.8,2.4c-0.6,0.5-1.5,0.8-2.7,0.8C98.3,81.2,97.5,81,96.8,80.6
				 M101.3,75.5L101.3,75.5c0-1.1-0.8-1.8-1.8-1.8c-1,0-1.8,0.7-1.8,1.8l0,0c0,1.1,0.8,1.8,1.8,1.8
				C100.3,77.4,101.3,76.7,101.3,75.5"/>
			<path class="st0" d="M104.2,75.9L104.2,75.9c0-1.9,1.4-3.5,3.5-3.5c1.9,0,3.5,1.5,3.5,3.4l0,0c0,1.8-1.4,3.5-3.5,3.5
				C105.7,79.3,104.2,77.8,104.2,75.9 M109.6,75.9L109.6,75.9c0-1.2-0.8-2.1-1.9-2.1c-1.2,0-1.9,0.9-1.9,2.1l0,0
				c0,1.1,0.8,2.1,1.9,2.1C108.8,78,109.6,77.1,109.6,75.9"/>
			<path class="st0" d="M112.5,70.8c0-0.4,0.3-0.7,0.7-0.7c0.4,0,0.7,0.3,0.7,0.7v3c0.5-0.7,1.1-1.2,2.2-1.2c1.5,0,3,1.2,3,3.4l0,0
				c0,2.1-1.4,3.4-3,3.4c-1,0-1.7-0.5-2.2-1.1v0.3c0,0.4-0.3,0.7-0.7,0.7s-0.7-0.3-0.7-0.7V70.8z M117.7,75.9L117.7,75.9
				c0-1.3-0.8-2.1-1.8-2.1s-1.8,0.8-1.8,2.1l0,0c0,1.2,0.9,2.1,1.8,2.1C116.9,78,117.7,77.2,117.7,75.9"/>
			<path class="st0" d="M120.7,70.9c0-0.4,0.4-0.7,0.8-0.7c0.5,0,0.8,0.3,0.8,0.7V71c0,0.4-0.4,0.7-0.8,0.7
				C121.1,71.7,120.7,71.4,120.7,70.9L120.7,70.9z M120.8,73.3c0-0.4,0.3-0.7,0.7-0.7s0.7,0.3,0.7,0.7v5.2c0,0.4-0.3,0.7-0.7,0.7
				c-0.4,0-0.7-0.3-0.7-0.7V73.3z"/>
			<path class="st0" d="M127.3,79.3c-1.8,0-3.3-1.4-3.3-3.4l0,0c0-1.8,1.3-3.5,3.2-3.5c2,0,3.1,1.7,3.1,3.3c0,0.4-0.3,0.7-0.7,0.7
				h-4c0.2,1.1,0.9,1.6,1.8,1.6c0.6,0,1.1-0.2,1.5-0.6c0.1-0.1,0.2-0.1,0.4-0.1c0.3,0,0.6,0.3,0.6,0.6c0,0.2-0.1,0.3-0.2,0.5
				C128.9,79,128.2,79.3,127.3,79.3 M128.7,75.4c-0.1-1-0.6-1.7-1.6-1.7c-0.9,0-1.5,0.7-1.6,1.7H128.7z"/>
			<path class="st0" d="M131.7,73.3c0-0.4,0.3-0.7,0.7-0.7c0.4,0,0.7,0.3,0.7,0.7V74c0.3-0.8,1-1.4,1.6-1.4c0.5,0,0.7,0.3,0.7,0.7
				s-0.3,0.6-0.6,0.7c-1,0.2-1.7,1-1.7,2.5v1.9c0,0.4-0.3,0.7-0.7,0.7c-0.4,0-0.7-0.3-0.7-0.7V73.3z"/>
			<path class="st0" d="M136.7,73.3c0-0.4,0.3-0.7,0.7-0.7s0.7,0.3,0.7,0.7v0.3c0.4-0.6,1-1.1,2-1.1c1.4,0,2.3,1,2.3,2.5v3.5
				c0,0.4-0.3,0.7-0.7,0.7c-0.4,0-0.7-0.3-0.7-0.7v-3.1c0-1-0.5-1.6-1.3-1.6c-0.8,0-1.4,0.6-1.4,1.6v3.1c0,0.4-0.3,0.7-0.7,0.7
				c-0.4,0-0.7-0.3-0.7-0.7v-5.2H136.7z"/>
			<path class="st0" d="M144,75.9L144,75.9c0-1.9,1.4-3.5,3.5-3.5c1.9,0,3.5,1.5,3.5,3.4l0,0c0,1.8-1.4,3.5-3.5,3.5
				C145.4,79.3,144,77.8,144,75.9 M149.3,75.9L149.3,75.9c0-1.2-0.8-2.1-1.9-2.1c-1.2,0-1.9,0.9-1.9,2.1l0,0c0,1.1,0.8,2.1,1.9,2.1
				C148.6,78,149.3,77.1,149.3,75.9"/>
			<path class="st0" d="M156.2,77.4v-3.5H156c-0.3,0-0.6-0.3-0.6-0.6c0-0.4,0.3-0.6,0.6-0.6h0.2v-1.1c0-0.4,0.3-0.7,0.7-0.7
				s0.7,0.3,0.7,0.7v1.1h1.1c0.3,0,0.6,0.3,0.6,0.6c0,0.4-0.3,0.6-0.6,0.6h-1.1v3.3c0,0.6,0.3,0.8,0.8,0.8c0.2,0,0.3,0,0.4,0
				c0.3,0,0.6,0.3,0.6,0.6c0,0.3-0.2,0.5-0.4,0.6c-0.3,0.1-0.6,0.2-1,0.2C157.1,79.3,156.2,78.8,156.2,77.4"/>
			<path class="st0" d="M160.9,73.3c0-0.4,0.3-0.7,0.7-0.7c0.4,0,0.7,0.3,0.7,0.7V74c0.3-0.8,1-1.4,1.6-1.4c0.5,0,0.7,0.3,0.7,0.7
				s-0.3,0.6-0.6,0.7c-1,0.2-1.7,1-1.7,2.5v1.9c0,0.4-0.3,0.7-0.7,0.7c-0.4,0-0.7-0.3-0.7-0.7V73.3z"/>
			<path class="st0" d="M165.2,77.3L165.2,77.3c0-1.4,1.1-2.1,2.7-2.1c0.7,0,1.2,0.1,1.7,0.3v-0.2c0-0.9-0.5-1.4-1.6-1.4
				c-0.5,0-1,0.1-1.4,0.3c-0.1,0-0.2,0-0.2,0c-0.3,0-0.6-0.3-0.6-0.6c0-0.3,0.2-0.5,0.4-0.6c0.6-0.2,1.2-0.4,2-0.4
				c0.9,0,1.6,0.3,2.2,0.7c0.5,0.5,0.7,1.1,0.7,2v3.3c0,0.4-0.3,0.7-0.7,0.7c-0.4,0-0.7-0.3-0.7-0.6v-0.2c-0.4,0.5-1.1,0.9-2.2,0.9
				C166.4,79.3,165.2,78.6,165.2,77.3 M169.7,76.9v-0.4c-0.4-0.1-0.9-0.3-1.4-0.3c-0.9,0-1.5,0.4-1.5,1.1l0,0c0,0.6,0.5,1,1.2,1
				C168.9,78.2,169.7,77.7,169.7,76.9"/>
			<path class="st0" d="M172.9,73.3c0-0.4,0.3-0.7,0.7-0.7c0.4,0,0.7,0.3,0.7,0.7v0.3c0.4-0.6,1-1.1,2-1.1c1.4,0,2.3,1,2.3,2.5v3.5
				c0,0.4-0.3,0.7-0.7,0.7s-0.7-0.3-0.7-0.7v-3.1c0-1-0.5-1.6-1.3-1.6c-0.8,0-1.4,0.6-1.4,1.6v3.1c0,0.4-0.3,0.7-0.7,0.7
				s-0.7-0.3-0.7-0.7v-5.2H172.9z"/>
			<path class="st0" d="M180.2,78.5c-0.2-0.1-0.3-0.3-0.3-0.5c0-0.3,0.3-0.6,0.6-0.6c0.1,0,0.2,0,0.3,0.1c0.6,0.4,1.2,0.6,1.8,0.6
				s1-0.3,1-0.7l0,0c0-0.5-0.7-0.7-1.4-0.9c-0.9-0.3-2-0.7-2-1.9l0,0c0-1.2,1-2,2.3-2c0.7,0,1.4,0.2,2,0.5c0.2,0.1,0.3,0.3,0.3,0.6
				c0,0.3-0.3,0.6-0.6,0.6c-0.1,0-0.2,0-0.3-0.1c-0.5-0.3-1-0.4-1.5-0.4c-0.6,0-0.9,0.3-0.9,0.6l0,0c0,0.5,0.7,0.7,1.4,0.9
				c0.9,0.3,2,0.7,2,1.9l0,0c0,1.4-1,2-2.4,2C181.8,79.3,180.9,79,180.2,78.5"/>
			<path class="st0" d="M186.5,73.3c0-0.4,0.3-0.7,0.7-0.7s0.7,0.3,0.7,0.7v0.4c0.5-0.7,1.1-1.2,2.2-1.2c1.5,0,3,1.2,3,3.4l0,0
				c0,2.1-1.4,3.4-3,3.4c-1,0-1.7-0.5-2.2-1.1v2.3c0,0.4-0.3,0.7-0.7,0.7s-0.7-0.3-0.7-0.7V73.3z M191.8,75.9L191.8,75.9
				c0-1.3-0.8-2.1-1.8-2.1s-1.8,0.8-1.8,2.1l0,0c0,1.2,0.9,2.1,1.8,2.1C190.9,78,191.8,77.2,191.8,75.9"/>
			<path class="st0" d="M194.3,77.3L194.3,77.3c0-1.4,1.1-2.1,2.7-2.1c0.7,0,1.2,0.1,1.7,0.3v-0.2c0-0.9-0.5-1.4-1.6-1.4
				c-0.5,0-1,0.1-1.4,0.3c-0.1,0-0.2,0-0.2,0c-0.3,0-0.6-0.3-0.6-0.6c0-0.3,0.2-0.5,0.4-0.6c0.6-0.2,1.2-0.4,2-0.4
				c0.9,0,1.6,0.3,2.2,0.7c0.5,0.5,0.7,1.1,0.7,2v3.3c0,0.4-0.3,0.7-0.7,0.7c-0.4,0-0.7-0.3-0.7-0.6v-0.2c-0.4,0.5-1.1,0.9-2.2,0.9
				C195.5,79.3,194.3,78.6,194.3,77.3 M198.7,76.9v-0.4c-0.4-0.1-0.9-0.3-1.4-0.3c-0.9,0-1.5,0.4-1.5,1.1l0,0c0,0.6,0.5,1,1.2,1
				C198,78.2,198.7,77.7,198.7,76.9"/>
			<path class="st0" d="M201.9,73.3c0-0.4,0.3-0.7,0.7-0.7c0.4,0,0.7,0.3,0.7,0.7V74c0.3-0.8,1-1.4,1.6-1.4c0.5,0,0.7,0.3,0.7,0.7
				s-0.3,0.6-0.6,0.7c-1,0.2-1.7,1-1.7,2.5v1.9c0,0.4-0.3,0.7-0.7,0.7c-0.4,0-0.7-0.3-0.7-0.7V73.3z"/>
			<path class="st0" d="M209.7,79.3c-1.8,0-3.3-1.4-3.3-3.4l0,0c0-1.8,1.3-3.5,3.2-3.5c2,0,3.1,1.7,3.1,3.3c0,0.4-0.3,0.7-0.7,0.7
				h-4.1c0.2,1.1,0.9,1.6,1.8,1.6c0.6,0,1.1-0.2,1.5-0.6c0.1-0.1,0.2-0.1,0.4-0.1c0.3,0,0.6,0.3,0.6,0.6c0,0.2-0.1,0.3-0.2,0.5
				C211.4,79,210.7,79.3,209.7,79.3 M211.2,75.4c-0.1-1-0.6-1.7-1.6-1.7c-0.9,0-1.5,0.7-1.6,1.7H211.2z"/>
			<path class="st0" d="M214.2,73.3c0-0.4,0.3-0.7,0.7-0.7c0.4,0,0.7,0.3,0.7,0.7v0.3c0.4-0.6,1-1.1,2-1.1c1.4,0,2.3,1,2.3,2.5v3.5
				c0,0.4-0.3,0.7-0.7,0.7s-0.7-0.3-0.7-0.7v-3.1c0-1-0.5-1.6-1.3-1.6c-0.8,0-1.4,0.6-1.4,1.6v3.1c0,0.4-0.3,0.7-0.7,0.7
				s-0.7-0.3-0.7-0.7v-5.2H214.2z"/>
			<path class="st0" d="M222,77.4v-3.5h-0.2c-0.3,0-0.6-0.3-0.6-0.6c0-0.4,0.3-0.6,0.6-0.6h0.2v-1.1c0-0.4,0.3-0.7,0.7-0.7
				s0.7,0.3,0.7,0.7v1.1h1.1c0.3,0,0.6,0.3,0.6,0.6c0,0.4-0.3,0.6-0.6,0.6h-1.1v3.3c0,0.6,0.3,0.8,0.8,0.8c0.2,0,0.3,0,0.4,0
				c0.3,0,0.6,0.3,0.6,0.6c0,0.3-0.2,0.5-0.4,0.6c-0.3,0.1-0.6,0.2-1,0.2C222.8,79.3,222,78.8,222,77.4"/>
			<path class="st0" d="M229.5,79.3c-1.8,0-3.3-1.4-3.3-3.4l0,0c0-1.8,1.3-3.5,3.2-3.5c2,0,3.1,1.7,3.1,3.3c0,0.4-0.3,0.7-0.7,0.7
				h-4c0.2,1.1,0.9,1.6,1.8,1.6c0.6,0,1.1-0.2,1.5-0.6c0.1-0.1,0.2-0.1,0.4-0.1c0.3,0,0.6,0.3,0.6,0.6c0,0.2-0.1,0.3-0.2,0.5
				C231.3,79,230.5,79.3,229.5,79.3 M231,75.4c-0.1-1-0.6-1.7-1.6-1.7c-0.9,0-1.5,0.7-1.6,1.7H231z"/>
		</g>
	</g>
</g>
</svg>
