<?xml version="1.0" encoding="utf-8"?>
<!-- Generator: Adobe Illustrator 23.0.0, SVG Export Plug-In . SVG Version: 6.00 Build 0)  -->
<svg version="1.1" id="Capa_1" xmlns="http://www.w3.org/2000/svg" xmlns:xlink="http://www.w3.org/1999/xlink" x="0px" y="0px"
	 viewBox="0 0 250 110.4" style="enable-background:new 0 0 250 110.4;" xml:space="preserve">
<style type="text/css">
	.st0{fill:#A3211A;}
	.st1{fill:#D4211A;}
</style>
<g>
	<path class="st0" d="M22,104v5.8H0c0.2-2.2,1-4.3,2.1-6.3c1.2-2,3.5-4.6,7.1-7.9c2.8-2.6,4.6-4.4,5.2-5.4c0.9-1.3,1.3-2.6,1.3-3.8
		c0-1.4-0.4-2.5-1.1-3.2c-0.8-0.8-1.8-1.1-3.1-1.1c-1.3,0-2.4,0.4-3.1,1.2c-0.8,0.8-1.2,2.1-1.3,3.9l-6.3-0.6
		c0.4-3.5,1.5-5.9,3.5-7.4c2-1.5,4.4-2.3,7.4-2.3c3.2,0,5.8,0.9,7.6,2.6c1.8,1.7,2.8,3.9,2.8,6.5c0,1.5-0.3,2.9-0.8,4.2
		c-0.5,1.3-1.4,2.7-2.5,4.2c-0.8,1-2.1,2.4-4.1,4.2c-2,1.8-3.2,3-3.8,3.6c-0.5,0.6-1,1.2-1.3,1.7H22z"/>
	<path class="st0" d="M39.1,76.9c3.2,0,5.7,1.1,7.4,3.4c2.1,2.7,3.2,7.1,3.2,13.4c0,6.2-1.1,10.7-3.2,13.4c-1.8,2.2-4.3,3.4-7.4,3.4
		c-3.2,0-5.8-1.2-7.7-3.7c-2-2.5-2.9-6.8-2.9-13.1c0-6.2,1.1-10.6,3.2-13.3C33.4,78,35.9,76.9,39.1,76.9z M39.1,82.1
		c-0.8,0-1.4,0.2-2,0.7c-0.6,0.5-1.1,1.4-1.4,2.6c-0.4,1.6-0.6,4.4-0.6,8.2c0,3.8,0.2,6.5,0.6,7.9c0.4,1.4,0.9,2.4,1.5,2.9
		c0.6,0.5,1.3,0.7,2,0.7c0.8,0,1.4-0.2,2-0.7c0.6-0.5,1.1-1.4,1.4-2.6c0.4-1.6,0.6-4.3,0.6-8.2c0-3.8-0.2-6.5-0.6-7.9
		c-0.4-1.4-0.9-2.4-1.5-2.9C40.5,82.3,39.9,82.1,39.1,82.1z"/>
	<path class="st0" d="M76.9,104v5.8h-22c0.2-2.2,1-4.3,2.1-6.3c1.2-2,3.5-4.6,7.1-7.9c2.8-2.6,4.6-4.4,5.2-5.4
		c0.9-1.3,1.3-2.6,1.3-3.8c0-1.4-0.4-2.5-1.1-3.2c-0.8-0.8-1.8-1.1-3.1-1.1c-1.3,0-2.4,0.4-3.1,1.2c-0.8,0.8-1.2,2.1-1.3,3.9
		l-6.3-0.6c0.4-3.5,1.5-5.9,3.5-7.4c2-1.5,4.4-2.3,7.4-2.3c3.2,0,5.8,0.9,7.6,2.6c1.8,1.7,2.8,3.9,2.8,6.5c0,1.5-0.3,2.9-0.8,4.2
		c-0.5,1.3-1.4,2.7-2.5,4.2c-0.8,1-2.1,2.4-4.1,4.2c-2,1.8-3.2,3-3.8,3.6c-0.5,0.6-1,1.2-1.3,1.7H76.9z"/>
	<path class="st0" d="M94,76.9c3.2,0,5.7,1.1,7.4,3.4c2.1,2.7,3.2,7.1,3.2,13.4c0,6.2-1.1,10.7-3.2,13.4c-1.8,2.2-4.3,3.4-7.4,3.4
		c-3.2,0-5.8-1.2-7.7-3.7c-2-2.5-2.9-6.8-2.9-13.1c0-6.2,1.1-10.6,3.2-13.3C88.3,78,90.8,76.9,94,76.9z M94,82.1
		c-0.8,0-1.4,0.2-2,0.7c-0.6,0.5-1.1,1.4-1.4,2.6c-0.4,1.6-0.6,4.4-0.6,8.2c0,3.8,0.2,6.5,0.6,7.9c0.4,1.4,0.9,2.4,1.5,2.9
		c0.6,0.5,1.3,0.7,2,0.7c0.8,0,1.4-0.2,2-0.7c0.6-0.5,1.1-1.4,1.4-2.6c0.4-1.6,0.6-4.3,0.6-8.2c0-3.8-0.2-6.5-0.6-7.9
		c-0.4-1.4-0.9-2.4-1.5-2.9C95.4,82.3,94.8,82.1,94,82.1z"/>
	<path class="st0" d="M120,101.1v-6.3h12.3v6.3H120z"/>
	<path class="st0" d="M166.1,104v5.8h-22c0.2-2.2,1-4.3,2.1-6.3c1.2-2,3.5-4.6,7.1-7.9c2.8-2.6,4.6-4.4,5.2-5.4
		c0.9-1.3,1.3-2.6,1.3-3.8c0-1.4-0.4-2.5-1.1-3.2c-0.8-0.8-1.8-1.1-3.1-1.1c-1.3,0-2.4,0.4-3.1,1.2c-0.8,0.8-1.2,2.1-1.3,3.9
		l-6.3-0.6c0.4-3.5,1.5-5.9,3.5-7.4c2-1.5,4.4-2.3,7.4-2.3c3.2,0,5.8,0.9,7.6,2.6c1.8,1.7,2.8,3.9,2.8,6.5c0,1.5-0.3,2.9-0.8,4.2
		c-0.5,1.3-1.4,2.7-2.5,4.2c-0.8,1-2.1,2.4-4.1,4.2c-2,1.8-3.2,3-3.8,3.6c-0.5,0.6-1,1.2-1.3,1.7H166.1z"/>
	<path class="st0" d="M183.2,76.9c3.2,0,5.7,1.1,7.4,3.4c2.1,2.7,3.2,7.1,3.2,13.4c0,6.2-1.1,10.7-3.2,13.4
		c-1.8,2.2-4.3,3.4-7.4,3.4c-3.2,0-5.8-1.2-7.7-3.7c-2-2.5-2.9-6.8-2.9-13.1c0-6.2,1.1-10.6,3.2-13.3C177.5,78,180,76.9,183.2,76.9z
		 M183.2,82.1c-0.8,0-1.4,0.2-2,0.7c-0.6,0.5-1.1,1.4-1.4,2.6c-0.4,1.6-0.6,4.4-0.6,8.2c0,3.8,0.2,6.5,0.6,7.9
		c0.4,1.4,0.9,2.4,1.5,2.9c0.6,0.5,1.3,0.7,2,0.7c0.8,0,1.4-0.2,2-0.7c0.6-0.5,1.1-1.4,1.4-2.6c0.4-1.6,0.6-4.3,0.6-8.2
		c0-3.8-0.2-6.5-0.6-7.9c-0.4-1.4-0.9-2.4-1.5-2.9C184.6,82.3,183.9,82.1,183.2,82.1z"/>
	<path class="st0" d="M221,104v5.8h-22c0.2-2.2,1-4.3,2.1-6.3c1.2-2,3.5-4.6,7.1-7.9c2.8-2.6,4.6-4.4,5.2-5.4
		c0.9-1.3,1.3-2.6,1.3-3.8c0-1.4-0.4-2.5-1.1-3.2c-0.8-0.8-1.8-1.1-3.1-1.1c-1.3,0-2.4,0.4-3.1,1.2c-0.8,0.8-1.2,2.1-1.3,3.9
		l-6.3-0.6c0.4-3.5,1.5-5.9,3.5-7.4c2-1.5,4.4-2.3,7.4-2.3c3.2,0,5.8,0.9,7.6,2.6c1.8,1.7,2.8,3.9,2.8,6.5c0,1.5-0.3,2.9-0.8,4.2
		c-0.5,1.3-1.4,2.7-2.5,4.2c-0.8,1-2.1,2.4-4.1,4.2c-2,1.8-3.2,3-3.8,3.6c-0.5,0.6-1,1.2-1.3,1.7H221z"/>
	<path class="st0" d="M239.8,109.8v-6.6h-13.4v-5.5l14.2-20.8h5.3v20.8h4.1v5.5h-4.1v6.6H239.8z M239.8,97.7V86.5l-7.5,11.2H239.8z"
		/>
</g>
<g>
	<path class="st1" d="M0,22.2V0.4h7.1c2.7,0,4.4,0.1,5.3,0.3c1.3,0.3,2.3,1,3.1,2.1s1.3,2.5,1.3,4.3c0,1.3-0.2,2.5-0.7,3.4
		c-0.5,0.9-1.1,1.6-1.9,2.2c-0.8,0.5-1.5,0.9-2.3,1C10.8,13.9,9.3,14,7.3,14H4.4v8.3H0z M4.4,4.1v6.2h2.4c1.7,0,2.9-0.1,3.5-0.3
		c0.6-0.2,1-0.6,1.4-1.1c0.3-0.5,0.5-1.1,0.5-1.7c0-0.8-0.2-1.5-0.7-2c-0.5-0.5-1.1-0.8-1.8-1C9.2,4.1,8.1,4.1,6.6,4.1H4.4z"/>
	<path class="st1" d="M20.2,22.2V0.6h4.4v18h11v3.7H20.2z"/>
	<path class="st1" d="M59.6,22.2h-4.8l-1.9-5h-8.7l-1.8,5h-4.7l8.5-21.9h4.7L59.6,22.2z M51.5,13.6l-3-8.1l-3,8.1H51.5z"/>
	<path class="st1" d="M62.4,22.2V0.4h4.3l9,14.6V0.4h4.1v21.9h-4.4L66.5,8v14.3H62.4z"/>
	<path class="st1" d="M93.5,0.4h8.1c1.8,0,3.2,0.1,4.2,0.4c1.3,0.4,2.4,1,3.3,2s1.6,2.1,2.1,3.5s0.7,3.1,0.7,5.2
		c0,1.8-0.2,3.4-0.7,4.7c-0.5,1.6-1.3,2.9-2.3,3.9c-0.8,0.7-1.8,1.3-3.1,1.7c-1,0.3-2.3,0.5-3.9,0.5h-8.3V0.4z M97.9,4.1v14.5h3.3
		c1.2,0,2.1-0.1,2.7-0.2c0.7-0.2,1.3-0.5,1.8-0.9c0.5-0.4,0.9-1.1,1.2-2.1c0.3-1,0.4-2.3,0.4-4s-0.1-3-0.4-3.9
		c-0.3-0.9-0.7-1.6-1.3-2.1s-1.2-0.9-2-1c-0.6-0.1-1.8-0.2-3.6-0.2H97.9z"/>
	<path class="st1" d="M115.8,22.2V0.4h4.4v21.9H115.8z"/>
	<path class="st1" d="M123.8,15.1l4.3-0.4c0.3,1.4,0.8,2.5,1.6,3.2c0.8,0.7,1.9,1,3.2,1c1.4,0,2.5-0.3,3.2-0.9
		c0.7-0.6,1.1-1.3,1.1-2.1c0-0.5-0.2-1-0.5-1.3c-0.3-0.4-0.8-0.7-1.6-0.9c-0.5-0.2-1.7-0.5-3.5-1c-2.4-0.6-4-1.3-5-2.2
		c-1.3-1.2-2-2.7-2-4.4c0-1.1,0.3-2.2,0.9-3.1s1.5-1.7,2.7-2.2c1.2-0.5,2.6-0.8,4.3-0.8c2.7,0,4.8,0.6,6.2,1.8s2.1,2.8,2.2,4.8
		l-4.4,0.2c-0.2-1.1-0.6-1.9-1.2-2.4c-0.6-0.5-1.6-0.7-2.8-0.7c-1.3,0-2.3,0.3-3,0.8c-0.5,0.3-0.7,0.8-0.7,1.4c0,0.5,0.2,1,0.7,1.3
		c0.6,0.5,1.9,1,4.1,1.5c2.1,0.5,3.7,1,4.8,1.6c1,0.5,1.8,1.3,2.4,2.2c0.6,0.9,0.9,2.1,0.9,3.5c0,1.3-0.3,2.4-1,3.5
		c-0.7,1.1-1.7,1.9-3,2.4s-2.9,0.8-4.8,0.8c-2.8,0-4.9-0.6-6.4-1.9S124,17.6,123.8,15.1z"/>
	<path class="st1" d="M150.2,22.2V4.1h-6.5V0.4h17.4v3.7h-6.5v18.2H150.2z"/>
	<path class="st1" d="M164.1,22.2V0.4h9.3c2.3,0,4,0.2,5.1,0.6c1.1,0.4,1.9,1.1,2.5,2.1s1,2.2,1,3.4c0,1.6-0.5,3-1.4,4.1
		s-2.4,1.7-4.3,2c1,0.6,1.7,1.2,2.4,1.8c0.6,0.7,1.5,1.9,2.5,3.6l2.7,4.3h-5.3l-3.2-4.8c-1.1-1.7-1.9-2.8-2.3-3.2
		c-0.4-0.4-0.9-0.7-1.3-0.9c-0.5-0.2-1.2-0.2-2.2-0.2h-0.9v9.1H164.1z M168.5,9.6h3.3c2.1,0,3.4-0.1,4-0.3c0.5-0.2,0.9-0.5,1.2-0.9
		s0.4-1,0.4-1.6c0-0.7-0.2-1.3-0.6-1.8c-0.4-0.5-0.9-0.7-1.7-0.9c-0.4,0-1.4-0.1-3.2-0.1h-3.4V9.6z"/>
	<path class="st1" d="M186.5,22.2V0.4h4.4v21.9H186.5z"/>
	<path class="st1" d="M200.3,22.2V4.1h-6.5V0.4h17.4v3.7h-6.5v18.2H200.3z"/>
	<path class="st1" d="M231.8,22.2H227l-1.9-5h-8.7l-1.8,5h-4.7l8.5-21.9h4.7L231.8,22.2z M223.6,13.6l-3-8.1l-3,8.1H223.6z"/>
	<path class="st1" d="M234.6,22.2V0.6h4.4v18h11v3.7H234.6z"/>
</g>
<g>
	<path class="st1" d="M0,40.8h7.7c1.7,0,3,0.1,4,0.4c1.2,0.4,2.3,1,3.1,1.9c0.9,0.9,1.5,2,2,3.4c0.5,1.3,0.7,3,0.7,4.9
		c0,1.7-0.2,3.2-0.6,4.4c-0.5,1.5-1.3,2.7-2.2,3.7c-0.7,0.7-1.7,1.3-2.9,1.7c-0.9,0.3-2.2,0.4-3.7,0.4H0V40.8z M4.2,44.3V58h3.1
		c1.2,0,2-0.1,2.5-0.2c0.7-0.2,1.2-0.5,1.7-0.9c0.4-0.4,0.8-1.1,1.1-2c0.3-0.9,0.4-2.2,0.4-3.8c0-1.6-0.1-2.8-0.4-3.7
		c-0.3-0.9-0.7-1.5-1.2-2c-0.5-0.5-1.2-0.8-1.9-1c-0.6-0.1-1.7-0.2-3.4-0.2H4.2z"/>
	<path class="st1" d="M21.3,61.6V40.8h15.4v3.5H25.5v4.6h10.4v3.5H25.5V58h11.6v3.5H21.3z"/>
	<path class="st1" d="M49.3,40.8H57c1.7,0,3,0.1,4,0.4c1.2,0.4,2.3,1,3.1,1.9c0.9,0.9,1.5,2,2,3.4c0.5,1.3,0.7,3,0.7,4.9
		c0,1.7-0.2,3.2-0.6,4.4c-0.5,1.5-1.3,2.7-2.2,3.7c-0.7,0.7-1.7,1.3-2.9,1.7c-0.9,0.3-2.2,0.4-3.7,0.4h-7.9V40.8z M53.5,44.3V58h3.1
		c1.2,0,2-0.1,2.5-0.2c0.7-0.2,1.2-0.5,1.7-0.9c0.4-0.4,0.8-1.1,1.1-2c0.3-0.9,0.4-2.2,0.4-3.8c0-1.6-0.1-2.8-0.4-3.7
		c-0.3-0.9-0.7-1.5-1.2-2c-0.5-0.5-1.2-0.8-1.9-1c-0.6-0.1-1.7-0.2-3.4-0.2H53.5z"/>
	<path class="st1" d="M70.6,61.6V40.8H86v3.5H74.8v4.6h10.4v3.5H74.8V58h11.6v3.5H70.6z"/>
	<path class="st1" d="M88.8,54.8l4.1-0.4c0.2,1.4,0.7,2.4,1.5,3c0.8,0.6,1.8,1,3,1c1.4,0,2.4-0.3,3.1-0.9s1-1.2,1-2
		c0-0.5-0.1-0.9-0.4-1.3c-0.3-0.3-0.8-0.6-1.5-0.9c-0.5-0.2-1.6-0.5-3.4-0.9c-2.3-0.6-3.8-1.2-4.7-2.1c-1.3-1.1-1.9-2.5-1.9-4.2
		c0-1.1,0.3-2,0.9-3s1.5-1.6,2.6-2.1c1.1-0.5,2.5-0.7,4.1-0.7c2.6,0,4.6,0.6,5.9,1.7s2,2.7,2.1,4.6l-4.2,0.2
		c-0.2-1.1-0.6-1.8-1.2-2.3c-0.6-0.5-1.5-0.7-2.7-0.7c-1.2,0-2.2,0.3-2.9,0.8c-0.4,0.3-0.7,0.8-0.7,1.3c0,0.5,0.2,0.9,0.6,1.3
		c0.5,0.4,1.8,0.9,3.9,1.4c2,0.5,3.6,1,4.5,1.5c1,0.5,1.7,1.2,2.3,2.1c0.6,0.9,0.8,2,0.8,3.3c0,1.2-0.3,2.3-1,3.3s-1.6,1.8-2.8,2.3
		c-1.2,0.5-2.7,0.8-4.5,0.8c-2.6,0-4.6-0.6-6.1-1.8S89.1,57.1,88.8,54.8z"/>
	<path class="st1" d="M127.9,61.6h-4.6l-1.8-4.7h-8.3l-1.7,4.7h-4.5l8.1-20.8h4.4L127.9,61.6z M120.2,53.3l-2.9-7.7l-2.8,7.7H120.2z
		"/>
	<path class="st1" d="M130.6,61.6V40.8h8.8c2.2,0,3.8,0.2,4.8,0.6c1,0.4,1.8,1,2.4,2c0.6,1,0.9,2,0.9,3.3c0,1.6-0.5,2.8-1.4,3.9
		c-0.9,1-2.3,1.7-4.1,1.9c0.9,0.5,1.7,1.1,2.2,1.7c0.6,0.6,1.4,1.8,2.4,3.4l2.5,4.1h-5l-3-4.5c-1.1-1.6-1.8-2.6-2.2-3.1
		c-0.4-0.4-0.8-0.7-1.3-0.9c-0.4-0.2-1.1-0.2-2.1-0.2h-0.9v8.7H130.6z M134.8,49.6h3.1c2,0,3.3-0.1,3.8-0.3s0.9-0.5,1.2-0.9
		c0.3-0.4,0.4-0.9,0.4-1.6c0-0.7-0.2-1.3-0.6-1.7s-0.9-0.7-1.6-0.8c-0.3,0-1.4-0.1-3.1-0.1h-3.3V49.6z"/>
	<path class="st1" d="M151.9,61.6V40.8h8.8c2.2,0,3.8,0.2,4.8,0.6c1,0.4,1.8,1,2.4,2c0.6,1,0.9,2,0.9,3.3c0,1.6-0.5,2.8-1.4,3.9
		c-0.9,1-2.3,1.7-4.1,1.9c0.9,0.5,1.7,1.1,2.2,1.7c0.6,0.6,1.4,1.8,2.4,3.4l2.5,4.1h-5l-3-4.5c-1.1-1.6-1.8-2.6-2.2-3.1
		c-0.4-0.4-0.8-0.7-1.3-0.9s-1.1-0.2-2.1-0.2h-0.9v8.7H151.9z M156.1,49.6h3.1c2,0,3.3-0.1,3.8-0.3s0.9-0.5,1.2-0.9
		c0.3-0.4,0.4-0.9,0.4-1.6c0-0.7-0.2-1.3-0.6-1.7s-0.9-0.7-1.6-0.8c-0.3,0-1.4-0.1-3.1-0.1h-3.3V49.6z"/>
	<path class="st1" d="M171.8,51.3c0-2.1,0.3-3.9,1-5.3c0.5-1.1,1.1-2,1.9-2.9c0.8-0.8,1.7-1.5,2.7-1.9c1.3-0.5,2.8-0.8,4.5-0.8
		c3.1,0,5.5,1,7.4,2.9c1.8,1.9,2.8,4.5,2.8,7.9c0,3.4-0.9,6-2.7,7.9c-1.8,1.9-4.3,2.8-7.3,2.8c-3.1,0-5.5-0.9-7.4-2.8
		C172.7,57.2,171.8,54.6,171.8,51.3z M176.1,51.1c0,2.4,0.5,4.1,1.6,5.4s2.5,1.8,4.1,1.8s3-0.6,4.1-1.8c1.1-1.2,1.6-3,1.6-5.4
		c0-2.4-0.5-4.2-1.6-5.3c-1-1.2-2.4-1.8-4.2-1.8c-1.7,0-3.1,0.6-4.2,1.8C176.7,47,176.1,48.8,176.1,51.1z"/>
	<path class="st1" d="M195.7,61.6V40.9h4.2V58h10.4v3.5H195.7z"/>
	<path class="st1" d="M213.4,61.6V40.9h4.2V58H228v3.5H213.4z"/>
	<path class="st1" d="M229.8,51.3c0-2.1,0.3-3.9,1-5.3c0.5-1.1,1.1-2,1.9-2.9s1.7-1.5,2.7-1.9c1.3-0.5,2.8-0.8,4.5-0.8
		c3.1,0,5.5,1,7.4,2.9c1.8,1.9,2.8,4.5,2.8,7.9c0,3.4-0.9,6-2.7,7.9c-1.8,1.9-4.3,2.8-7.3,2.8c-3.1,0-5.5-0.9-7.4-2.8
		S229.8,54.6,229.8,51.3z M234.2,51.1c0,2.4,0.5,4.1,1.6,5.4c1.1,1.2,2.5,1.8,4.1,1.8c1.7,0,3-0.6,4.1-1.8c1.1-1.2,1.6-3,1.6-5.4
		c0-2.4-0.5-4.2-1.6-5.3c-1-1.2-2.4-1.8-4.2-1.8c-1.7,0-3.1,0.6-4.2,1.8C234.7,47,234.2,48.8,234.2,51.1z"/>
</g>
</svg>
