<?xml version="1.0" encoding="utf-8"?>
<!-- Generator: Adobe Illustrator 23.0.0, SVG Export Plug-In . SVG Version: 6.00 Build 0)  -->
<svg version="1.1" id="Capa_1" xmlns="http://www.w3.org/2000/svg" xmlns:xlink="http://www.w3.org/1999/xlink" x="0px" y="0px"
	 viewBox="0 0 250 110.4" style="enable-background:new 0 0 250 110.4;" xml:space="preserve">
<style type="text/css">
	.st0{fill:#516E4D;}
	.st1{fill:#55B177;}
</style>
<g>
	<path class="st0" d="M22,104v5.8H0c0.2-2.2,1-4.3,2.1-6.3c1.2-2,3.5-4.6,7.1-7.9c2.8-2.6,4.6-4.4,5.2-5.4c0.9-1.3,1.3-2.6,1.3-3.8
		c0-1.4-0.4-2.5-1.1-3.2c-0.8-0.8-1.8-1.1-3.1-1.1c-1.3,0-2.4,0.4-3.1,1.2c-0.8,0.8-1.2,2.1-1.3,3.9l-6.3-0.6
		c0.4-3.5,1.5-5.9,3.5-7.4c2-1.5,4.4-2.3,7.4-2.3c3.2,0,5.8,0.9,7.6,2.6c1.8,1.7,2.8,3.9,2.8,6.5c0,1.5-0.3,2.9-0.8,4.2
		c-0.5,1.3-1.4,2.7-2.5,4.2c-0.8,1-2.1,2.4-4.1,4.2c-2,1.8-3.2,3-3.8,3.6c-0.5,0.6-1,1.2-1.3,1.7H22z"/>
	<path class="st0" d="M39.1,76.9c3.2,0,5.7,1.1,7.4,3.4c2.1,2.7,3.2,7.1,3.2,13.4c0,6.2-1.1,10.7-3.2,13.4c-1.8,2.2-4.3,3.4-7.4,3.4
		c-3.2,0-5.8-1.2-7.7-3.7c-2-2.5-2.9-6.8-2.9-13.1c0-6.2,1.1-10.6,3.2-13.3C33.4,78,35.9,76.9,39.1,76.9z M39.1,82.1
		c-0.8,0-1.4,0.2-2,0.7c-0.6,0.5-1.1,1.4-1.4,2.6c-0.4,1.6-0.6,4.4-0.6,8.2c0,3.8,0.2,6.5,0.6,7.9c0.4,1.4,0.9,2.4,1.5,2.9
		c0.6,0.5,1.3,0.7,2,0.7c0.8,0,1.4-0.2,2-0.7c0.6-0.5,1.1-1.4,1.4-2.6c0.4-1.6,0.6-4.3,0.6-8.2c0-3.8-0.2-6.5-0.6-7.9
		c-0.4-1.4-0.9-2.4-1.5-2.9C40.5,82.3,39.9,82.1,39.1,82.1z"/>
	<path class="st0" d="M76.9,104v5.8h-22c0.2-2.2,1-4.3,2.1-6.3c1.2-2,3.5-4.6,7.1-7.9c2.8-2.6,4.6-4.4,5.2-5.4
		c0.9-1.3,1.3-2.6,1.3-3.8c0-1.4-0.4-2.5-1.1-3.2c-0.8-0.8-1.8-1.1-3.1-1.1c-1.3,0-2.4,0.4-3.1,1.2c-0.8,0.8-1.2,2.1-1.3,3.9
		l-6.3-0.6c0.4-3.5,1.5-5.9,3.5-7.4c2-1.5,4.4-2.3,7.4-2.3c3.2,0,5.8,0.9,7.6,2.6c1.8,1.7,2.8,3.9,2.8,6.5c0,1.5-0.3,2.9-0.8,4.2
		c-0.5,1.3-1.4,2.7-2.5,4.2c-0.8,1-2.1,2.4-4.1,4.2c-2,1.8-3.2,3-3.8,3.6c-0.5,0.6-1,1.2-1.3,1.7H76.9z"/>
	<path class="st0" d="M94,76.9c3.2,0,5.7,1.1,7.4,3.4c2.1,2.7,3.2,7.1,3.2,13.4c0,6.2-1.1,10.7-3.2,13.4c-1.8,2.2-4.3,3.4-7.4,3.4
		c-3.2,0-5.8-1.2-7.7-3.7c-2-2.5-2.9-6.8-2.9-13.1c0-6.2,1.1-10.6,3.2-13.3C88.3,78,90.8,76.9,94,76.9z M94,82.1
		c-0.8,0-1.4,0.2-2,0.7c-0.6,0.5-1.1,1.4-1.4,2.6c-0.4,1.6-0.6,4.4-0.6,8.2c0,3.8,0.2,6.5,0.6,7.9c0.4,1.4,0.9,2.4,1.5,2.9
		c0.6,0.5,1.3,0.7,2,0.7c0.8,0,1.4-0.2,2-0.7c0.6-0.5,1.1-1.4,1.4-2.6c0.4-1.6,0.6-4.3,0.6-8.2c0-3.8-0.2-6.5-0.6-7.9
		c-0.4-1.4-0.9-2.4-1.5-2.9C95.4,82.3,94.8,82.1,94,82.1z"/>
	<path class="st0" d="M120,101.1v-6.3h12.3v6.3H120z"/>
	<path class="st0" d="M166.1,104v5.8h-22c0.2-2.2,1-4.3,2.1-6.3c1.2-2,3.5-4.6,7.1-7.9c2.8-2.6,4.6-4.4,5.2-5.4
		c0.9-1.3,1.3-2.6,1.3-3.8c0-1.4-0.4-2.5-1.1-3.2c-0.8-0.8-1.8-1.1-3.1-1.1c-1.3,0-2.4,0.4-3.1,1.2c-0.8,0.8-1.2,2.1-1.3,3.9
		l-6.3-0.6c0.4-3.5,1.5-5.9,3.5-7.4c2-1.5,4.4-2.3,7.4-2.3c3.2,0,5.8,0.9,7.6,2.6c1.8,1.7,2.8,3.9,2.8,6.5c0,1.5-0.3,2.9-0.8,4.2
		c-0.5,1.3-1.4,2.7-2.5,4.2c-0.8,1-2.1,2.4-4.1,4.2c-2,1.8-3.2,3-3.8,3.6c-0.5,0.6-1,1.2-1.3,1.7H166.1z"/>
	<path class="st0" d="M183.2,76.9c3.2,0,5.7,1.1,7.4,3.4c2.1,2.7,3.2,7.1,3.2,13.4c0,6.2-1.1,10.7-3.2,13.4
		c-1.8,2.2-4.3,3.4-7.4,3.4c-3.2,0-5.8-1.2-7.7-3.7c-2-2.5-2.9-6.8-2.9-13.1c0-6.2,1.1-10.6,3.2-13.3C177.5,78,180,76.9,183.2,76.9z
		 M183.2,82.1c-0.8,0-1.4,0.2-2,0.7c-0.6,0.5-1.1,1.4-1.4,2.6c-0.4,1.6-0.6,4.4-0.6,8.2c0,3.8,0.2,6.5,0.6,7.9
		c0.4,1.4,0.9,2.4,1.5,2.9c0.6,0.5,1.3,0.7,2,0.7c0.8,0,1.4-0.2,2-0.7c0.6-0.5,1.1-1.4,1.4-2.6c0.4-1.6,0.6-4.3,0.6-8.2
		c0-3.8-0.2-6.5-0.6-7.9c-0.4-1.4-0.9-2.4-1.5-2.9C184.6,82.3,183.9,82.1,183.2,82.1z"/>
	<path class="st0" d="M221,104v5.8h-22c0.2-2.2,1-4.3,2.1-6.3c1.2-2,3.5-4.6,7.1-7.9c2.8-2.6,4.6-4.4,5.2-5.4
		c0.9-1.3,1.3-2.6,1.3-3.8c0-1.4-0.4-2.5-1.1-3.2c-0.8-0.8-1.8-1.1-3.1-1.1c-1.3,0-2.4,0.4-3.1,1.2c-0.8,0.8-1.2,2.1-1.3,3.9
		l-6.3-0.6c0.4-3.5,1.5-5.9,3.5-7.4c2-1.5,4.4-2.3,7.4-2.3c3.2,0,5.8,0.9,7.6,2.6c1.8,1.7,2.8,3.9,2.8,6.5c0,1.5-0.3,2.9-0.8,4.2
		c-0.5,1.3-1.4,2.7-2.5,4.2c-0.8,1-2.1,2.4-4.1,4.2c-2,1.8-3.2,3-3.8,3.6c-0.5,0.6-1,1.2-1.3,1.7H221z"/>
	<path class="st0" d="M239.8,109.8v-6.6h-13.4v-5.5l14.2-20.8h5.3v20.8h4.1v5.5h-4.1v6.6H239.8z M239.8,97.7V86.5l-7.5,11.2H239.8z"
		/>
</g>
<g>
	<g>
		<path class="st1" d="M0,31.3h12.3c2.8,0,4.9,0.2,6.3,0.6c1.9,0.6,3.6,1.6,5,3.1s2.4,3.3,3.2,5.4c0.7,2.1,1.1,4.7,1.1,7.8
			c0,2.7-0.3,5.1-1,7.1c-0.8,2.4-2,4.4-3.6,5.9c-1.2,1.1-2.7,2-4.7,2.7c-1.5,0.5-3.5,0.7-5.9,0.7H0V31.3z M6.7,36.9v22h5
			c1.9,0,3.2-0.1,4.1-0.3c1.1-0.3,2-0.7,2.7-1.4c0.7-0.7,1.3-1.7,1.8-3.2c0.5-1.5,0.7-3.5,0.7-6.1c0-2.6-0.2-4.5-0.7-5.9
			c-0.5-1.4-1.1-2.4-1.9-3.2c-0.8-0.8-1.9-1.3-3.1-1.6c-0.9-0.2-2.8-0.3-5.5-0.3H6.7z"/>
		<path class="st1" d="M36.6,64.5V31.3h24.6v5.6H43.3v7.4H60v5.6H43.3v9h18.5v5.6H36.6z"/>
		<path class="st1" d="M83.4,53.7l6.5-0.6c0.4,2.2,1.2,3.8,2.4,4.8c1.2,1,2.8,1.5,4.9,1.5c2.2,0,3.8-0.5,4.9-1.4
			c1.1-0.9,1.6-2,1.6-3.2c0-0.8-0.2-1.5-0.7-2c-0.5-0.6-1.3-1-2.4-1.4c-0.8-0.3-2.6-0.8-5.4-1.5c-3.6-0.9-6.1-2-7.6-3.3
			c-2-1.8-3.1-4.1-3.1-6.7c0-1.7,0.5-3.3,1.4-4.7c1-1.5,2.3-2.6,4.1-3.4c1.8-0.8,4-1.2,6.5-1.2c4.2,0,7.3,0.9,9.4,2.7
			c2.1,1.8,3.2,4.3,3.3,7.3l-6.7,0.3c-0.3-1.7-0.9-2.9-1.8-3.7c-0.9-0.7-2.4-1.1-4.2-1.1c-1.9,0-3.5,0.4-4.6,1.2
			C91.3,38,91,38.7,91,39.5c0,0.8,0.3,1.5,1,2c0.8,0.7,2.9,1.4,6.2,2.2c3.3,0.8,5.7,1.6,7.2,2.4c1.6,0.8,2.8,1.9,3.7,3.4
			c0.9,1.4,1.3,3.2,1.3,5.3c0,1.9-0.5,3.7-1.6,5.3c-1.1,1.7-2.6,2.9-4.5,3.7c-1.9,0.8-4.3,1.2-7.2,1.2c-4.2,0-7.4-1-9.7-2.9
			C85.1,60.2,83.8,57.4,83.4,53.7z"/>
		<path class="st1" d="M148.5,64.5h-7.3l-2.9-7.5H125l-2.7,7.5h-7.1l12.9-33.2h7.1L148.5,64.5z M136.1,51.4L131.5,39l-4.5,12.3
			H136.1z"/>
		<path class="st1" d="M155.4,64.5V31.6h6.7v27.3h16.7v5.6H155.4z"/>
		<path class="st1" d="M185.7,31.3h6.7v18c0,2.9,0.1,4.7,0.2,5.5c0.3,1.4,1,2.4,2,3.3c1.1,0.8,2.6,1.2,4.4,1.2
			c1.9,0,3.3-0.4,4.3-1.2c1-0.8,1.5-1.7,1.7-2.9c0.2-1.1,0.3-3,0.3-5.6V31.3h6.7v17.4c0,4-0.2,6.8-0.5,8.4c-0.4,1.6-1,3-2,4.2
			c-1,1.1-2.3,2-3.9,2.7c-1.6,0.7-3.8,1-6.4,1c-3.2,0-5.6-0.4-7.2-1.1c-1.6-0.7-2.9-1.7-3.9-2.9c-1-1.2-1.6-2.4-1.9-3.7
			c-0.4-1.9-0.7-4.7-0.7-8.4V31.3z"/>
		<path class="st1" d="M222.2,31.3h12.3c2.8,0,4.9,0.2,6.3,0.6c1.9,0.6,3.6,1.6,5,3.1c1.4,1.5,2.4,3.3,3.2,5.4
			c0.7,2.1,1.1,4.7,1.1,7.8c0,2.7-0.3,5.1-1,7.1c-0.8,2.4-2,4.4-3.6,5.9c-1.2,1.1-2.7,2-4.7,2.7c-1.5,0.5-3.5,0.7-5.9,0.7h-12.6
			V31.3z M228.9,36.9v22h5c1.9,0,3.2-0.1,4.1-0.3c1.1-0.3,2-0.7,2.7-1.4c0.7-0.7,1.3-1.7,1.8-3.2c0.5-1.5,0.7-3.5,0.7-6.1
			c0-2.6-0.2-4.5-0.7-5.9c-0.5-1.4-1.1-2.4-1.9-3.2c-0.8-0.8-1.9-1.3-3.1-1.6c-0.9-0.2-2.8-0.3-5.5-0.3H228.9z"/>
	</g>
	<g>
		<path class="st1" d="M0,19.7V0.3h6.2c2.3,0,3.9,0.1,4.6,0.3c1.1,0.3,2,0.9,2.7,1.9c0.7,1,1.1,2.2,1.1,3.8c0,1.2-0.2,2.2-0.6,3
			c-0.4,0.8-1,1.4-1.6,1.9c-0.7,0.5-1.3,0.8-2,0.9c-0.9,0.2-2.2,0.3-4,0.3H3.8v7.3H0z M3.8,3.6v5.5h2.1c1.5,0,2.5-0.1,3-0.3
			c0.5-0.2,0.9-0.5,1.2-1c0.3-0.4,0.4-0.9,0.4-1.5c0-0.7-0.2-1.3-0.6-1.7C9.6,4.2,9.1,3.9,8.4,3.8C8,3.7,7.1,3.6,5.7,3.6H3.8z"/>
		<path class="st1" d="M16.9,19.7V0.5h3.8v15.9h9.5v3.3H16.9z"/>
		<path class="st1" d="M50.5,19.7h-4.2l-1.7-4.4H37l-1.6,4.4h-4.1l7.4-19.4h4.1L50.5,19.7z M43.4,12.1l-2.6-7.2l-2.6,7.2H43.4z"/>
		<path class="st1" d="M52.2,19.7V0.3H56l7.8,12.9V0.3h3.6v19.4h-3.8L55.8,7.1v12.6H52.2z"/>
		<path class="st1" d="M82.5,19.7V3.6h-5.6V0.3h15.1v3.3h-5.6v16.1H82.5z"/>
		<path class="st1" d="M93.9,19.7V0.3H108v3.3H97.7v4.3h9.5v3.3h-9.5v5.3h10.6v3.3H93.9z"/>
		<path class="st1" d="M111.2,19.7V0.3h8.1c2,0,3.5,0.2,4.4,0.5c0.9,0.3,1.7,1,2.2,1.9c0.6,0.9,0.8,1.9,0.8,3.1
			c0,1.5-0.4,2.7-1.3,3.6c-0.8,0.9-2.1,1.5-3.8,1.8c0.8,0.5,1.5,1,2.1,1.6c0.5,0.6,1.3,1.6,2.2,3.1l2.3,3.8h-4.6l-2.8-4.2
			c-1-1.5-1.7-2.5-2-2.8c-0.4-0.4-0.7-0.7-1.2-0.8c-0.4-0.1-1-0.2-1.9-0.2h-0.8v8.1H111.2z M115.1,8.5h2.8c1.8,0,3-0.1,3.4-0.2
			s0.8-0.4,1.1-0.8c0.3-0.4,0.4-0.9,0.4-1.5c0-0.7-0.2-1.2-0.5-1.6c-0.3-0.4-0.8-0.7-1.4-0.8c-0.3,0-1.2-0.1-2.8-0.1h-3V8.5z"/>
		<path class="st1" d="M130.1,19.7V0.3h8.1c2,0,3.5,0.2,4.4,0.5c0.9,0.3,1.7,1,2.2,1.9c0.6,0.9,0.8,1.9,0.8,3.1
			c0,1.5-0.4,2.7-1.3,3.6c-0.8,0.9-2.1,1.5-3.8,1.8c0.8,0.5,1.5,1,2.1,1.6s1.3,1.6,2.2,3.1l2.3,3.8h-4.6l-2.8-4.2
			c-1-1.5-1.7-2.5-2-2.8c-0.4-0.4-0.7-0.7-1.2-0.8s-1-0.2-1.9-0.2h-0.8v8.1H130.1z M133.9,8.5h2.8c1.8,0,3-0.1,3.4-0.2
			s0.8-0.4,1.1-0.8c0.3-0.4,0.4-0.9,0.4-1.5c0-0.7-0.2-1.2-0.5-1.6c-0.3-0.4-0.8-0.7-1.4-0.8c-0.3,0-1.2-0.1-2.8-0.1h-3V8.5z"/>
		<path class="st1" d="M148.8,19.7V0.3h3.8v19.4H148.8z"/>
		<path class="st1" d="M160.2,19.7V3.6h-5.6V0.3h15.1v3.3H164v16.1H160.2z"/>
		<path class="st1" d="M170.5,10.1c0-2,0.3-3.6,0.9-5c0.4-1,1-1.9,1.8-2.7c0.7-0.8,1.6-1.4,2.5-1.7c1.2-0.5,2.5-0.8,4.1-0.8
			c2.8,0,5,0.9,6.7,2.7c1.7,1.8,2.5,4.2,2.5,7.4c0,3.1-0.8,5.6-2.5,7.3c-1.7,1.8-3.9,2.6-6.7,2.6c-2.8,0-5.1-0.9-6.7-2.6
			C171.3,15.7,170.5,13.2,170.5,10.1z M174.4,10c0,2.2,0.5,3.9,1.5,5c1,1.1,2.3,1.7,3.8,1.7c1.5,0,2.8-0.6,3.8-1.7
			c1-1.1,1.5-2.8,1.5-5.1c0-2.2-0.5-3.9-1.4-5c-1-1.1-2.2-1.6-3.8-1.6s-2.9,0.6-3.8,1.7C174.9,6.1,174.4,7.8,174.4,10z"/>
		<path class="st1" d="M191.6,19.7V0.3h8.1c2,0,3.5,0.2,4.4,0.5c0.9,0.3,1.7,1,2.2,1.9c0.6,0.9,0.8,1.9,0.8,3.1
			c0,1.5-0.4,2.7-1.3,3.6c-0.8,0.9-2.1,1.5-3.8,1.8c0.8,0.5,1.5,1,2.1,1.6s1.3,1.6,2.2,3.1l2.3,3.8h-4.6l-2.8-4.2
			c-1-1.5-1.7-2.5-2-2.8c-0.4-0.4-0.7-0.7-1.2-0.8s-1-0.2-1.9-0.2h-0.8v8.1H191.6z M195.4,8.5h2.8c1.8,0,3-0.1,3.4-0.2
			s0.8-0.4,1.1-0.8c0.3-0.4,0.4-0.9,0.4-1.5c0-0.7-0.2-1.2-0.5-1.6c-0.3-0.4-0.8-0.7-1.4-0.8c-0.3,0-1.2-0.1-2.8-0.1h-3V8.5z"/>
		<path class="st1" d="M210.4,19.7V0.3h3.8v19.4H210.4z"/>
		<path class="st1" d="M234.8,19.7h-4.2l-1.7-4.4h-7.6l-1.6,4.4h-4.1l7.4-19.4h4.1L234.8,19.7z M227.8,12.1l-2.6-7.2l-2.6,7.2H227.8
			z"/>
		<path class="st1" d="M236.6,19.7V0.5h3.8v15.9h9.5v3.3H236.6z"/>
	</g>
</g>
</svg>
